<svg xmlns="http://www.w3.org/2000/svg" width="280" height="280" viewBox="0 0 280 280"><path opacity=".3" fill="#F89821" d="M133.5 132.1l-72.1-108c-7 4.8-13.6 10.2-19.7 16.2l91.8 91.8z"/><path fill="#14477B" d="M137 130.2l-25.3-127.4c-8.4 1.7-16.6 4.2-24.4 7.4l49.7 120z"/><path opacity=".6" fill="#14477B" d="M139 129.8v-129.8c-8.7.1-17.1.9-25.3 2.5l25.3 127.3z"/><path fill="#989898" d="M141 139h139c-.6-76.5-62.5-138.5-139-139v139z"/><path opacity=".15" fill="#F89821" d="M135.2 131l-49.7-120c-7.9 3.3-15.4 7.4-22.4 12l72.1 108z"/><path opacity=".6" fill="#989898" d="M141.2 141l.3 1.3-.5.1v137.6c76.5-.5 138.5-62.5 139-139h-138.8z"/><path opacity=".3" fill="#989898" d="M139 142.4l-97.3 97.3c25.1 24.7 59.4 40 97.3 40.3v-137.6z"/><path opacity=".6" fill="#F89821" d="M135.7 137.1l-95.4-95.4c-12.3 12.5-22.4 27.3-29.3 43.8l124.7 51.6z"/><path opacity=".15" fill="#989898" d="M137.6 141h-137.6c.3 37.9 15.6 72.2 40.3 97.3l97.3-97.3z"/><path fill="#F89821" d="M135 139l-124.8-51.7c-6.4 16-10.1 33.4-10.2 51.7h135z"/><circle fill="#fff" cx="140" cy="140" r="70"/></svg>