<svg xmlns="http://www.w3.org/2000/svg" viewBox="0 0 147 154" width="147px" height="154px"><defs><style>.a{opacity:0.1;}.b{fill:#fff;}.c{fill:none;stroke:#000;stroke-miterlimit:10;stroke-width:1.5px;isolation:isolate;}.c,.d{opacity:0.4;}</style></defs><title>btn_filter</title><g class="a"><path class="b" d="M145,4V52H4V4H145m2-2H2V54H147V2h0Z"/></g><path class="b" d="M24.8,29.1H18v8.2H15.4V18.9H25.9v2h-8v6.3h6.9v1.9Z"/><path class="b" d="M31.1,37.4H28.5V18.9h2.6V37.4Z"/><path class="b" d="M37.4,35.4h7.2v2H34.8V18.9h2.6V35.4Z"/><path class="b" d="M54.1,20.8H49.4V37.3H46.8V20.8H42.1v-2h12v2Z"/><path class="b" d="M65.8,28.8H58.9v6.6h7.9v2H56.4V18.9H66.8v2H58.9v6h6.9v1.9Z"/><path class="b" d="M71.9,29.4v8H69.3V18.9H75a5.81,5.81,0,0,1,4.1,1.4,4.93,4.93,0,0,1,1.4,3.9,4.09,4.09,0,0,1-.7,2.5,5.19,5.19,0,0,1-1.9,1.7,3.24,3.24,0,0,1,2,1.6,6.09,6.09,0,0,1,.6,2.8v1.6a7.77,7.77,0,0,0,.2,1.6,1.68,1.68,0,0,0,.6,1.1v0.3H78.6a2.26,2.26,0,0,1-.6-1.3,10.82,10.82,0,0,1,0-1.8V32.7a3.9,3.9,0,0,0-.7-2.5,2.32,2.32,0,0,0-1.9-.9H71.9v0.1Zm0-2h3a3.2,3.2,0,0,0,2.3-.8,3.44,3.44,0,0,0,.7-2.4,3.73,3.73,0,0,0-.7-2.5,2.66,2.66,0,0,0-2.2-.9H71.8v6.6h0.1Z"/><polygon class="b" points="115.9 29.4 105.1 18.6 97.1 18.6 115.9 37.4 134.6 18.6 126.6 18.6 115.9 29.4"/><path class="c" d="M1.5,51.8"/><path class="c" d="M144,51.8"/><g class="d"><path d="M143,2V50H2V2H143m2-2H0V52H145V0h0Z"/></g><g class="a"><path class="b" d="M145,104v48H4V104H145m2-2H2v52H147V102h0Z"/></g><path class="b" d="M24.8,129.1H18v8.2H15.4V118.9H25.9v2h-8v6.3h6.9v1.9Z"/><path class="b" d="M31.1,137.4H28.5V118.9h2.6v18.5Z"/><path class="b" d="M37.4,135.4h7.2v2H34.8V118.9h2.6v16.5Z"/><path class="b" d="M54.1,120.8H49.4v16.5H46.8V120.8H42.1v-2h12v2Z"/><path class="b" d="M78.7,128.8H71.8v6.6h7.9v2H69.3V118.9H79.7v2H71.8v6h6.9v1.9Z"/><path class="b" d="M59,129.4v8H56.4V118.9h5.7a5.81,5.81,0,0,1,4.1,1.4,4.93,4.93,0,0,1,1.4,3.9,4.09,4.09,0,0,1-.7,2.5,5.19,5.19,0,0,1-1.9,1.7,3.24,3.24,0,0,1,2,1.6,6.09,6.09,0,0,1,.6,2.8v1.6a7.77,7.77,0,0,0,.2,1.6,1.68,1.68,0,0,0,.6,1.1v0.3H65.7a2.26,2.26,0,0,1-.6-1.3,10.82,10.82,0,0,1,0-1.8v-1.6a3.9,3.9,0,0,0-.7-2.5,2.32,2.32,0,0,0-1.9-.9H59v0.1Zm0-2h3a3.2,3.2,0,0,0,2.3-.8,3.44,3.44,0,0,0,.7-2.4,3.73,3.73,0,0,0-.7-2.5,2.66,2.66,0,0,0-2.2-.9H58.9v6.6H59Z"/><polygon class="b" points="115.9 129.4 105.1 118.6 97.1 118.6 115.9 137.4 134.6 118.6 126.6 118.6 115.9 129.4"/><path class="c" d="M1.5,151.8"/><path class="c" d="M144,151.8"/><g class="d"><path d="M143,102v48H2V102H143m2-2H0v52H145V100h0Z"/></g></svg>
