<svg xmlns="http://www.w3.org/2000/svg" width="64.1" height="1961.2" viewBox="0 0 64.1 1961.2"><path fill="#ddd" d="M32 74C14.4 74 0 88.4 0 106s14.4 32 32 32 32-14.4 32-32-14.4-32-32-32zm0 59c-15 0-27-12-27-27s12-27 27-27 27 12 27 27-12 27-27 27z"/><path fill="#aaa" d="M40.8 112.2c-2-.4-4.8-2.2-4.8-3.2v-2.2c0-.8 1-2.2 1.6-3.6 0-.2.4 0 .6-.4.6-.6.6-1.6.6-2 .2-.6-.6-.8-.6-.8s.6-3.6 0-5.8c-.8-3-4.6-4.6-6.2-4.6-1.6 0-5.4 1.6-6.2 4.6-.6 2.2 0 5.8 0 5.8s-.8 0-.6.8c.2.4.2 1.4.8 2 .2.4.4.2.4.4.4 1.4 1.6 2.8 1.6 3.6v2.2c0 .8-2.8 2.8-4.8 3.2-2.6.4-3.8 2.2-3.2 6.6.4 2.2 6.2 3.2 12 3 5.8 0 11.8-.8 12-3 .6-4.4-.6-6-3.2-6.6z"/><path fill="#F8971D" d="M0 0v64h64V0H0zm48.2 41.9l-6.3 6.3-9.9-9.9-9.9 9.9-6.3-6.3 9.9-9.9-9.9-9.9 6.3-6.3 9.9 9.9 9.9-9.9 6.3 6.3-9.9 9.9 9.9 9.9z"/><path fill="#00457C" d="M0 1920.2V1910h64v10.2H0zm0 20.5v-10.2h64v10.2H0zm0 20.5V1951h64v10.2H0z"/><path fill="#ddd" d="M17.2 209.3v-58.6c0-1.6 1.3-2.7 2.7-2.7h23.8L64 168.3v41c0 1.6-1.3 2.7-2.7 2.7H19.9c-1.6 0-2.7-1.1-2.7-2.7z"/><path fill="#aaa" d="M43.7 148L64 168.3H46.4c-1.6 0-2.7-1.3-2.7-2.7V148z"/><path fill="#F8971D" d="M30.6 197.6c0 .9-.3 1.6-1 2.1-.6.4-1.3.7-2.4.7h-1.4v4.3h-1.4v-9.8H27c1 0 1.8.3 2.4.7.8.5 1.2 1.2 1.2 2zm-2 1.3c.4-.3.6-.7.6-1.3s-.1-1-.6-1.3c-.4-.3-.9-.4-1.4-.4h-1.3v3.4h1.3c.5 0 1-.1 1.4-.4zm10.1-2.8c1 1 1.6 2.1 1.6 3.6 0 1.4-.6 2.7-1.6 3.6s-2.1 1.3-3.7 1.3h-3v-9.8h3c1.4 0 2.7.4 3.7 1.3zm0 3.7c0-1.1-.4-2.1-1.1-2.8-.7-.6-1.6-.9-2.6-.9h-1.6v7.4H35c1.1 0 2-.3 2.6-.9.8-.8 1.1-1.7 1.1-2.8zm8.5-5v1.1h-4.1v3.3h3.8v1.1h-3.8v4.3h-1.4v-9.8h5.5z"/><path fill="#aaa" d="M22.1 241.3l-2.8 2.8 9.9 9.9-9.9 9.9 2.8 2.8 9.9-9.9 9.9 9.9 2.8-2.8-9.9-9.9 9.9-9.9-2.8-2.8-9.9 9.9-9.9-9.9zm-12.7-9.9c-12.5 12.5-12.5 32.8 0 45.3s32.8 12.5 45.3 0 12.5-32.8 0-45.3c-12.6-12.4-32.8-12.4-45.3 0zM51 273.1c-10.5 10.5-27.6 10.5-38.2 0-10.5-10.5-10.5-27.6 0-38.2s27.6-10.5 38.2 0 10.5 27.6 0 38.2z"/><path fill="#666" d="M32 296c-17.7 0-32 14.3-32 32s14.3 32 32 32 32-14.3 32-32-14.3-32-32-32zm0 59c-14.9 0-27-12.1-27-27s12.1-27 27-27 27 12.1 27 27-12.1 27-27 27zm0-14.6l-13.1-8.2-2.9 1.7 16 10 16-10-2.9-1.8-13.1 8.3zm0-6l-13.1-8.2-2.9 1.7 16 10 16-9.9-3-1.9-13 8.3zM16 322l16 10 16-10-16-10-16 10z"/><path fill="#F8971D" d="M32 370c-17.7 0-32 14.3-32 32s14.3 32 32 32 32-14.3 32-32-14.3-32-32-32zm0 59c-14.9 0-27-12.1-27-27s12.1-27 27-27 27 12.1 27 27-12.1 27-27 27zm0-14.6l-13.1-8.2-2.9 1.7 16 10 16-10-2.9-1.8-13.1 8.3zm0-6l-13.1-8.2-2.9 1.7 16 10 16-9.9-3-1.9-13 8.3zM16 396l16 10 16-10-16-10-16 10z"/><path fill="#666" d="M32 444c-17.7 0-32 14.3-32 32s14.3 32 32 32 32-14.3 32-32-14.3-32-32-32zm0 59c-14.9 0-27-12.1-27-27s12.1-27 27-27 27 12.1 27 27-12.1 27-27 27zm2.9-37s-7.3-.1-12.6 3.3L15.7 480s4.7-5.4 9.4-7.2c5.1-1.9 9.8-.8 9.8-.8v6l12-8-12-10v6zm2.8 13.2c-5.1 1.9-10.7.8-10.7.8v-6l-12 8 12 10v-6s8.4.1 13.7-3.3l6.8-10.7s-5.2 5.4-9.8 7.2z"/><path fill="#F8971D" d="M32 518c-17.7 0-32 14.3-32 32s14.3 32 32 32 32-14.3 32-32c0-17.8-14.3-32-32-32zm0 59c-14.9 0-27-12-27-27s12.1-27 27-27 27 12.1 27 27-12.1 27-27 27zm2.9-37s-7.3-.1-12.6 3.3-6.6 10.7-6.6 10.7 4.7-5.4 9.4-7.2c5.1-1.9 9.8-.8 9.8-.8v6l12-8-12-10v6zm2.8 13.2c-5.1 1.9-10.7.8-10.7.8v-6l-12 8 12 10v-6s8.4.1 13.7-3.3l6.8-10.7c0-.1-5.2 5.4-9.8 7.2z"/><path fill="#666" d="M32 592c-17.7 0-32 14.3-32 32s14.3 32 32 32 32-14.3 32-32c0-17.8-14.3-32-32-32zm0 59c-14.9 0-27-12-27-27s12.1-27 27-27 27 12.1 27 27-12.1 27-27 27zm1.2-39.8c-.9 0-1.8.1-2.6.2-.7-.9-1.8-1.7-3.3-2.1-2.3-.7-7.5-2.2-7.5-.5 1.4.9 2.5 4.1 3.9 5.5-2.1 1.7-3.8 4-5.1 6.8 0 0-1.8.6-2.3 1.1s-.5 5.4 0 5.8c.5.5 2.6.9 2.6.9 1.1 2.4 2.7 4.4 4.8 5.8-.1 1.7-.2 4.5.1 4.8.5.5 4.8.5 5.3 0 .2-.2 1-1.2 1.9-2.2.7.1 1.4.1 2.1.1.5 0 1.1 0 1.6-.1.8.9 1.4 1.9 1.6 2.1.5.5 4.9.5 5.3 0 .3-.3.2-2.9.1-4.6 3.7-2.4 6-6.3 6-10.6.3-7-6.3-13-14.5-13zm7.7 22l-1 .6.1 1.2c.1 1.2.1 2.2.1 2.8h-2.3c-.3-.5-.8-1.1-1.3-1.7l-.7-.8-1 .1-1.4.1c-.6 0-1.3 0-1.9-.1l-1-.1-.7.8c-.6.7-1.2 1.4-1.5 1.8-.3 0-.7.1-1.4.1H26c0-.6 0-1.5.1-3l.1-1.1-.9-.6c-1.8-1.2-3.2-2.9-4.1-5l-.4-.9-1-.2c-.5-.1-1-.3-1.4-.4-.1-.9-.1-2.4 0-3.2.3-.1.8-.3 1.2-.5l.8-.3.4-.8c1.2-2.6 2.7-4.7 4.5-6.1l1.7-1.4-1.5-1.6c-.4-.5-1-1.3-1.5-2.2-.1-.1-.2-.3-.2-.4 1.1.2 2.3.6 3.3.9s1.9.9 2.3 1.5l.7.9 1.1-.2c.7-.1 1.5-.2 2.3-.2 7 0 12.8 5 12.8 11.2-.3 3.4-2.2 6.6-5.4 8.8zM37.8 616c-2.4-.7-5 .3-5.1 1-.2.6 2.5-.2 4.8.5 2.4.7 4.6 3.7 4.8 3s-2.1-3.7-4.5-4.5zM26 618.8c-.7 0-1.2.6-1.2 1.3s.6 1.3 1.2 1.3 1.2-.6 1.2-1.3c0-1.1-.6-1.3-1.2-1.3z"/><path fill="#F8971D" d="M32 666c-17.7 0-32 14.3-32 32s14.3 32 32 32 32-14.3 32-32c0-17.8-14.3-32-32-32zm0 59c-14.9 0-27-12-27-27s12.1-27 27-27 27 12.1 27 27-12.1 27-27 27zm1.2-39.8c-.9 0-1.8.1-2.6.2-.7-.9-1.8-1.7-3.3-2.1-2.3-.7-7.5-2.2-7.5-.5 1.4.9 2.5 4.1 3.9 5.5-2.1 1.7-3.8 4-5.1 6.8 0 0-1.8.6-2.3 1.1s-.5 5.4 0 5.8c.5.5 2.6.9 2.6.9 1.1 2.4 2.7 4.4 4.8 5.8-.1 1.7-.2 4.5.1 4.8.5.5 4.8.5 5.3 0 .2-.2 1-1.2 1.9-2.2.7.1 1.4.1 2.1.1.5 0 1.1 0 1.6-.1.8.9 1.4 1.9 1.6 2.1.5.5 4.9.5 5.3 0 .3-.3.2-2.9.1-4.6 3.7-2.4 6-6.3 6-10.6.3-7-6.3-13-14.5-13zm7.7 22l-1 .6.1 1.2c.1 1.2.1 2.2.1 2.8h-2.3c-.3-.5-.8-1.1-1.3-1.7l-.7-.8-1 .1-1.4.1c-.6 0-1.3 0-1.9-.1l-1-.1-.7.8c-.6.7-1.2 1.4-1.5 1.8-.3 0-.7.1-1.4.1H26c0-.6 0-1.5.1-3l.1-1.1-.9-.6c-1.8-1.2-3.2-2.9-4.1-5l-.4-.9-1-.2c-.5-.1-1-.3-1.4-.4-.1-.9-.1-2.4 0-3.2.3-.1.8-.3 1.2-.5l.8-.3.4-.8c1.2-2.6 2.7-4.7 4.5-6.1l1.7-1.4-1.5-1.6c-.4-.5-1-1.3-1.5-2.2-.1-.1-.2-.3-.2-.4 1.1.2 2.3.6 3.3.9s1.9.9 2.3 1.5l.7.9 1.1-.2c.7-.1 1.5-.2 2.3-.2 7 0 12.8 5 12.8 11.2-.3 3.4-2.2 6.6-5.4 8.8zM37.8 690c-2.4-.7-5 .3-5.1 1-.2.6 2.5-.2 4.8.5 2.4.7 4.6 3.7 4.8 3s-2.1-3.7-4.5-4.5zM26 692.8c-.7 0-1.2.6-1.2 1.3s.6 1.3 1.2 1.3 1.2-.6 1.2-1.3c0-1.1-.6-1.3-1.2-1.3z"/><path fill="#fff" d="M32 740c-17.7 0-32 14.3-32 32s14.3 32 32 32 32-14.3 32-32c0-17.8-14.3-32-32-32zm0 59c-14.9 0-27-12-27-27s12.1-27 27-27 27 12.1 27 27-12.1 27-27 27zm8.9-11c.7 0 7.1-4.7 7.1-5.3s-7.2-5.1-7.8-5.1-2.7 2.5-3.3 2.8-4.1.2-8-3.7-5.2-8.4-5.2-9.1 3.3-2.9 3.3-3.4c.1-.5-4.3-8.1-5-8.1s-6.1 6.6-6.1 7.1.5 7.6 9.4 16.5 14.9 8.3 15.6 8.3zM32 814c-17.7 0-32 14.3-32 32s14.3 32 32 32 32-14.3 32-32c0-17.8-14.3-32-32-32zm0 59c-14.9 0-27-12-27-27s12.1-27 27-27 27 12.1 27 27-12.1 27-27 27zm0-37H16v20h32v-20H32zm0 2h11.2L32 846l-11.2-8H32zm-14 .7l6.8 4.6-6.8 7.4v-12zM32 854H20.4l5.7-9.9 5.9 4 5.9-4 5.7 9.9H32zm14-3.3l-6.8-7.4 6.8-4.6v12z"/><path fill="#F8971D" d="M0 888h64v64H0v-64z"/><path fill="#fff" d="M48 914l-16 16-16-16h32z"/><path fill="#ccc" d="M0 962h64v64H0v-64z"/><path fill="#fff" d="M48 988l-16 16-16-16h32z"/><path fill="#ccc" d="M32 1122.8c-17.7 0-32 14.3-32 32s14.3 32 32 32 32-14.3 32-32c0-17.6-14.3-32-32-32zm0 59c-14.9 0-27-12.1-27-27s12.1-27 27-27 27 12.1 27 27-12.1 27-27 27zm-2-29.6l.8 10.6h2.4l.8-10.7v-13.3h-4v13.4zm0 14.6h4v4h-4v-4z"/><path fill="#666" d="M32 1196.8c17.7 0 32 14.4 32 32.1 0 17.6-14.4 31.9-32.1 31.9-17.5 0-31.9-14.4-31.9-32s14.4-31.9 32-32zm-.1 42.7h.6c2.4 0 2.4 0 2.8-2.4.3-2.4 1.5-4.3 3.2-5.9 1.3-1.1 2.5-2.3 3.8-3.4 4.3-3.7 3.9-11.5.7-15.3-3.4-4.1-9.9-5.6-15.7-3.5-5.4 1.9-8.2 6.2-8.6 11.9 0 .5.5 1.3.8 1.4 1.6.1 3.3.1 4.9-.1.4 0 .8-.9 1-1.5.4-1.1.5-2.3 1-3.4 1.1-2.6 3.4-3.9 6.5-3.6 2.5.2 4.5 2 5.1 4.6.7 2.9-.1 5.3-2.2 7.3l-2.4 2.1c-2.7 2.2-4 5-4.4 8.4-.4 3.1-.2 3.4 2.9 3.4zm-.1 4.1h-1.3c-2.2 0-2.4.2-2.4 2.4v2.9c0 1.1.5 1.6 1.5 1.6 1.3.1 2.7 0 4 0s2-.6 1.9-2v-1.3c0-3.6 0-3.6-3.7-3.6z"/><path fill="#00457C" d="M0 1395.8v-44.7h.1c2.1-.4 4.3-.8 6.4-1.1 2-.4 4.1-.7 6.1-1.1 2.4-.4 4.7-.8 7.1-1.3 2.6-.5 5.3-.9 7.9-1.4 2.7-.5 5.3-1 8-1.4.2 0 .4-.1.7-.1v5.6c0 .2 0 .2.3.2h24.3c.5 0 1 0 1.4.2 1.2.5 1.8 1.4 1.8 2.7v40.4c0 .6-.2 1.2-.5 1.7-.6.8-1.5 1.2-2.5 1.2H36.7c-.3 0-.3 0-.3.3v5.6h-.1c-1.1-.2-2.3-.4-3.4-.6-2.4-.4-4.7-.8-7.1-1.3-1.8-.3-3.7-.7-5.5-1-1.9-.3-3.7-.7-5.6-1-2.5-.5-5.1-.9-7.6-1.4-2.5-.6-4.8-1.1-7.1-1.5zm61.4-1.6v-41.4H36.5c-.2 0-.2 0-.2.2v3.3c0 .2 0 .2.2.2H45v5.2h-8.8v1.7c0 .2 0 .2.3.2H45v5.2h-8.5c-.2 0-.2 0-.2.2v1.7c0 .2 0 .2.2.2H45v4.9c0 .3 0 .3-.3.3h-8.3c-.2 0-.2 0-.2.2v1.6c0 .2.1.2.2.2H45v5.2h-8.5c-.2 0-.2 0-.2.2v1.4c0 .2 0 .2.2.2H45v5.2h-8.5c-.2 0-.2 0-.2.2v3.3c0 .2 0 .2.2.2h24.7c0 .2.1.2.2.2zm-44.8-19c.1.4.2.9.4 1.3l3 6.3c.1.1.1.2.3.2h.8c.6 0 1.3.1 1.9.1.4 0 .9.1 1.3.1.3 0 .6 0 .9.1 0-.1-.1-.2-.1-.2-.3-.6-.7-1.2-1-1.8l-4.5-8.1c-.1-.2-.1-.3 0-.5 1.8-3.2 3.6-6.5 5.4-9.7 0-.1 0-.1.1-.2-.3 0-.7 0-1 .1-.8.1-1.6.1-2.4.2-.4 0-.8.1-1.2.1-.2 0-.3.1-.3.2-.6 1.3-1.3 2.6-1.9 4-.3.7-.7 1.4-1 2.1-.2.4-.3.9-.5 1.4-.1-.4-.2-.8-.4-1.3-.5-1.2-1.1-2.5-1.6-3.7l-.9-2.1c0-.1-.1-.2-.2-.1-.2 0-.4 0-.6.1-.9.1-1.9.1-2.8.2-.3 0-.6 0-.9.1 0 .1.1.1.1.2.3.5.6 1.1.9 1.6 1.2 2.4 2.5 4.8 3.7 7.2v.2c-.7 1.2-1.4 2.4-2 3.6-1 1.7-2 3.5-2.9 5.2 0 .1-.1.1-.1.2.4 0 .8.1 1.1.1.4 0 .8 0 1.2.1.6 0 1.2.1 1.8.1.2 0 .2 0 .3-.2.7-1.4 1.3-2.7 2-4.1.4-1 .9-2 1.1-3.1zm30.7-18.8h10v5.2h-9.8c-.2 0-.2 0-.2-.2v-5zm10 28.8v5.2h-9.8c-.2 0-.2 0-.2-.2v-4.8c0-.2 0-.2.2-.2h9.8zm-10-16.3v-5.2h10v5.2h-10zm10 7.3h-10v-5.2h10v5.2zm0 2v5.2h-10v-5c0-.2 0-.2.2-.2h9.8zm-.5-83.1c1 .1 1.8.1 2.6.2 2.9.4 4.6 2.3 4.6 5.2v17.3c0 4-2.5 6.4-6.5 6.4h-4v10.4H10.6v-10.4H6.8c-4.4 0-6.7-2.4-6.8-6.8v-16.5c0-3.6 1.8-5.5 5.4-5.7.5 0 1.1-.1 1.9-.1 0-1.5-.2-3 .1-4.4.3-1.3 1-2.7 1.9-3.5.9-.8 1.2-1.5 1.2-2.5V1271c.9 0 1.5-.1 2.2-.1h25.7c1 0 2.2.5 3 1.2 3.5 3.3 6.9 6.7 10.4 10.1.4.4 1.1.8 1.2 1.3.8 3.7 5.3 6.1 3.7 10.7-.1.2 0 .5.1.9zm-7.5 19.5H14.8v16h34.5v-16zM37 1286.7v-11.5H14.7v20h34.4v-8.4c-3.9-.1-7.8-.1-12.1-.1zm-26.4 23.8h42.9v8.7c1.2 0 2.3-.1 3.3 0 1.7.1 2.3-.6 2.2-2.3-.1-2.6 0-5.3 0-7.9v-4.6H5.1c0 4.5-.1 8.9.1 13.3 0 .5.9 1.2 1.5 1.4.6.2 1.3 0 2 .1 1.5.2 2-.5 1.9-2-.1-2.1 0-4.3 0-6.7zm29.5-35v7.9h7.3c-2.2-2.4-4.7-5.1-7.3-7.9z"/><path fill="#F8971D" d="M40.7 1505.3c-1-1.6-1-4.1 0-5.7l16.8-25.2-16.8-25.2c-1-1.6-1-4.1 0-5.7s2.7-1.6 3.8 0l18.7 28c1 1.6 1 4.1 0 5.7l-18.7 28c-.5.8-1.2 1.2-1.9 1.2s-1.4-.3-1.9-1.1z"/><path fill="#ccc" d="M32 1042.5c-17.7 0-32 14.3-32 32s14.3 32 32 32 32-14.3 32-32-14.3-32-32-32zm0 59c-14.9 0-27-12.1-27-27s12.1-27 27-27 27 12.1 27 27-12.1 27-27 27zm8-43H20v32h24v-27.4l-4-4.6zm-18 30v-28h16v4h4v24H22zm2-12h16v2H24v-2zm0-4h16v2H24v-2zm0-6h8v2h-8v-2zm0-4h4v2h-4v-2zm0 18h16v2H24v-2zm0 4h16v2H24v-2zm-13.9 537.1c-5.6 0-10.1 4.5-10.1 10.1v53.9c0 5.6 4.5 10.1 10.1 10.1H64v-74.1H10.1zm47.2 67.4H10.1c-1.9 0-3.4-1.5-3.4-3.4s1.5-3.4 3.4-3.4h47.2v6.8zm0-13.5H10.1c-1.2 0-2.3.2-3.4.6v-44.4c0-1.9 1.5-3.4 3.4-3.4h47.2v47.2zM6.4 1602v-41c-3.7 1.3-6.4 4.9-6.4 9v32c0 5.3 4.3 9.6 9.6 9.6h32c4.2 0 7.7-2.7 9-6.4h-41c-1.8 0-3.2-1.4-3.2-3.2zm48-54.4h-32c-5.3 0-9.6 4.3-9.6 9.6v32c0 5.3 4.3 9.6 9.6 9.6h32c5.3 0 9.6-4.3 9.6-9.6v-32c0-5.3-4.3-9.6-9.6-9.6zm3.2 41.6c0 1.8-1.4 3.2-3.2 3.2h-32c-1.8 0-3.2-1.4-3.2-3.2v-32c0-1.8 1.4-3.2 3.2-3.2h32c1.8 0 3.2 1.4 3.2 3.2v32zm-12.3 129.4v-4.8c0-4.4-3.6-8-8-8H8c-4.4 0-8 3.6-8 8v21.3c0 4.4 3.6 8 8 8h29.3c4.4 0 8-3.6 8-8v-4.8l18.7 10.2v-32l-18.7 10.1zM40 1735c0 1.5-1.2 2.7-2.7 2.7H8c-1.5 0-2.7-1.2-2.7-2.7v-21.3c0-1.5 1.2-2.7 2.7-2.7h29.3c1.5 0 2.7 1.2 2.7 2.7v21.3zm18.7-3.6l-12.9-7 12.9-7v14z"/><g fill="#333"><path d="M0 1806.4v46.4h64v-46.5l-64 .1zm5.8 11.6h5.8v5.7H5.8v-5.7zm17.4 17.5h-5.7v-5.9h5.7v5.9zm5.8-5.9h5.9v5.9H29v-5.9zm-5.8 11.7v5.6h-5.7v-5.6h5.7zm5.8 0h5.9v5.6H29v-5.6zm11.7 0h5.7v5.6h-5.7v-5.6zm0-5.8v-5.9h5.7v5.9h-5.7zm0-11.8v-5.7h5.7v5.7h-5.7zm-5.8 0H29v-5.7h5.9v5.7zm-11.7 0h-5.7v-5.7h5.7v5.7zm-17.4 5.9h5.8v5.9H5.8v-5.9zm0 11.7h5.8v5.6H5.8v-5.6zm52.4 5.6h-5.9v-5.6h5.9v5.6zm0-11.4h-5.9v-5.9h5.9v5.9zm0-11.8h-5.9v-5.7h5.9v5.7zM52.3 1789v-5.9h-5.8v5.9h-29v-5.9h-5.9v5.9H0v11.6h64V1789z"/></g></svg>