<?xml version="1.0" encoding="utf-8"?>
<!-- Generator: Adobe Illustrator 19.2.0, SVG Export Plug-In . SVG Version: 6.00 Build 0)  -->
<svg version="1.1" id="Layer_1" xmlns="http://www.w3.org/2000/svg" xmlns:xlink="http://www.w3.org/1999/xlink" x="0px" y="0px"
	 width="64.15px" height="2963.89px" viewBox="0 0 64.15 2963.89" style="enable-background:new 0 0 64.15 2963.89;" xml:space="preserve">
<style type="text/css">
	.st0{fill:#DDDDDD;}
	.st1{fill:#AAAAAA;}
	.st2{fill:#CD5806;}
	.st3{fill:#003E51;}
	.st4{fill:#666666;}
	.st5{fill:#A99A6F;}
	.st6{fill:#FFFFFF;}
	.st7{fill:#BBBBBB;}
	.st8{fill:#333333;}
	.st9{fill:#A8986F;}
	.st10{clip-path:url(#SVGID_2_);fill:#A8986F;}
	.st11{clip-path:url(#SVGID_4_);fill:#666666;}
</style>
<g>
	<path class="st0" d="M32,74C14.4,74,0,88.4,0,106s14.4,32,32,32c17.6,0,32-14.4,32-32S49.6,74,32,74z M32,133c-15,0-27-12-27-27
		s12-27,27-27s27,12,27,27S47,133,32,133z"/>
	<path class="st1" d="M40.8,112.2c-2-0.4-4.8-2.2-4.8-3.2v-2.2c0-0.8,1-2.2,1.6-3.6c0-0.2,0.4,0,0.6-0.4c0.6-0.6,0.6-1.6,0.6-2
		c0.2-0.6-0.6-0.8-0.6-0.8s0.6-3.6,0-5.8c-0.8-3-4.6-4.6-6.2-4.6s-5.4,1.6-6.2,4.6c-0.6,2.2,0,5.8,0,5.8s-0.8,0-0.6,0.8
		c0.2,0.4,0.2,1.4,0.8,2c0.2,0.4,0.4,0.2,0.4,0.4c0.4,1.4,1.6,2.8,1.6,3.6v2.2c0,0.8-2.8,2.8-4.8,3.2c-2.6,0.4-3.8,2.2-3.2,6.6
		c0.4,2.2,6.2,3.2,12,3c5.8,0,11.8-0.8,12-3C44.6,114.4,43.4,112.8,40.8,112.2z"/>
	<path class="st2" d="M0,0v64h64V0H0z M48.2,41.9l-6.3,6.3L32,38.3l-9.9,9.9l-6.3-6.3l9.9-9.9l-9.9-9.9l6.3-6.3l9.9,9.9l9.9-9.9
		l6.3,6.3L38.3,32L48.2,41.9z"/>
	<path class="st3" d="M0,2158.2V2148h64v10.2H0z M0,2178.7v-10.2h64v10.2H0z M0,2199.2V2189h64v10.2H0z"/>
	<path class="st0" d="M17.2,209.3v-58.6c0-1.6,1.3-2.7,2.7-2.7h23.8L64,168.3v41c0,1.6-1.3,2.7-2.7,2.7H19.9
		C18.3,212,17.2,210.9,17.2,209.3z"/>
	<path class="st1" d="M43.7,148L64,168.3H46.4c-1.6,0-2.7-1.3-2.7-2.7L43.7,148L43.7,148z"/>
	<path class="st2" d="M30.6,197.6c0,0.9-0.3,1.6-1,2.1c-0.6,0.4-1.3,0.7-2.4,0.7h-1.4v4.3h-1.4v-9.8H27c1,0,1.8,0.3,2.4,0.7
		C30.2,196.1,30.6,196.8,30.6,197.6z M28.6,198.9c0.4-0.3,0.6-0.7,0.6-1.3s-0.1-1-0.6-1.3c-0.4-0.3-0.9-0.4-1.4-0.4h-1.3v3.4h1.3
		C27.7,199.3,28.2,199.2,28.6,198.9z M38.7,196.1c1,1,1.6,2.1,1.6,3.6c0,1.4-0.6,2.7-1.6,3.6c-1,0.9-2.1,1.3-3.7,1.3h-3v-9.8h3
		C36.4,194.8,37.7,195.2,38.7,196.1L38.7,196.1z M38.7,199.8c0-1.1-0.4-2.1-1.1-2.8c-0.7-0.6-1.6-0.9-2.6-0.9h-1.6v7.4H35
		c1.1,0,2-0.3,2.6-0.9C38.4,201.8,38.7,200.9,38.7,199.8z M47.2,194.8v1.1h-4.1v3.3h3.8v1.1h-3.8v4.3h-1.4v-9.8L47.2,194.8
		L47.2,194.8z"/>
	<path class="st1" d="M22.1,241.3l-2.8,2.8l9.9,9.9l-9.9,9.9l2.8,2.8l9.9-9.9l9.9,9.9l2.8-2.8l-9.9-9.9l9.9-9.9l-2.8-2.8l-9.9,9.9
		L22.1,241.3z M9.4,231.4c-12.5,12.5-12.5,32.8,0,45.3s32.8,12.5,45.3,0s12.5-32.8,0-45.3C42.1,219,21.9,219,9.4,231.4z M51,273.1
		c-10.5,10.5-27.6,10.5-38.2,0c-10.5-10.5-10.5-27.6,0-38.2c10.5-10.6,27.6-10.5,38.2,0S61.5,262.5,51,273.1z"/>
	<path class="st4" d="M32,296c-17.7,0-32,14.3-32,32s14.3,32,32,32s32-14.3,32-32S49.7,296,32,296z M32,355c-14.9,0-27-12.1-27-27
		s12.1-27,27-27c14.9,0,27,12.1,27,27S46.9,355,32,355z M32,340.4l-13.1-8.2l-2.9,1.7l16,10l16-10l-2.9-1.8L32,340.4z M32,334.4
		l-13.1-8.2l-2.9,1.7l16,10l16-9.9l-3-1.9L32,334.4z M16,322l16,10l16-10l-16-10L16,322z"/>
	<path class="st5" d="M32,370c-17.7,0-32,14.3-32,32s14.3,32,32,32s32-14.3,32-32C64,384.3,49.7,370,32,370z M32,429
		c-14.9,0-27-12.1-27-27s12.1-27,27-27c14.9,0,27,12.1,27,27S46.9,429,32,429z M32,414.4l-13.1-8.2l-2.9,1.7l16,10l16-10l-2.9-1.8
		L32,414.4z M32,408.4l-13.1-8.2l-2.9,1.7l16,10l16-9.9l-3-1.9L32,408.4z M16,396l16,10l16-10l-16-10L16,396z"/>
	<path class="st4" d="M32,444c-17.7,0-32,14.3-32,32s14.3,32,32,32s32-14.3,32-32C64,458.3,49.7,444,32,444z M32,503
		c-14.9,0-27-12.1-27-27s12.1-27,27-27c14.9,0,27,12.1,27,27S46.9,503,32,503z M34.9,466c0,0-7.3-0.1-12.6,3.3L15.7,480
		c0,0,4.7-5.4,9.4-7.2c5.1-1.9,9.8-0.8,9.8-0.8v6l12-8l-12-10C34.9,460,34.9,466,34.9,466z M37.7,479.2C32.6,481.1,27,480,27,480v-6
		l-12,8l12,10v-6c0,0,8.4,0.1,13.7-3.3l6.8-10.7C47.5,472,42.3,477.4,37.7,479.2z"/>
	<path class="st5" d="M32,518c-17.7,0-32,14.3-32,32s14.3,32,32,32s32-14.3,32-32C64,532.2,49.7,518,32,518z M32,577
		c-14.9,0-27-12-27-27s12.1-27,27-27c14.9,0,27,12.1,27,27S46.9,577,32,577z M34.9,540c0,0-7.3-0.1-12.6,3.3
		c-5.3,3.4-6.6,10.7-6.6,10.7s4.7-5.4,9.4-7.2c5.1-1.9,9.8-0.8,9.8-0.8v6l12-8l-12-10C34.9,534,34.9,540,34.9,540z M37.7,553.2
		C32.6,555.1,27,554,27,554v-6l-12,8l12,10v-6c0,0,8.4,0.1,13.7-3.3l6.8-10.7C47.5,545.9,42.3,551.4,37.7,553.2z"/>
	<path class="st4" d="M32,592c-17.7,0-32,14.3-32,32s14.3,32,32,32s32-14.3,32-32C64,606.2,49.7,592,32,592z M32,651
		c-14.9,0-27-12-27-27s12.1-27,27-27c14.9,0,27,12.1,27,27S46.9,651,32,651z M33.2,611.2c-0.9,0-1.8,0.1-2.6,0.2
		c-0.7-0.9-1.8-1.7-3.3-2.1c-2.3-0.7-7.5-2.2-7.5-0.5c1.4,0.9,2.5,4.1,3.9,5.5c-2.1,1.7-3.8,4-5.1,6.8c0,0-1.8,0.6-2.3,1.1
		s-0.5,5.4,0,5.8c0.5,0.5,2.6,0.9,2.6,0.9c1.1,2.4,2.7,4.4,4.8,5.8c-0.1,1.7-0.2,4.5,0.1,4.8c0.5,0.5,4.8,0.5,5.3,0
		c0.2-0.2,1-1.2,1.9-2.2c0.7,0.1,1.4,0.1,2.1,0.1c0.5,0,1.1,0,1.6-0.1c0.8,0.9,1.4,1.9,1.6,2.1c0.5,0.5,4.9,0.5,5.3,0
		c0.3-0.3,0.2-2.9,0.1-4.6c3.7-2.4,6-6.3,6-10.6C48,617.2,41.4,611.2,33.2,611.2z M40.9,633.2l-1,0.6L40,635
		c0.1,1.2,0.1,2.2,0.1,2.8h-2.3c-0.3-0.5-0.8-1.1-1.3-1.7l-0.7-0.8l-1,0.1l-1.4,0.1c-0.6,0-1.3,0-1.9-0.1l-1-0.1l-0.7,0.8
		c-0.6,0.7-1.2,1.4-1.5,1.8c-0.3,0-0.7,0.1-1.4,0.1H26c0-0.6,0-1.5,0.1-3l0.1-1.1l-0.9-0.6c-1.8-1.2-3.2-2.9-4.1-5l-0.4-0.9l-1-0.2
		c-0.5-0.1-1-0.3-1.4-0.4c-0.1-0.9-0.1-2.4,0-3.2c0.3-0.1,0.8-0.3,1.2-0.5l0.8-0.3l0.4-0.8c1.2-2.6,2.7-4.7,4.5-6.1l1.7-1.4
		l-1.5-1.6c-0.4-0.5-1-1.3-1.5-2.2c-0.1-0.1-0.2-0.3-0.2-0.4c1.1,0.2,2.3,0.6,3.3,0.9s1.9,0.9,2.3,1.5l0.7,0.9l1.1-0.2
		c0.7-0.1,1.5-0.2,2.3-0.2c7,0,12.8,5,12.8,11.2C46,627.8,44.1,631,40.9,633.2L40.9,633.2z M37.8,616c-2.4-0.7-5,0.3-5.1,1
		c-0.2,0.6,2.5-0.2,4.8,0.5c2.4,0.7,4.6,3.7,4.8,3C42.5,619.8,40.2,616.8,37.8,616z M26,618.8c-0.7,0-1.2,0.6-1.2,1.3
		s0.6,1.3,1.2,1.3s1.2-0.6,1.2-1.3C27.2,619,26.6,618.8,26,618.8z"/>
	<path class="st5" d="M32,666c-17.7,0-32,14.3-32,32c0,17.7,14.3,32,32,32s32-14.3,32-32C64,680.2,49.7,666,32,666z M32,725
		c-14.9,0-27-12-27-27s12.1-27,27-27c14.9,0,27,12.1,27,27C59,712.9,46.9,725,32,725z M33.2,685.2c-0.9,0-1.8,0.1-2.6,0.2
		c-0.7-0.9-1.8-1.7-3.3-2.1c-2.3-0.7-7.5-2.2-7.5-0.5c1.4,0.9,2.5,4.1,3.9,5.5c-2.1,1.7-3.8,4-5.1,6.8c0,0-1.8,0.6-2.3,1.1
		s-0.5,5.4,0,5.8c0.5,0.5,2.6,0.9,2.6,0.9c1.1,2.4,2.7,4.4,4.8,5.8c-0.1,1.7-0.2,4.5,0.1,4.8c0.5,0.5,4.8,0.5,5.3,0
		c0.2-0.2,1-1.2,1.9-2.2c0.7,0.1,1.4,0.1,2.1,0.1c0.5,0,1.1,0,1.6-0.1c0.8,0.9,1.4,1.9,1.6,2.1c0.5,0.5,4.9,0.5,5.3,0
		c0.3-0.3,0.2-2.9,0.1-4.6c3.7-2.4,6-6.3,6-10.6C48,691.2,41.4,685.2,33.2,685.2z M40.9,707.2l-1,0.6L40,709
		c0.1,1.2,0.1,2.2,0.1,2.8h-2.3c-0.3-0.5-0.8-1.1-1.3-1.7l-0.7-0.8l-1,0.1l-1.4,0.1c-0.6,0-1.3,0-1.9-0.1l-1-0.1l-0.7,0.8
		c-0.6,0.7-1.2,1.4-1.5,1.8c-0.3,0-0.7,0.1-1.4,0.1H26c0-0.6,0-1.5,0.1-3l0.1-1.1l-0.9-0.6c-1.8-1.2-3.2-2.9-4.1-5l-0.4-0.9l-1-0.2
		c-0.5-0.1-1-0.3-1.4-0.4c-0.1-0.9-0.1-2.4,0-3.2c0.3-0.1,0.8-0.3,1.2-0.5l0.8-0.3l0.4-0.8c1.2-2.6,2.7-4.7,4.5-6.1l1.7-1.4
		l-1.5-1.6c-0.4-0.5-1-1.3-1.5-2.2c-0.1-0.1-0.2-0.3-0.2-0.4c1.1,0.2,2.3,0.6,3.3,0.9c1,0.3,1.9,0.9,2.3,1.5l0.7,0.9l1.1-0.2
		c0.7-0.1,1.5-0.2,2.3-0.2c7,0,12.8,5,12.8,11.2C46,701.8,44.1,705,40.9,707.2L40.9,707.2z M37.8,690c-2.4-0.7-5,0.3-5.1,1
		c-0.2,0.6,2.5-0.2,4.8,0.5c2.4,0.7,4.6,3.7,4.8,3C42.5,693.8,40.2,690.8,37.8,690z M26,692.8c-0.7,0-1.2,0.6-1.2,1.3
		c0,0.7,0.6,1.3,1.2,1.3s1.2-0.6,1.2-1.3C27.2,693,26.6,692.8,26,692.8z"/>
	<path class="st6" d="M32,740c-17.7,0-32,14.3-32,32c0,17.7,14.3,32,32,32s32-14.3,32-32C64,754.2,49.7,740,32,740z M32,799
		c-14.9,0-27-12-27-27s12.1-27,27-27c14.9,0,27,12.1,27,27C59,786.9,46.9,799,32,799z M40.9,788c0.7,0,7.1-4.7,7.1-5.3
		s-7.2-5.1-7.8-5.1c-0.6,0-2.7,2.5-3.3,2.8c-0.6,0.3-4.1,0.2-8-3.7c-3.9-3.9-5.2-8.4-5.2-9.1c0-0.7,3.3-2.9,3.3-3.4
		c0.1-0.5-4.3-8.1-5-8.1s-6.1,6.6-6.1,7.1s0.5,7.6,9.4,16.5C34.2,788.6,40.2,788,40.9,788z M32,814c-17.7,0-32,14.3-32,32
		c0,17.7,14.3,32,32,32s32-14.3,32-32C64,828.2,49.7,814,32,814z M32,873c-14.9,0-27-12-27-27s12.1-27,27-27c14.9,0,27,12.1,27,27
		C59,860.9,46.9,873,32,873z M32,836H16v20h32v-20H32L32,836z M32,838h11.2L32,846l-11.2-8H32L32,838z M18,838.7l6.8,4.6l-6.8,7.4
		V838.7z M32,854H20.4l5.7-9.9l5.9,4l5.9-4l5.7,9.9H32z M46,850.7l-6.8-7.4l6.8-4.6V850.7z"/>
	<path class="st2" d="M0,888h64v64H0V888z"/>
	<path class="st6" d="M48,914l-16,16l-16-16H48z"/>
	<path class="st7" d="M0,962h64v64H0V962z"/>
	<path class="st6" d="M48,988l-16,16l-16-16H48z"/>
	<path class="st7" d="M32,1122.8c-17.7,0-32,14.3-32,32c0,17.7,14.3,32,32,32s32-14.3,32-32C64,1137.2,49.7,1122.8,32,1122.8z
		 M32,1181.8c-14.9,0-27-12.1-27-27s12.1-27,27-27c14.9,0,27,12.1,27,27S46.9,1181.8,32,1181.8z M30,1152.2l0.8,10.6h2.4l0.8-10.7
		v-13.3h-4V1152.2z M30,1166.8h4v4h-4V1166.8z"/>
	<path class="st4" d="M32,1196.8c17.7,0,32,14.4,32,32.1c0,17.6-14.4,31.9-32.1,31.9c-17.5,0-31.9-14.4-31.9-32
		S14.4,1196.9,32,1196.8z M31.9,1239.5h0.6c2.4,0,2.4,0,2.8-2.4c0.3-2.4,1.5-4.3,3.2-5.9c1.3-1.1,2.5-2.3,3.8-3.4
		c4.3-3.7,3.9-11.5,0.7-15.3c-3.4-4.1-9.9-5.6-15.7-3.5c-5.4,1.9-8.2,6.2-8.6,11.9c0,0.5,0.5,1.3,0.8,1.4c1.6,0.1,3.3,0.1,4.9-0.1
		c0.4,0,0.8-0.9,1-1.5c0.4-1.1,0.5-2.3,1-3.4c1.1-2.6,3.4-3.9,6.5-3.6c2.5,0.2,4.5,2,5.1,4.6c0.7,2.9-0.1,5.3-2.2,7.3l-2.4,2.1
		c-2.7,2.2-4,5-4.4,8.4C28.6,1239.2,28.8,1239.5,31.9,1239.5z M31.8,1243.6h-1.3c-2.2,0-2.4,0.2-2.4,2.4v2.9c0,1.1,0.5,1.6,1.5,1.6
		c1.3,0.1,2.7,0,4,0s2-0.6,1.9-2v-1.3C35.5,1243.6,35.5,1243.6,31.8,1243.6z"/>
	<path class="st7" d="M0,1395.8v-44.7h0.1c2.1-0.4,4.3-0.8,6.4-1.1c2-0.4,4.1-0.7,6.1-1.1c2.4-0.4,4.7-0.8,7.1-1.3
		c2.6-0.5,5.3-0.9,7.9-1.4c2.7-0.5,5.3-1,8-1.4c0.2,0,0.4-0.1,0.7-0.1v5.6c0,0.2,0,0.2,0.3,0.2h24.3c0.5,0,1,0,1.4,0.2
		c1.2,0.5,1.8,1.4,1.8,2.7v40.4c0,0.6-0.2,1.2-0.5,1.7c-0.6,0.8-1.5,1.2-2.5,1.2H36.7c-0.3,0-0.3,0-0.3,0.3v5.6h-0.1
		c-1.1-0.2-2.3-0.4-3.4-0.6c-2.4-0.4-4.7-0.8-7.1-1.3c-1.8-0.3-3.7-0.7-5.5-1c-1.9-0.3-3.7-0.7-5.6-1c-2.5-0.5-5.1-0.9-7.6-1.4
		C4.6,1396.7,2.3,1396.2,0,1395.8L0,1395.8z M61.4,1394.2v-41.4H36.5c-0.2,0-0.2,0-0.2,0.2v3.3c0,0.2,0,0.2,0.2,0.2H45v5.2h-8.8v1.7
		c0,0.2,0,0.2,0.3,0.2H45v5.2h-8.5c-0.2,0-0.2,0-0.2,0.2v1.7c0,0.2,0,0.2,0.2,0.2H45v4.9c0,0.3,0,0.3-0.3,0.3h-8.3
		c-0.2,0-0.2,0-0.2,0.2v1.6c0,0.2,0.1,0.2,0.2,0.2H45v5.2h-8.5c-0.2,0-0.2,0-0.2,0.2v1.4c0,0.2,0,0.2,0.2,0.2H45v5.2h-8.5
		c-0.2,0-0.2,0-0.2,0.2v3.3c0,0.2,0,0.2,0.2,0.2h24.7C61.2,1394.2,61.3,1394.2,61.4,1394.2L61.4,1394.2z M16.6,1375.2
		c0.1,0.4,0.2,0.9,0.4,1.3l3,6.3c0.1,0.1,0.1,0.2,0.3,0.2h0.8c0.6,0,1.3,0.1,1.9,0.1c0.4,0,0.9,0.1,1.3,0.1c0.3,0,0.6,0,0.9,0.1
		c0-0.1-0.1-0.2-0.1-0.2c-0.3-0.6-0.7-1.2-1-1.8l-4.5-8.1c-0.1-0.2-0.1-0.3,0-0.5c1.8-3.2,3.6-6.5,5.4-9.7c0-0.1,0-0.1,0.1-0.2
		c-0.3,0-0.7,0-1,0.1c-0.8,0.1-1.6,0.1-2.4,0.2c-0.4,0-0.8,0.1-1.2,0.1c-0.2,0-0.3,0.1-0.3,0.2c-0.6,1.3-1.3,2.6-1.9,4
		c-0.3,0.7-0.7,1.4-1,2.1c-0.2,0.4-0.3,0.9-0.5,1.4c-0.1-0.4-0.2-0.8-0.4-1.3c-0.5-1.2-1.1-2.5-1.6-3.7l-0.9-2.1
		c0-0.1-0.1-0.2-0.2-0.1c-0.2,0-0.4,0-0.6,0.1c-0.9,0.1-1.9,0.1-2.8,0.2c-0.3,0-0.6,0-0.9,0.1c0,0.1,0.1,0.1,0.1,0.2
		c0.3,0.5,0.6,1.1,0.9,1.6c1.2,2.4,2.5,4.8,3.7,7.2v0.2c-0.7,1.2-1.4,2.4-2,3.6c-1,1.7-2,3.5-2.9,5.2c0,0.1-0.1,0.1-0.1,0.2
		c0.4,0,0.8,0.1,1.1,0.1c0.4,0,0.8,0,1.2,0.1c0.6,0,1.2,0.1,1.8,0.1c0.2,0,0.2,0,0.3-0.2c0.7-1.4,1.3-2.7,2-4.1
		C15.9,1377.3,16.4,1376.3,16.6,1375.2L16.6,1375.2z M47.3,1356.4h10v5.2h-9.8c-0.2,0-0.2,0-0.2-0.2V1356.4z M57.3,1385.2v5.2h-9.8
		c-0.2,0-0.2,0-0.2-0.2v-4.8c0-0.2,0-0.2,0.2-0.2H57.3z M47.3,1368.9v-5.2h10v5.2H47.3z M57.3,1376.2h-10v-5.2h10V1376.2z
		 M57.3,1378.2v5.2h-10v-5c0-0.2,0-0.2,0.2-0.2H57.3z M56.8,1295.1c1,0.1,1.8,0.1,2.6,0.2c2.9,0.4,4.6,2.3,4.6,5.2v17.3
		c0,4-2.5,6.4-6.5,6.4h-4v10.4H10.6v-10.4H6.8c-4.4,0-6.7-2.4-6.8-6.8v-16.5c0-3.6,1.8-5.5,5.4-5.7c0.5,0,1.1-0.1,1.9-0.1
		c0-1.5-0.2-3,0.1-4.4c0.3-1.3,1-2.7,1.9-3.5c0.9-0.8,1.2-1.5,1.2-2.5V1271c0.9,0,1.5-0.1,2.2-0.1h25.7c1,0,2.2,0.5,3,1.2
		c3.5,3.3,6.9,6.7,10.4,10.1c0.4,0.4,1.1,0.8,1.2,1.3c0.8,3.7,5.3,6.1,3.7,10.7C56.6,1294.4,56.7,1294.7,56.8,1295.1L56.8,1295.1z
		 M49.3,1314.6H14.8v16h34.5V1314.6L49.3,1314.6z M37,1286.7v-11.5H14.7v20h34.4v-8.4C45.2,1286.7,41.3,1286.7,37,1286.7z
		 M10.6,1310.5h42.9v8.7c1.2,0,2.3-0.1,3.3,0c1.7,0.1,2.3-0.6,2.2-2.3c-0.1-2.6,0-5.3,0-7.9v-4.6H5.1c0,4.5-0.1,8.9,0.1,13.3
		c0,0.5,0.9,1.2,1.5,1.4c0.6,0.2,1.3,0,2,0.1c1.5,0.2,2-0.5,1.9-2C10.5,1315.1,10.6,1312.9,10.6,1310.5z M40.1,1275.5v7.9h7.3
		C45.2,1281,42.7,1278.3,40.1,1275.5z"/>
	<path class="st2" d="M40.7,1505.3c-1-1.6-1-4.1,0-5.7l16.8-25.2l-16.8-25.2c-1-1.6-1-4.1,0-5.7c1-1.6,2.7-1.6,3.8,0l18.7,28
		c1,1.6,1,4.1,0,5.7l-18.7,28c-0.5,0.8-1.2,1.2-1.9,1.2C41.9,1506.4,41.2,1506.1,40.7,1505.3L40.7,1505.3z"/>
	<path class="st7" d="M32,1042.5c-17.7,0-32,14.3-32,32c0,17.7,14.3,32,32,32s32-14.3,32-32C64,1056.8,49.7,1042.5,32,1042.5z
		 M32,1101.5c-14.9,0-27-12.1-27-27s12.1-27,27-27c14.9,0,27,12.1,27,27S46.9,1101.5,32,1101.5z M40,1058.5H20v32h24v-27.4
		L40,1058.5z M22,1088.5v-28h16v4h4v24H22z M24,1076.5h16v2H24V1076.5z M24,1072.5h16v2H24V1072.5z M24,1066.5h8v2h-8V1066.5z
		 M24,1062.5h4v2h-4V1062.5z M24,1080.5h16v2H24V1080.5z M24,1084.5h16v2H24V1084.5z M10.1,1621.6c-5.6,0-10.1,4.5-10.1,10.1v53.9
		c0,5.6,4.5,10.1,10.1,10.1H64v-74.1L10.1,1621.6L10.1,1621.6z M57.3,1689H10.1c-1.9,0-3.4-1.5-3.4-3.4s1.5-3.4,3.4-3.4h47.2V1689z
		 M57.3,1675.5H10.1c-1.2,0-2.3,0.2-3.4,0.6v-44.4c0-1.9,1.5-3.4,3.4-3.4h47.2V1675.5L57.3,1675.5z M6.4,1602v-41
		c-3.7,1.3-6.4,4.9-6.4,9v32c0,5.3,4.3,9.6,9.6,9.6h32c4.2,0,7.7-2.7,9-6.4h-41C7.8,1605.2,6.4,1603.8,6.4,1602z M54.4,1547.6h-32
		c-5.3,0-9.6,4.3-9.6,9.6v32c0,5.3,4.3,9.6,9.6,9.6h32c5.3,0,9.6-4.3,9.6-9.6v-32C64,1551.9,59.7,1547.6,54.4,1547.6z M57.6,1589.2
		c0,1.8-1.4,3.2-3.2,3.2h-32c-1.8,0-3.2-1.4-3.2-3.2v-32c0-1.8,1.4-3.2,3.2-3.2h32c1.8,0,3.2,1.4,3.2,3.2L57.6,1589.2L57.6,1589.2z
		 M45.3,1718.6v-4.8c0-4.4-3.6-8-8-8H8c-4.4,0-8,3.6-8,8v21.3c0,4.4,3.6,8,8,8h29.3c4.4,0,8-3.6,8-8v-4.8l18.7,10.2v-32L45.3,1718.6
		L45.3,1718.6z M40,1735c0,1.5-1.2,2.7-2.7,2.7H8c-1.5,0-2.7-1.2-2.7-2.7v-21.3c0-1.5,1.2-2.7,2.7-2.7h29.3c1.5,0,2.7,1.2,2.7,2.7
		V1735z M58.7,1731.4l-12.9-7l12.9-7V1731.4z"/>
	<g>
		<path class="st8" d="M0,1806.4v46.4h64v-46.5L0,1806.4z M5.8,1818h5.8v5.7H5.8V1818z M23.2,1835.5h-5.7v-5.9h5.7V1835.5z
			 M29,1829.6h5.9v5.9H29V1829.6z M23.2,1841.3v5.6h-5.7v-5.6H23.2z M29,1841.3h5.9v5.6H29V1841.3z M40.7,1841.3h5.7v5.6h-5.7
			V1841.3z M40.7,1835.5v-5.9h5.7v5.9H40.7z M40.7,1823.7v-5.7h5.7v5.7H40.7z M34.9,1823.7H29v-5.7h5.9V1823.7z M23.2,1823.7h-5.7
			v-5.7h5.7V1823.7z M5.8,1829.6h5.8v5.9H5.8V1829.6z M5.8,1841.3h5.8v5.6H5.8V1841.3z M58.2,1846.9h-5.9v-5.6h5.9V1846.9z
			 M58.2,1835.5h-5.9v-5.9h5.9V1835.5z M58.2,1823.7h-5.9v-5.7h5.9V1823.7z M52.3,1789v-5.9h-5.8v5.9h-29v-5.9h-5.9v5.9H0v11.6h64
			V1789H52.3z"/>
	</g>
	<g>
		<path class="st2" d="M61.6,1933.7c-0.8,0-1.6-0.5-2.1-1.3l-7.5-14.3l-7.5,14.3c-0.7,1.3-2.2,1.7-3.3,0.9c-1.1-0.8-1.5-2.5-0.8-3.8
			l9.6-18.3c0.4-0.8,1.2-1.3,2.1-1.3s1.6,0.5,2.1,1.3l9.6,18.3c0.7,1.3,0.3,3-0.8,3.8C62.4,1933.6,62,1933.7,61.6,1933.7z"/>
		<path class="st2" d="M52,1974c-0.8,0-1.6-0.5-2.1-1.3l-9.6-18.3c-0.7-1.3-0.3-3,0.8-3.8c1.1-0.8,2.6-0.4,3.3,0.9l7.5,14.3
			l7.5-14.3c0.7-1.3,2.2-1.7,3.3-0.9c1.1,0.8,1.5,2.5,0.8,3.8l-9.6,18.3C53.6,1973.5,52.8,1974,52,1974z"/>
	</g>
	<g>
		<path class="st2" d="M61.6,2098c-0.8,0-1.6-0.5-2.1-1.3l-7.5-14.3l-7.5,14.3c-0.7,1.3-2.2,1.7-3.3,0.9c-1.1-0.8-1.5-2.5-0.8-3.8
			l9.6-18.3c0.4-0.8,1.2-1.3,2.1-1.3s1.6,0.5,2.1,1.3l9.6,18.3c0.7,1.3,0.3,3-0.8,3.8C62.4,2097.9,62,2098,61.6,2098z"/>
		<path class="st2" d="M52,2057.7c-0.8,0-1.6-0.5-2.1-1.3l-9.6-18.3c-0.7-1.3-0.3-3,0.8-3.8c1.1-0.8,2.6-0.4,3.3,0.9l7.5,14.3
			l7.5-14.3c0.7-1.3,2.2-1.7,3.3-0.9c1.1,0.8,1.5,2.5,0.8,3.8l-9.6,18.3C53.6,2057.2,52.8,2057.7,52,2057.7z"/>
	</g>
</g>
<g>
	<g>
		<path class="st9" d="M40.64,2701.76v-6.38c0-4.68-3.81-8.5-8.5-8.5c-4.69,0-8.5,3.81-8.5,8.5v6.38c-1.75,0-3.18,1.43-3.18,3.19
			v12.75c0,1.76,1.43,3.19,3.18,3.19h17c1.76,0,3.19-1.43,3.19-3.19v-12.75C43.84,2703.19,42.4,2701.76,40.64,2701.76L40.64,2701.76
			z M25.77,2695.38c0-3.51,2.86-6.37,6.38-6.37c3.51,0,6.38,2.86,6.38,6.37v6.38H25.77V2695.38z M41.71,2717.7
			c0,0.59-0.48,1.06-1.06,1.06h-17c-0.58,0-1.06-0.48-1.06-1.06v-12.75c0-0.59,0.48-1.06,1.06-1.06h17c0.59,0,1.06,0.48,1.06,1.06
			V2717.7z M33.21,2710.55v-2.42c0-0.59-0.48-1.06-1.06-1.06c-0.59,0-1.06,0.48-1.06,1.06v2.42c-0.63,0.37-1.06,1.05-1.06,1.83
			c0,1.17,0.95,2.13,2.13,2.13c1.17,0,2.12-0.96,2.12-2.13C34.27,2711.6,33.84,2710.92,33.21,2710.55L33.21,2710.55z M33.21,2710.55
			"/>
	</g>
	<path class="st9" d="M32.15,2671.89c-17.7,0-32,14.3-32,32s14.3,32,32,32s32-14.3,32-32C64.15,2686.09,49.85,2671.89,32.15,2671.89
		z M32.15,2730.89c-14.9,0-27-12-27-27s12.1-27,27-27s27,12.1,27,27S47.05,2730.89,32.15,2730.89z"/>
</g>
<g>
	<g>
		<g>
			<defs>
				<rect id="SVGID_1_" x="23.05" y="2914.89" width="18.2" height="34"/>
			</defs>
			<clipPath id="SVGID_2_">
				<use xlink:href="#SVGID_1_"  style="overflow:visible;"/>
			</clipPath>
			<path class="st10" d="M32.8,2915.32c-0.39-0.57-1.34-0.57-1.73,0c-0.33,0.48-8.03,11.9-8.03,22.06c0,4.55,3.43,8.31,7.85,8.83
				v1.11c0,0.58,0.47,1.05,1.05,1.05c0.58,0,1.05-0.47,1.05-1.05v-1.11c4.41-0.52,7.85-4.28,7.85-8.83
				C40.83,2927.22,33.13,2915.8,32.8,2915.32L32.8,2915.32z M32.99,2944.09v-3.67l2.83-2.83c0.41-0.41,0.41-1.07,0-1.48
				c-0.41-0.41-1.07-0.41-1.48,0l-1.35,1.35v-4.37l2.83-2.83c0.41-0.41,0.41-1.07,0-1.48c-0.41-0.41-1.07-0.41-1.48,0l-1.35,1.36
				v-5.85c0-0.58-0.47-1.05-1.05-1.05c-0.58,0-1.05,0.47-1.05,1.05v5.85l-1.35-1.36c-0.41-0.41-1.07-0.41-1.48,0
				c-0.41,0.41-0.41,1.07,0,1.48l2.83,2.83v4.37l-1.35-1.35c-0.41-0.41-1.07-0.41-1.48,0c-0.41,0.41-0.41,1.07,0,1.48l2.83,2.83
				v3.67c-3.25-0.51-5.75-3.32-5.75-6.72c0-7.55,4.79-16.22,6.8-19.51c2,3.3,6.8,11.96,6.8,19.51
				C38.74,2940.77,36.24,2943.59,32.99,2944.09L32.99,2944.09z M32.99,2944.09"/>
		</g>
	</g>
	<path class="st9" d="M32.15,2899.89c-17.7,0-32,14.3-32,32s14.3,32,32,32s32-14.3,32-32C64.15,2914.09,49.85,2899.89,32.15,2899.89
		z M32.15,2958.89c-14.9,0-27-12-27-27s12.1-27,27-27s27,12.1,27,27S47.05,2958.89,32.15,2958.89z"/>
</g>
<g>
	<g>
		<path class="st9" d="M32.15,2480.08c5.12,0,9.28-5.09,9.28-11.34c0-6.25-4.16-11.34-9.28-11.34c-2.52,0-4.88,1.21-6.64,3.41
			c-1.7,2.13-2.64,4.95-2.64,7.94C22.87,2474.99,27.03,2480.08,32.15,2480.08L32.15,2480.08z M32.15,2459.45
			c3.98,0,7.21,4.16,7.21,9.28c0,5.12-3.24,9.28-7.21,9.28c-3.98,0-7.22-4.16-7.22-9.28C24.93,2463.62,28.17,2459.45,32.15,2459.45
			L32.15,2459.45z M39.36,2478.01c-0.57,0-1.03,0.46-1.03,1.03c0,0.57,0.46,1.03,1.03,1.03c3.98,0,7.22,3.24,7.22,7.21
			c0,0.57-0.46,1.03-1.03,1.03H18.74c-0.56,0-1.03-0.46-1.03-1.03c0-3.98,3.24-7.21,7.21-7.21c0.57,0,1.03-0.46,1.03-1.03
			c0-0.57-0.46-1.03-1.03-1.03c-5.12,0-9.28,4.16-9.28,9.28c0,1.71,1.39,3.1,3.09,3.1h26.81c1.71,0,3.1-1.39,3.1-3.1
			C48.65,2482.18,44.48,2478.01,39.36,2478.01L39.36,2478.01z M39.36,2478.01"/>
	</g>
	<path class="st9" d="M32.15,2443.89c-17.7,0-32,14.3-32,32s14.3,32,32,32s32-14.3,32-32C64.15,2458.09,49.85,2443.89,32.15,2443.89
		z M32.15,2502.89c-14.9,0-27-12-27-27s12.1-27,27-27s27,12.1,27,27S47.05,2502.89,32.15,2502.89z"/>
</g>
<g>
	<g>
		<path class="st4" d="M40.64,2587.76v-6.38c0-4.68-3.81-8.5-8.5-8.5c-4.69,0-8.5,3.81-8.5,8.5v6.38c-1.75,0-3.18,1.43-3.18,3.19
			v12.75c0,1.76,1.43,3.19,3.18,3.19h17c1.76,0,3.19-1.43,3.19-3.19v-12.75C43.84,2589.19,42.4,2587.76,40.64,2587.76L40.64,2587.76
			z M25.77,2581.38c0-3.51,2.86-6.37,6.38-6.37c3.51,0,6.38,2.86,6.38,6.37v6.38H25.77V2581.38z M41.71,2603.7
			c0,0.59-0.48,1.06-1.06,1.06h-17c-0.58,0-1.06-0.48-1.06-1.06v-12.75c0-0.59,0.48-1.06,1.06-1.06h17c0.59,0,1.06,0.48,1.06,1.06
			V2603.7z M33.21,2596.55v-2.42c0-0.59-0.48-1.06-1.06-1.06c-0.59,0-1.06,0.48-1.06,1.06v2.42c-0.63,0.37-1.06,1.05-1.06,1.83
			c0,1.17,0.95,2.13,2.13,2.13c1.17,0,2.12-0.96,2.12-2.13C34.27,2597.6,33.84,2596.92,33.21,2596.55L33.21,2596.55z M33.21,2596.55
			"/>
	</g>
	<path class="st4" d="M32.15,2557.89c-17.7,0-32,14.3-32,32s14.3,32,32,32s32-14.3,32-32C64.15,2572.09,49.85,2557.89,32.15,2557.89
		z M32.15,2616.89c-14.9,0-27-12-27-27s12.1-27,27-27s27,12.1,27,27S47.05,2616.89,32.15,2616.89z"/>
</g>
<g>
	<g>
		<g>
			<defs>
				<rect id="SVGID_3_" x="23.05" y="2800.89" width="18.2" height="34"/>
			</defs>
			<clipPath id="SVGID_4_">
				<use xlink:href="#SVGID_3_"  style="overflow:visible;"/>
			</clipPath>
			<path class="st11" d="M32.8,2801.32c-0.39-0.57-1.34-0.57-1.73,0c-0.33,0.48-8.03,11.9-8.03,22.06c0,4.55,3.43,8.31,7.85,8.83
				v1.11c0,0.58,0.47,1.05,1.05,1.05c0.58,0,1.05-0.47,1.05-1.05v-1.11c4.41-0.52,7.85-4.28,7.85-8.83
				C40.83,2813.22,33.13,2801.8,32.8,2801.32L32.8,2801.32z M32.99,2830.09v-3.67l2.83-2.83c0.41-0.41,0.41-1.07,0-1.48
				c-0.41-0.41-1.07-0.41-1.48,0l-1.35,1.35v-4.37l2.83-2.83c0.41-0.41,0.41-1.07,0-1.48c-0.41-0.41-1.07-0.41-1.48,0l-1.35,1.36
				v-5.85c0-0.58-0.47-1.05-1.05-1.05c-0.58,0-1.05,0.47-1.05,1.05v5.85l-1.35-1.36c-0.41-0.41-1.07-0.41-1.48,0
				c-0.41,0.41-0.41,1.07,0,1.48l2.83,2.83v4.37l-1.35-1.35c-0.41-0.41-1.07-0.41-1.48,0c-0.41,0.41-0.41,1.07,0,1.48l2.83,2.83
				v3.67c-3.25-0.51-5.75-3.32-5.75-6.72c0-7.55,4.79-16.22,6.8-19.51c2,3.3,6.8,11.96,6.8,19.51
				C38.74,2826.77,36.24,2829.59,32.99,2830.09L32.99,2830.09z M32.99,2830.09"/>
		</g>
	</g>
	<path class="st4" d="M32.15,2785.89c-17.7,0-32,14.3-32,32s14.3,32,32,32s32-14.3,32-32C64.15,2800.09,49.85,2785.89,32.15,2785.89
		z M32.15,2844.89c-14.9,0-27-12-27-27s12.1-27,27-27s27,12.1,27,27S47.05,2844.89,32.15,2844.89z"/>
</g>
<g>
	<g>
		<path class="st4" d="M32.15,2366.08c5.12,0,9.28-5.09,9.28-11.34c0-6.25-4.16-11.34-9.28-11.34c-2.52,0-4.88,1.21-6.64,3.41
			c-1.7,2.13-2.64,4.95-2.64,7.94C22.87,2360.99,27.03,2366.08,32.15,2366.08L32.15,2366.08z M32.15,2345.45
			c3.98,0,7.21,4.16,7.21,9.28c0,5.12-3.24,9.28-7.21,9.28c-3.98,0-7.22-4.16-7.22-9.28C24.93,2349.62,28.17,2345.45,32.15,2345.45
			L32.15,2345.45z M39.36,2364.01c-0.57,0-1.03,0.46-1.03,1.03c0,0.57,0.46,1.03,1.03,1.03c3.98,0,7.22,3.24,7.22,7.21
			c0,0.57-0.46,1.03-1.03,1.03H18.74c-0.56,0-1.03-0.46-1.03-1.03c0-3.98,3.24-7.21,7.21-7.21c0.57,0,1.03-0.46,1.03-1.03
			c0-0.57-0.46-1.03-1.03-1.03c-5.12,0-9.28,4.16-9.28,9.28c0,1.71,1.39,3.1,3.09,3.1h26.81c1.71,0,3.1-1.39,3.1-3.1
			C48.65,2368.18,44.48,2364.01,39.36,2364.01L39.36,2364.01z M39.36,2364.01"/>
	</g>
	<path class="st4" d="M32.15,2329.89c-17.7,0-32,14.3-32,32s14.3,32,32,32s32-14.3,32-32C64.15,2344.09,49.85,2329.89,32.15,2329.89
		z M32.15,2388.89c-14.9,0-27-12-27-27s12.1-27,27-27s27,12.1,27,27S47.05,2388.89,32.15,2388.89z"/>
</g>
</svg>
