<?xml version="1.0" encoding="utf-8"?>
<!-- Generator: Adobe Illustrator 18.0.0, SVG Export Plug-In . SVG Version: 6.00 Build 0)  -->
<!DOCTYPE svg PUBLIC "-//W3C//DTD SVG 1.1//EN" "http://www.w3.org/Graphics/SVG/1.1/DTD/svg11.dtd">
<svg version="1.1" id="Layer_1" xmlns="http://www.w3.org/2000/svg" xmlns:xlink="http://www.w3.org/1999/xlink" x="0px" y="0px"
	 viewBox="0 0 64.1 1961.2" enable-background="new 0 0 64.1 1961.2" xml:space="preserve">
<path fill="#DDDDDD" d="M32,74C14.4,74,0,88.4,0,106s14.4,32,32,32s32-14.4,32-32S49.6,74,32,74z M32,133c-15,0-27-12-27-27
	s12-27,27-27s27,12,27,27S47,133,32,133z"/>
<path fill="#AAAAAA" d="M40.8,112.2c-2-0.4-4.8-2.2-4.8-3.2v-2.2c0-0.8,1-2.2,1.6-3.6c0-0.2,0.4,0,0.6-0.4c0.6-0.6,0.6-1.6,0.6-2
	c0.2-0.6-0.6-0.8-0.6-0.8s0.6-3.6,0-5.8c-0.8-3-4.6-4.6-6.2-4.6c-1.6,0-5.4,1.6-6.2,4.6c-0.6,2.2,0,5.8,0,5.8s-0.8,0-0.6,0.8
	c0.2,0.4,0.2,1.4,0.8,2c0.2,0.4,0.4,0.2,0.4,0.4c0.4,1.4,1.6,2.8,1.6,3.6v2.2c0,0.8-2.8,2.8-4.8,3.2c-2.6,0.4-3.8,2.2-3.2,6.6
	c0.4,2.2,6.2,3.2,12,3c5.8,0,11.8-0.8,12-3C44.6,114.4,43.4,112.8,40.8,112.2z"/>
<path fill="#4D2079" d="M0,0v64h64V0H0z M48.2,41.9l-6.3,6.3L32,38.3l-9.9,9.9l-6.3-6.3l9.9-9.9l-9.9-9.9l6.3-6.3l9.9,9.9l9.9-9.9
	l6.3,6.3L38.3,32C38.3,32,48.2,41.9,48.2,41.9z"/>
<path fill="#A99A6F" d="M0,1920.2V1910h64v10.2H0z M0,1940.7v-10.2h64v10.2H0z M0,1961.2V1951h64v10.2H0z"/>
<path fill="#DDDDDD" d="M17.2,209.3v-58.6c0-1.6,1.3-2.7,2.7-2.7h23.8L64,168.3v41c0,1.6-1.3,2.7-2.7,2.7H19.9
	C18.3,212,17.2,210.9,17.2,209.3z"/>
<path fill="#AAAAAA" d="M43.7,148L64,168.3H46.4c-1.6,0-2.7-1.3-2.7-2.7V148z"/>
<path fill="#4D2079" d="M30.6,197.6c0,0.9-0.3,1.6-1,2.1c-0.6,0.4-1.3,0.7-2.4,0.7h-1.4v4.3h-1.4v-9.8H27c1,0,1.8,0.3,2.4,0.7
	C30.2,196.1,30.6,196.8,30.6,197.6z M28.6,198.9c0.4-0.3,0.6-0.7,0.6-1.3s-0.1-1-0.6-1.3c-0.4-0.3-0.9-0.4-1.4-0.4h-1.3v3.4h1.3
	C27.7,199.3,28.2,199.2,28.6,198.9z M38.7,196.1c1,1,1.6,2.1,1.6,3.6c0,1.4-0.6,2.7-1.6,3.6s-2.1,1.3-3.7,1.3h-3v-9.8h3
	C36.4,194.8,37.7,195.2,38.7,196.1L38.7,196.1z M38.7,199.8c0-1.1-0.4-2.1-1.1-2.8c-0.7-0.6-1.6-0.9-2.6-0.9h-1.6v7.4H35
	c1.1,0,2-0.3,2.6-0.9C38.4,201.8,38.7,200.9,38.7,199.8z M47.2,194.8v1.1h-4.1v3.3h3.8v1.1h-3.8v4.3h-1.4v-9.8L47.2,194.8
	L47.2,194.8z"/>
<path fill="#AAAAAA" d="M22.1,241.3l-2.8,2.8l9.9,9.9l-9.9,9.9l2.8,2.8l9.9-9.9l9.9,9.9l2.8-2.8l-9.9-9.9l9.9-9.9l-2.8-2.8l-9.9,9.9
	C32,251.2,22.1,241.3,22.1,241.3z M9.4,231.4c-12.5,12.5-12.5,32.8,0,45.3s32.8,12.5,45.3,0s12.5-32.8,0-45.3
	C42.1,219,21.9,219,9.4,231.4z M51,273.1c-10.5,10.5-27.6,10.5-38.2,0c-10.5-10.5-10.5-27.6,0-38.2s27.6-10.5,38.2,0
	S61.5,262.5,51,273.1z"/>
<path fill="#666666" d="M32,296c-17.7,0-32,14.3-32,32s14.3,32,32,32s32-14.3,32-32S49.7,296,32,296z M32,355c-14.9,0-27-12.1-27-27
	s12.1-27,27-27s27,12.1,27,27S46.9,355,32,355z M32,340.4l-13.1-8.2l-2.9,1.7l16,10l16-10l-2.9-1.8C45.1,332.1,32,340.4,32,340.4z
	 M32,334.4l-13.1-8.2l-2.9,1.7l16,10l16-9.9l-3-1.9L32,334.4z M16,322l16,10l16-10l-16-10L16,322z"/>
<path fill="#4D2079" d="M32,370c-17.7,0-32,14.3-32,32s14.3,32,32,32s32-14.3,32-32S49.7,370,32,370z M32,429c-14.9,0-27-12.1-27-27
	s12.1-27,27-27s27,12.1,27,27S46.9,429,32,429z M32,414.4l-13.1-8.2l-2.9,1.7l16,10l16-10l-2.9-1.8C45.1,406.1,32,414.4,32,414.4z
	 M32,408.4l-13.1-8.2l-2.9,1.7l16,10l16-9.9l-3-1.9L32,408.4z M16,396l16,10l16-10l-16-10L16,396z"/>
<path fill="#666666" d="M32,444c-17.7,0-32,14.3-32,32s14.3,32,32,32s32-14.3,32-32S49.7,444,32,444z M32,503c-14.9,0-27-12.1-27-27
	s12.1-27,27-27s27,12.1,27,27S46.9,503,32,503z M34.9,466c0,0-7.3-0.1-12.6,3.3L15.7,480c0,0,4.7-5.4,9.4-7.2
	c5.1-1.9,9.8-0.8,9.8-0.8v6l12-8l-12-10C34.9,460,34.9,466,34.9,466z M37.7,479.2C32.6,481.1,27,480,27,480v-6l-12,8l12,10v-6
	c0,0,8.4,0.1,13.7-3.3l6.8-10.7C47.5,472,42.3,477.4,37.7,479.2z"/>
<path fill="#4D2079" d="M32,518c-17.7,0-32,14.3-32,32s14.3,32,32,32s32-14.3,32-32C64,532.2,49.7,518,32,518z M32,577
	c-14.9,0-27-12-27-27s12.1-27,27-27s27,12.1,27,27S46.9,577,32,577z M34.9,540c0,0-7.3-0.1-12.6,3.3S15.7,554,15.7,554
	s4.7-5.4,9.4-7.2c5.1-1.9,9.8-0.8,9.8-0.8v6l12-8l-12-10V540z M37.7,553.2C32.6,555.1,27,554,27,554v-6l-12,8l12,10v-6
	c0,0,8.4,0.1,13.7-3.3l6.8-10.7C47.5,545.9,42.3,551.4,37.7,553.2z"/>
<path fill="#666666" d="M32,592c-17.7,0-32,14.3-32,32s14.3,32,32,32s32-14.3,32-32C64,606.2,49.7,592,32,592z M32,651
	c-14.9,0-27-12-27-27s12.1-27,27-27s27,12.1,27,27S46.9,651,32,651z M33.2,611.2c-0.9,0-1.8,0.1-2.6,0.2c-0.7-0.9-1.8-1.7-3.3-2.1
	c-2.3-0.7-7.5-2.2-7.5-0.5c1.4,0.9,2.5,4.1,3.9,5.5c-2.1,1.7-3.8,4-5.1,6.8c0,0-1.8,0.6-2.3,1.1s-0.5,5.4,0,5.8
	c0.5,0.5,2.6,0.9,2.6,0.9c1.1,2.4,2.7,4.4,4.8,5.8c-0.1,1.7-0.2,4.5,0.1,4.8c0.5,0.5,4.8,0.5,5.3,0c0.2-0.2,1-1.2,1.9-2.2
	c0.7,0.1,1.4,0.1,2.1,0.1c0.5,0,1.1,0,1.6-0.1c0.8,0.9,1.4,1.9,1.6,2.1c0.5,0.5,4.9,0.5,5.3,0c0.3-0.3,0.2-2.9,0.1-4.6
	c3.7-2.4,6-6.3,6-10.6C48,617.2,41.4,611.2,33.2,611.2z M40.9,633.2l-1,0.6L40,635c0.1,1.2,0.1,2.2,0.1,2.8h-2.3
	c-0.3-0.5-0.8-1.1-1.3-1.7l-0.7-0.8l-1,0.1l-1.4,0.1c-0.6,0-1.3,0-1.9-0.1l-1-0.1l-0.7,0.8c-0.6,0.7-1.2,1.4-1.5,1.8
	c-0.3,0-0.7,0.1-1.4,0.1H26c0-0.6,0-1.5,0.1-3l0.1-1.1l-0.9-0.6c-1.8-1.2-3.2-2.9-4.1-5l-0.4-0.9l-1-0.2c-0.5-0.1-1-0.3-1.4-0.4
	c-0.1-0.9-0.1-2.4,0-3.2c0.3-0.1,0.8-0.3,1.2-0.5l0.8-0.3l0.4-0.8c1.2-2.6,2.7-4.7,4.5-6.1l1.7-1.4l-1.5-1.6c-0.4-0.5-1-1.3-1.5-2.2
	c-0.1-0.1-0.2-0.3-0.2-0.4c1.1,0.2,2.3,0.6,3.3,0.9s1.9,0.9,2.3,1.5l0.7,0.9l1.1-0.2c0.7-0.1,1.5-0.2,2.3-0.2c7,0,12.8,5,12.8,11.2
	C46,627.8,44.1,631,40.9,633.2L40.9,633.2z M37.8,616c-2.4-0.7-5,0.3-5.1,1c-0.2,0.6,2.5-0.2,4.8,0.5c2.4,0.7,4.6,3.7,4.8,3
	S40.2,616.8,37.8,616z M26,618.8c-0.7,0-1.2,0.6-1.2,1.3s0.6,1.3,1.2,1.3s1.2-0.6,1.2-1.3C27.2,619,26.6,618.8,26,618.8z"/>
<path fill="#4D2079" d="M32,666c-17.7,0-32,14.3-32,32s14.3,32,32,32s32-14.3,32-32C64,680.2,49.7,666,32,666z M32,725
	c-14.9,0-27-12-27-27s12.1-27,27-27s27,12.1,27,27S46.9,725,32,725z M33.2,685.2c-0.9,0-1.8,0.1-2.6,0.2c-0.7-0.9-1.8-1.7-3.3-2.1
	c-2.3-0.7-7.5-2.2-7.5-0.5c1.4,0.9,2.5,4.1,3.9,5.5c-2.1,1.7-3.8,4-5.1,6.8c0,0-1.8,0.6-2.3,1.1s-0.5,5.4,0,5.8
	c0.5,0.5,2.6,0.9,2.6,0.9c1.1,2.4,2.7,4.4,4.8,5.8c-0.1,1.7-0.2,4.5,0.1,4.8c0.5,0.5,4.8,0.5,5.3,0c0.2-0.2,1-1.2,1.9-2.2
	c0.7,0.1,1.4,0.1,2.1,0.1c0.5,0,1.1,0,1.6-0.1c0.8,0.9,1.4,1.9,1.6,2.1c0.5,0.5,4.9,0.5,5.3,0c0.3-0.3,0.2-2.9,0.1-4.6
	c3.7-2.4,6-6.3,6-10.6C48,691.2,41.4,685.2,33.2,685.2z M40.9,707.2l-1,0.6L40,709c0.1,1.2,0.1,2.2,0.1,2.8h-2.3
	c-0.3-0.5-0.8-1.1-1.3-1.7l-0.7-0.8l-1,0.1l-1.4,0.1c-0.6,0-1.3,0-1.9-0.1l-1-0.1l-0.7,0.8c-0.6,0.7-1.2,1.4-1.5,1.8
	c-0.3,0-0.7,0.1-1.4,0.1H26c0-0.6,0-1.5,0.1-3l0.1-1.1l-0.9-0.6c-1.8-1.2-3.2-2.9-4.1-5l-0.4-0.9l-1-0.2c-0.5-0.1-1-0.3-1.4-0.4
	c-0.1-0.9-0.1-2.4,0-3.2c0.3-0.1,0.8-0.3,1.2-0.5l0.8-0.3l0.4-0.8c1.2-2.6,2.7-4.7,4.5-6.1l1.7-1.4l-1.5-1.6c-0.4-0.5-1-1.3-1.5-2.2
	c-0.1-0.1-0.2-0.3-0.2-0.4c1.1,0.2,2.3,0.6,3.3,0.9s1.9,0.9,2.3,1.5l0.7,0.9l1.1-0.2c0.7-0.1,1.5-0.2,2.3-0.2c7,0,12.8,5,12.8,11.2
	C46,701.8,44.1,705,40.9,707.2L40.9,707.2z M37.8,690c-2.4-0.7-5,0.3-5.1,1c-0.2,0.6,2.5-0.2,4.8,0.5c2.4,0.7,4.6,3.7,4.8,3
	S40.2,690.8,37.8,690z M26,692.8c-0.7,0-1.2,0.6-1.2,1.3s0.6,1.3,1.2,1.3s1.2-0.6,1.2-1.3C27.2,693,26.6,692.8,26,692.8z"/>
<path fill="#FFFFFF" d="M32,740c-17.7,0-32,14.3-32,32s14.3,32,32,32s32-14.3,32-32C64,754.2,49.7,740,32,740z M32,799
	c-14.9,0-27-12-27-27s12.1-27,27-27s27,12.1,27,27S46.9,799,32,799z M40.9,788c0.7,0,7.1-4.7,7.1-5.3s-7.2-5.1-7.8-5.1
	s-2.7,2.5-3.3,2.8s-4.1,0.2-8-3.7s-5.2-8.4-5.2-9.1s3.3-2.9,3.3-3.4c0.1-0.5-4.3-8.1-5-8.1s-6.1,6.6-6.1,7.1s0.5,7.6,9.4,16.5
	S40.2,788,40.9,788z M32,814c-17.7,0-32,14.3-32,32s14.3,32,32,32s32-14.3,32-32C64,828.2,49.7,814,32,814z M32,873
	c-14.9,0-27-12-27-27s12.1-27,27-27s27,12.1,27,27S46.9,873,32,873z M32,836H16v20h32v-20H32z M32,838h11.2L32,846l-11.2-8H32z
	 M18,838.7l6.8,4.6l-6.8,7.4V838.7z M32,854H20.4l5.7-9.9l5.9,4l5.9-4l5.7,9.9H32z M46,850.7l-6.8-7.4l6.8-4.6V850.7z"/>
<path fill="#4D2079" d="M0,888h64v64H0V888z"/>
<path fill="#FFFFFF" d="M48,914l-16,16l-16-16H48z"/>
<path fill="#CCCCCC" d="M0,962h64v64H0V962z"/>
<path fill="#FFFFFF" d="M48,988l-16,16l-16-16H48z"/>
<path fill="#CCCCCC" d="M32,1122.8c-17.7,0-32,14.3-32,32s14.3,32,32,32s32-14.3,32-32C64,1137.2,49.7,1122.8,32,1122.8z M32,1181.8
	c-14.9,0-27-12.1-27-27s12.1-27,27-27s27,12.1,27,27S46.9,1181.8,32,1181.8z M30,1152.2l0.8,10.6h2.4l0.8-10.7v-13.3h-4V1152.2z
	 M30,1166.8h4v4h-4V1166.8z"/>
<path fill="#666666" d="M32,1196.8c17.7,0,32,14.4,32,32.1c0,17.6-14.4,31.9-32.1,31.9c-17.5,0-31.9-14.4-31.9-32
	S14.4,1196.9,32,1196.8z M31.9,1239.5h0.6c2.4,0,2.4,0,2.8-2.4c0.3-2.4,1.5-4.3,3.2-5.9c1.3-1.1,2.5-2.3,3.8-3.4
	c4.3-3.7,3.9-11.5,0.7-15.3c-3.4-4.1-9.9-5.6-15.7-3.5c-5.4,1.9-8.2,6.2-8.6,11.9c0,0.5,0.5,1.3,0.8,1.4c1.6,0.1,3.3,0.1,4.9-0.1
	c0.4,0,0.8-0.9,1-1.5c0.4-1.1,0.5-2.3,1-3.4c1.1-2.6,3.4-3.9,6.5-3.6c2.5,0.2,4.5,2,5.1,4.6c0.7,2.9-0.1,5.3-2.2,7.3l-2.4,2.1
	c-2.7,2.2-4,5-4.4,8.4C28.6,1239.2,28.8,1239.5,31.9,1239.5z M31.8,1243.6h-1.3c-2.2,0-2.4,0.2-2.4,2.4v2.9c0,1.1,0.5,1.6,1.5,1.6
	c1.3,0.1,2.7,0,4,0s2-0.6,1.9-2v-1.3C35.5,1243.6,35.5,1243.6,31.8,1243.6z"/>
<path fill="#A99A6F" d="M0,1395.8v-44.7h0.1c2.1-0.4,4.3-0.8,6.4-1.1c2-0.4,4.1-0.7,6.1-1.1c2.4-0.4,4.7-0.8,7.1-1.3
	c2.6-0.5,5.3-0.9,7.9-1.4c2.7-0.5,5.3-1,8-1.4c0.2,0,0.4-0.1,0.7-0.1v5.6c0,0.2,0,0.2,0.3,0.2h24.3c0.5,0,1,0,1.4,0.2
	c1.2,0.5,1.8,1.4,1.8,2.7v40.4c0,0.6-0.2,1.2-0.5,1.7c-0.6,0.8-1.5,1.2-2.5,1.2H36.7c-0.3,0-0.3,0-0.3,0.3v5.6h-0.1
	c-1.1-0.2-2.3-0.4-3.4-0.6c-2.4-0.4-4.7-0.8-7.1-1.3c-1.8-0.3-3.7-0.7-5.5-1c-1.9-0.3-3.7-0.7-5.6-1c-2.5-0.5-5.1-0.9-7.6-1.4
	C4.6,1396.7,2.3,1396.2,0,1395.8L0,1395.8z M61.4,1394.2v-41.4H36.5c-0.2,0-0.2,0-0.2,0.2v3.3c0,0.2,0,0.2,0.2,0.2H45v5.2h-8.8v1.7
	c0,0.2,0,0.2,0.3,0.2H45v5.2h-8.5c-0.2,0-0.2,0-0.2,0.2v1.7c0,0.2,0,0.2,0.2,0.2H45v4.9c0,0.3,0,0.3-0.3,0.3h-8.3
	c-0.2,0-0.2,0-0.2,0.2v1.6c0,0.2,0.1,0.2,0.2,0.2H45v5.2h-8.5c-0.2,0-0.2,0-0.2,0.2v1.4c0,0.2,0,0.2,0.2,0.2H45v5.2h-8.5
	c-0.2,0-0.2,0-0.2,0.2v3.3c0,0.2,0,0.2,0.2,0.2h24.7C61.2,1394.2,61.3,1394.2,61.4,1394.2L61.4,1394.2z M16.6,1375.2
	c0.1,0.4,0.2,0.9,0.4,1.3l3,6.3c0.1,0.1,0.1,0.2,0.3,0.2h0.8c0.6,0,1.3,0.1,1.9,0.1c0.4,0,0.9,0.1,1.3,0.1c0.3,0,0.6,0,0.9,0.1
	c0-0.1-0.1-0.2-0.1-0.2c-0.3-0.6-0.7-1.2-1-1.8l-4.5-8.1c-0.1-0.2-0.1-0.3,0-0.5c1.8-3.2,3.6-6.5,5.4-9.7c0-0.1,0-0.1,0.1-0.2
	c-0.3,0-0.7,0-1,0.1c-0.8,0.1-1.6,0.1-2.4,0.2c-0.4,0-0.8,0.1-1.2,0.1c-0.2,0-0.3,0.1-0.3,0.2c-0.6,1.3-1.3,2.6-1.9,4
	c-0.3,0.7-0.7,1.4-1,2.1c-0.2,0.4-0.3,0.9-0.5,1.4c-0.1-0.4-0.2-0.8-0.4-1.3c-0.5-1.2-1.1-2.5-1.6-3.7l-0.9-2.1
	c0-0.1-0.1-0.2-0.2-0.1c-0.2,0-0.4,0-0.6,0.1c-0.9,0.1-1.9,0.1-2.8,0.2c-0.3,0-0.6,0-0.9,0.1c0,0.1,0.1,0.1,0.1,0.2
	c0.3,0.5,0.6,1.1,0.9,1.6c1.2,2.4,2.5,4.8,3.7,7.2v0.2c-0.7,1.2-1.4,2.4-2,3.6c-1,1.7-2,3.5-2.9,5.2c0,0.1-0.1,0.1-0.1,0.2
	c0.4,0,0.8,0.1,1.1,0.1c0.4,0,0.8,0,1.2,0.1c0.6,0,1.2,0.1,1.8,0.1c0.2,0,0.2,0,0.3-0.2c0.7-1.4,1.3-2.7,2-4.1
	C15.9,1377.3,16.4,1376.3,16.6,1375.2L16.6,1375.2z M47.3,1356.4h10v5.2h-9.8c-0.2,0-0.2,0-0.2-0.2V1356.4z M57.3,1385.2v5.2h-9.8
	c-0.2,0-0.2,0-0.2-0.2v-4.8c0-0.2,0-0.2,0.2-0.2H57.3z M47.3,1368.9v-5.2h10v5.2H47.3z M57.3,1376.2h-10v-5.2h10V1376.2z
	 M57.3,1378.2v5.2h-10v-5c0-0.2,0-0.2,0.2-0.2H57.3z M56.8,1295.1c1,0.1,1.8,0.1,2.6,0.2c2.9,0.4,4.6,2.3,4.6,5.2v17.3
	c0,4-2.5,6.4-6.5,6.4h-4v10.4H10.6v-10.4H6.8c-4.4,0-6.7-2.4-6.8-6.8v-16.5c0-3.6,1.8-5.5,5.4-5.7c0.5,0,1.1-0.1,1.9-0.1
	c0-1.5-0.2-3,0.1-4.4c0.3-1.3,1-2.7,1.9-3.5c0.9-0.8,1.2-1.5,1.2-2.5V1271c0.9,0,1.5-0.1,2.2-0.1h25.7c1,0,2.2,0.5,3,1.2
	c3.5,3.3,6.9,6.7,10.4,10.1c0.4,0.4,1.1,0.8,1.2,1.3c0.8,3.7,5.3,6.1,3.7,10.7C56.6,1294.4,56.7,1294.7,56.8,1295.1L56.8,1295.1z
	 M49.3,1314.6H14.8v16h34.5C49.3,1330.6,49.3,1314.6,49.3,1314.6z M37,1286.7v-11.5H14.7v20h34.4v-8.4
	C45.2,1286.7,41.3,1286.7,37,1286.7z M10.6,1310.5h42.9v8.7c1.2,0,2.3-0.1,3.3,0c1.7,0.1,2.3-0.6,2.2-2.3c-0.1-2.6,0-5.3,0-7.9v-4.6
	H5.1c0,4.5-0.1,8.9,0.1,13.3c0,0.5,0.9,1.2,1.5,1.4c0.6,0.2,1.3,0,2,0.1c1.5,0.2,2-0.5,1.9-2C10.5,1315.1,10.6,1312.9,10.6,1310.5z
	 M40.1,1275.5v7.9h7.3C45.2,1281,42.7,1278.3,40.1,1275.5z"/>
<path fill="#4D2079" d="M40.7,1505.3c-1-1.6-1-4.1,0-5.7l16.8-25.2l-16.8-25.2c-1-1.6-1-4.1,0-5.7s2.7-1.6,3.8,0l18.7,28
	c1,1.6,1,4.1,0,5.7l-18.7,28c-0.5,0.8-1.2,1.2-1.9,1.2S41.2,1506.1,40.7,1505.3L40.7,1505.3z"/>
<path fill="#CCCCCC" d="M32,1042.5c-17.7,0-32,14.3-32,32s14.3,32,32,32s32-14.3,32-32S49.7,1042.5,32,1042.5z M32,1101.5
	c-14.9,0-27-12.1-27-27s12.1-27,27-27s27,12.1,27,27S46.9,1101.5,32,1101.5z M40,1058.5H20v32h24v-27.4L40,1058.5z M22,1088.5v-28
	h16v4h4v24H22z M24,1076.5h16v2H24V1076.5z M24,1072.5h16v2H24V1072.5z M24,1066.5h8v2h-8V1066.5z M24,1062.5h4v2h-4V1062.5z
	 M24,1080.5h16v2H24V1080.5z M24,1084.5h16v2H24V1084.5z M10.1,1621.6c-5.6,0-10.1,4.5-10.1,10.1v53.9c0,5.6,4.5,10.1,10.1,10.1H64
	v-74.1H10.1z M57.3,1689H10.1c-1.9,0-3.4-1.5-3.4-3.4s1.5-3.4,3.4-3.4h47.2V1689z M57.3,1675.5H10.1c-1.2,0-2.3,0.2-3.4,0.6v-44.4
	c0-1.9,1.5-3.4,3.4-3.4h47.2V1675.5L57.3,1675.5z M6.4,1602v-41c-3.7,1.3-6.4,4.9-6.4,9v32c0,5.3,4.3,9.6,9.6,9.6h32
	c4.2,0,7.7-2.7,9-6.4h-41C7.8,1605.2,6.4,1603.8,6.4,1602z M54.4,1547.6h-32c-5.3,0-9.6,4.3-9.6,9.6v32c0,5.3,4.3,9.6,9.6,9.6h32
	c5.3,0,9.6-4.3,9.6-9.6v-32C64,1551.9,59.7,1547.6,54.4,1547.6z M57.6,1589.2c0,1.8-1.4,3.2-3.2,3.2h-32c-1.8,0-3.2-1.4-3.2-3.2v-32
	c0-1.8,1.4-3.2,3.2-3.2h32c1.8,0,3.2,1.4,3.2,3.2V1589.2z M45.3,1718.6v-4.8c0-4.4-3.6-8-8-8H8c-4.4,0-8,3.6-8,8v21.3
	c0,4.4,3.6,8,8,8h29.3c4.4,0,8-3.6,8-8v-4.8l18.7,10.2v-32L45.3,1718.6L45.3,1718.6z M40,1735c0,1.5-1.2,2.7-2.7,2.7H8
	c-1.5,0-2.7-1.2-2.7-2.7v-21.3c0-1.5,1.2-2.7,2.7-2.7h29.3c1.5,0,2.7,1.2,2.7,2.7V1735z M58.7,1731.4l-12.9-7l12.9-7
	C58.7,1717.4,58.7,1731.4,58.7,1731.4z"/>
<g>
	<path fill="#333333" d="M0,1806.4v46.4h64v-46.5L0,1806.4z M5.8,1818h5.8v5.7H5.8V1818z M23.2,1835.5h-5.7v-5.9h5.7V1835.5z
		 M29,1829.6h5.9v5.9H29V1829.6z M23.2,1841.3v5.6h-5.7v-5.6H23.2z M29,1841.3h5.9v5.6H29V1841.3z M40.7,1841.3h5.7v5.6h-5.7V1841.3
		z M40.7,1835.5v-5.9h5.7v5.9H40.7z M40.7,1823.7v-5.7h5.7v5.7H40.7z M34.9,1823.7H29v-5.7h5.9V1823.7z M23.2,1823.7h-5.7v-5.7h5.7
		V1823.7z M5.8,1829.6h5.8v5.9H5.8C5.8,1835.5,5.8,1829.6,5.8,1829.6z M5.8,1841.3h5.8v5.6H5.8C5.8,1846.9,5.8,1841.3,5.8,1841.3z
		 M58.2,1846.9h-5.9v-5.6h5.9V1846.9z M58.2,1835.5h-5.9v-5.9h5.9V1835.5z M58.2,1823.7h-5.9v-5.7h5.9V1823.7z M52.3,1789v-5.9h-5.8
		v5.9h-29v-5.9h-5.9v5.9H0v11.6h64V1789H52.3z"/>
</g>
</svg>
