<svg xmlns="http://www.w3.org/2000/svg" xmlns:xlink="http://www.w3.org/1999/xlink" viewBox="0 0 64.16 2963.89" width="64.15px" height="2963.89px"><defs><style>.a{fill:none;}.b{fill:#ddd;}.c{fill:#aaa;}.d{fill:#cd5806;}.e{fill:#003e51;}.f{fill:#666;}.g{fill:#fff;}.h{fill:#bbb;}.i{fill:#333;}.j{clip-path:url(#a);}.k{clip-path:url(#b);}</style><clipPath id="a" transform="translate(0)"><rect class="a" x="23.05" y="2914.89" width="18.2" height="34"/></clipPath><clipPath id="b" transform="translate(0)"><rect class="a" x="23.05" y="2800.89" width="18.2" height="34"/></clipPath></defs><title>icons</title><path class="b" d="M32,74a32,32,0,1,0,32,32A32,32,0,0,0,32,74Zm0,59a26.89,26.89,0,1,1,.22,0H32Z" transform="translate(0)"/><path class="c" d="M40.8,112.2c-2-.4-4.8-2.2-4.8-3.2v-2.2c0-.8,1-2.2,1.6-3.6,0-.2.4,0,0.6-0.4a2.86,2.86,0,0,0,.6-2c0.2-.6-0.6-0.8-0.6-0.8a17.31,17.31,0,0,0,0-5.8c-0.8-3-4.6-4.6-6.2-4.6s-5.4,1.6-6.2,4.6a17.31,17.31,0,0,0,0,5.8,0.59,0.59,0,0,0-.6.8,5.19,5.19,0,0,0,.8,2c0.2,0.4.4,0.2,0.4,0.4,0.4,1.4,1.6,2.8,1.6,3.6V109c0,0.8-2.8,2.8-4.8,3.2-2.6.4-3.8,2.2-3.2,6.6,0.4,2.2,6.2,3.2,12,3,5.8,0,11.8-.8,12-3C44.6,114.4,43.4,112.8,40.8,112.2Z" transform="translate(0)"/><path class="d" d="M0,0V64H64V0H0ZM48.2,41.9l-6.3,6.3L32,38.3l-9.9,9.9-6.3-6.3L25.7,32l-9.9-9.9,6.3-6.3L32,25.7l9.9-9.9,6.3,6.3L38.3,32Z" transform="translate(0)"/><path class="e" d="M0,2158.2V2148H64v10.2H0Zm0,20.5v-10.2H64v10.2H0Zm0,20.5V2189H64v10.2H0Z" transform="translate(0)"/><path class="b" d="M17.2,209.3V150.7a2.69,2.69,0,0,1,2.68-2.7H43.7L64,168.3v41a2.69,2.69,0,0,1-2.68,2.7H19.9A2.57,2.57,0,0,1,17.2,209.3Z" transform="translate(0)"/><path class="c" d="M43.7,148L64,168.3H46.4a2.69,2.69,0,0,1-2.7-2.68s0,0,0,0V148h0Z" transform="translate(0)"/><path class="d" d="M30.6,197.6a2.39,2.39,0,0,1-1,2.1,4,4,0,0,1-2.4.7H25.8v4.3H24.4v-9.8H27a4.27,4.27,0,0,1,2.4.7A2.31,2.31,0,0,1,30.6,197.6Zm-2,1.3a1.49,1.49,0,0,0,.6-1.3,1.29,1.29,0,0,0-.6-1.3,2.3,2.3,0,0,0-1.4-.4H25.9v3.4h1.3a2.3,2.3,0,0,0,1.4-.4h0Zm10.1-2.8a4.85,4.85,0,0,1,0,7.2,5.08,5.08,0,0,1-3.7,1.3H32v-9.8h3a5.41,5.41,0,0,1,3.7,1.3h0Zm0,3.7a3.44,3.44,0,0,0-3.7-3.7H33.4v7.4H35a3.57,3.57,0,0,0,2.6-.9A3.69,3.69,0,0,0,38.7,199.8Zm8.5-5v1.1H43.1v3.3h3.8v1.1H43.1v4.3H41.7v-9.8h5.5Z" transform="translate(0)"/><path class="c" d="M22.1,241.3l-2.8,2.8,9.9,9.9-9.9,9.9,2.8,2.8,9.9-9.9,9.9,9.9,2.8-2.8L34.8,254l9.9-9.9-2.8-2.8L32,251.2ZM9.4,231.4a32,32,0,1,0,45.3,0,32,32,0,0,0-45.3,0ZM51,273.1a27,27,0,1,1,0-38.2A27,27,0,0,1,51,273.1Z" transform="translate(0)"/><path class="f" d="M32,296a32,32,0,1,0,32,32A32,32,0,0,0,32,296Zm0,59a27,27,0,1,1,27-27,27,27,0,0,1-27,27h0Zm0-14.6-13.1-8.2L16,333.9l16,10,16-10-2.9-1.8Zm0-6-13.1-8.2L16,327.9l16,10L48,328l-3-1.9ZM16,322l16,10,16-10L32,312Z" transform="translate(0)"/><path class="g" d="M32,370a32,32,0,1,0,32,32A32,32,0,0,0,32,370Zm0,59a27,27,0,1,1,27-27,27,27,0,0,1-27,27h0Zm0-14.6-13.1-8.2L16,407.9l16,10,16-10-2.9-1.8Zm0-6-13.1-8.2L16,401.9l16,10L48,402l-3-1.9ZM16,396l16,10,16-10L32,386Z" transform="translate(0)"/><path class="f" d="M32,444a32,32,0,1,0,32,32A32,32,0,0,0,32,444Zm0,59a27,27,0,1,1,27-27h0A27,27,0,0,1,32,503Zm2.9-37s-7.3-.1-12.6,3.3L15.7,480s4.7-5.4,9.4-7.2a18.7,18.7,0,0,1,9.8-.8v6l12-8-12-10v6Zm2.8,13.2A22.33,22.33,0,0,1,27,480v-6l-12,8,12,10v-6s8.4,0.1,13.7-3.3L47.5,472S42.3,477.4,37.7,479.2Z" transform="translate(0)"/><path class="g" d="M32,518a32,32,0,1,0,32,32A32,32,0,0,0,32,518Zm0,59a27,27,0,1,1,27-27h0A27,27,0,0,1,32,577Zm2.9-37s-7.3-.1-12.6,3.3S15.7,554,15.7,554s4.7-5.4,9.4-7.2a18.7,18.7,0,0,1,9.8-.8v6l12-8-12-10v6Zm2.8,13.2A22.33,22.33,0,0,1,27,554v-6l-12,8,12,10v-6s8.4,0.1,13.7-3.3L47.5,546C47.5,545.9,42.3,551.4,37.7,553.2Z" transform="translate(0)"/><path class="f" d="M32,592a32,32,0,1,0,32,32A32,32,0,0,0,32,592Zm0,59a27,27,0,1,1,27-27h0A27,27,0,0,1,32,651Zm1.2-39.8a21.11,21.11,0,0,0-2.6.2,6.12,6.12,0,0,0-3.3-2.1c-2.3-.7-7.5-2.2-7.5-0.5,1.4,0.9,2.5,4.1,3.9,5.5a18.75,18.75,0,0,0-5.1,6.8,8.9,8.9,0,0,0-2.3,1.1c-0.5.5-.5,5.4,0,5.8a8,8,0,0,0,2.6.9,13.68,13.68,0,0,0,4.8,5.8c-0.1,1.7-.2,4.5.1,4.8,0.5,0.5,4.8.5,5.3,0,0.2-.2,1-1.2,1.9-2.2a14.77,14.77,0,0,0,2.1.1,8.6,8.6,0,0,0,1.6-.1c0.8,0.9,1.4,1.9,1.6,2.1,0.5,0.5,4.9.5,5.3,0,0.3-.3.2-2.9,0.1-4.6a12.68,12.68,0,0,0,6-10.6C48,617.2,41.4,611.2,33.2,611.2Zm7.7,22-1,.6L40,635c0.1,1.2.1,2.2,0.1,2.8H37.8a15.5,15.5,0,0,0-1.3-1.7l-0.7-.8-1,.1-1.4.1a12.1,12.1,0,0,1-1.9-.1l-1-.1-0.7.8c-0.6.7-1.2,1.4-1.5,1.8-0.3,0-.7.1-1.4,0.1H26c0-.6,0-1.5.1-3l0.1-1.1-0.9-.6a11.24,11.24,0,0,1-4.1-5l-0.4-.9-1-.2c-0.5-.1-1-0.3-1.4-0.4a17.09,17.09,0,0,1,0-3.2,10.4,10.4,0,0,0,1.2-.5l0.8-.3,0.4-.8a16.19,16.19,0,0,1,4.5-6.1l1.7-1.4-1.5-1.6a16.39,16.39,0,0,1-1.5-2.2,0.76,0.76,0,0,1-.2-0.4,31.77,31.77,0,0,1,3.3.9,4.41,4.41,0,0,1,2.3,1.5l0.7,0.9,1.1-.2a16.42,16.42,0,0,1,2.3-.2c7,0,12.8,5,12.8,11.2a12,12,0,0,1-5.4,8.8h0ZM37.8,616c-2.4-.7-5,0.3-5.1,1s2.5-.2,4.8.5,4.6,3.7,4.8,3S40.2,616.8,37.8,616ZM26,618.8a1.24,1.24,0,0,0-1.2,1.28v0a1.2,1.2,0,1,0,2.4,0h0A1.09,1.09,0,0,0,26,618.8Z" transform="translate(0)"/><path class="g" d="M32,666a32,32,0,1,0,32,32A32,32,0,0,0,32,666Zm0,59a27,27,0,1,1,27-27h0A27,27,0,0,1,32,725Zm1.2-39.8a21.11,21.11,0,0,0-2.6.2,6.12,6.12,0,0,0-3.3-2.1c-2.3-.7-7.5-2.2-7.5-0.5,1.4,0.9,2.5,4.1,3.9,5.5a18.75,18.75,0,0,0-5.1,6.8,8.9,8.9,0,0,0-2.3,1.1c-0.5.5-.5,5.4,0,5.8a8,8,0,0,0,2.6.9,13.68,13.68,0,0,0,4.8,5.8c-0.1,1.7-.2,4.5.1,4.8,0.5,0.5,4.8.5,5.3,0,0.2-.2,1-1.2,1.9-2.2a14.77,14.77,0,0,0,2.1.1,8.6,8.6,0,0,0,1.6-.1c0.8,0.9,1.4,1.9,1.6,2.1,0.5,0.5,4.9.5,5.3,0,0.3-.3.2-2.9,0.1-4.6a12.68,12.68,0,0,0,6-10.6C48,691.2,41.4,685.2,33.2,685.2Zm7.7,22-1,.6L40,709c0.1,1.2.1,2.2,0.1,2.8H37.8a15.5,15.5,0,0,0-1.3-1.7l-0.7-.8-1,.1-1.4.1a12.1,12.1,0,0,1-1.9-.1l-1-.1-0.7.8c-0.6.7-1.2,1.4-1.5,1.8-0.3,0-.7.1-1.4,0.1H26c0-.6,0-1.5.1-3l0.1-1.1-0.9-.6a11.24,11.24,0,0,1-4.1-5l-0.4-.9-1-.2c-0.5-.1-1-0.3-1.4-0.4a17.09,17.09,0,0,1,0-3.2,10.4,10.4,0,0,0,1.2-.5l0.8-.3,0.4-.8a16.19,16.19,0,0,1,4.5-6.1l1.7-1.4-1.5-1.6a16.39,16.39,0,0,1-1.5-2.2,0.76,0.76,0,0,1-.2-0.4,31.77,31.77,0,0,1,3.3.9,4.41,4.41,0,0,1,2.3,1.5l0.7,0.9,1.1-.2a16.42,16.42,0,0,1,2.3-.2c7,0,12.8,5,12.8,11.2a12,12,0,0,1-5.4,8.8h0ZM37.8,690c-2.4-.7-5,0.3-5.1,1s2.5-.2,4.8.5,4.6,3.7,4.8,3S40.2,690.8,37.8,690ZM26,692.8a1.24,1.24,0,0,0-1.2,1.28v0a1.2,1.2,0,1,0,2.4,0h0A1.09,1.09,0,0,0,26,692.8Z" transform="translate(0)"/><path class="g" d="M32,740a32,32,0,1,0,32,32A32,32,0,0,0,32,740Zm0,59a27,27,0,1,1,27-27h0A27,27,0,0,1,32,799Zm8.9-11c0.7,0,7.1-4.7,7.1-5.3s-7.2-5.1-7.8-5.1-2.7,2.5-3.3,2.8-4.1.2-8-3.7-5.2-8.4-5.2-9.1,3.3-2.9,3.3-3.4-4.3-8.1-5-8.1-6.1,6.6-6.1,7.1,0.5,7.6,9.4,16.5S40.2,788,40.9,788ZM32,814a32,32,0,1,0,32,32A32,32,0,0,0,32,814Zm0,59a27,27,0,1,1,27-27h0A27,27,0,0,1,32,873Zm0-37H16v20H48V836H32Zm0,2H43.2L32,846l-11.2-8H32Zm-14,.7,6.8,4.6L18,850.7v-12ZM32,854H20.4l5.7-9.9,5.9,4,5.9-4,5.7,9.9H32Zm14-3.3-6.8-7.4,6.8-4.6v12Z" transform="translate(0)"/><path class="d" d="M0,888H64v64H0V888Z" transform="translate(0)"/><path class="g" d="M48,914L32,930,16,914H48Z" transform="translate(0)"/><path class="h" d="M0,962H64v64H0V962Z" transform="translate(0)"/><path class="g" d="M48,988l-16,16L16,988H48Z" transform="translate(0)"/><path class="h" d="M32,1122.8a32,32,0,1,0,32,32A32,32,0,0,0,32,1122.8Zm0,59a27,27,0,1,1,27-27h0A27,27,0,0,1,32,1181.8Zm-2-29.6,0.8,10.6h2.4l0.8-10.7v-13.3H30v13.4Zm0,14.6h4v4H30v-4Z" transform="translate(0)"/><path class="f" d="M32,1196.8a32,32,0,1,1-32,32A32,32,0,0,1,32,1196.8Zm-0.1,42.7h0.6c2.4,0,2.4,0,2.8-2.4a9.62,9.62,0,0,1,3.2-5.9c1.3-1.1,2.5-2.3,3.8-3.4,4.3-3.7,3.9-11.5.7-15.3-3.4-4.1-9.9-5.6-15.7-3.5-5.4,1.9-8.2,6.2-8.6,11.9a2,2,0,0,0,.8,1.4,26.77,26.77,0,0,0,4.9-.1c0.4,0,.8-0.9,1-1.5,0.4-1.1.5-2.3,1-3.4,1.1-2.6,3.4-3.9,6.5-3.6a5.72,5.72,0,0,1,5.1,4.6,7.14,7.14,0,0,1-2.2,7.3l-2.4,2.1a12,12,0,0,0-4.4,8.4C28.6,1239.2,28.8,1239.5,31.9,1239.5Zm-0.1,4.1H30.5c-2.2,0-2.4.2-2.4,2.4v2.9a1.36,1.36,0,0,0,1.5,1.6c1.3,0.1,2.7,0,4,0a1.65,1.65,0,0,0,1.9-2v-1.3C35.5,1243.6,35.5,1243.6,31.8,1243.6Z" transform="translate(0)"/><path class="h" d="M0,1395.8v-44.7H0.1c2.1-.4,4.3-0.8,6.4-1.1s4.1-.7,6.1-1.1c2.4-.4,4.7-0.8,7.1-1.3,2.6-.5,5.3-0.9,7.9-1.4s5.3-1,8-1.4c0.2,0,.4-0.1.7-0.1v5.6c0,0.2,0,.2.3,0.2H60.9a3.18,3.18,0,0,1,1.4.2,2.7,2.7,0,0,1,1.8,2.7v40.4a3.37,3.37,0,0,1-.5,1.7,3,3,0,0,1-2.5,1.2H36.7c-0.3,0-.3,0-0.3.3v5.6H36.3l-3.4-.6c-2.4-.4-4.7-0.8-7.1-1.3-1.8-.3-3.7-0.7-5.5-1s-3.7-.7-5.6-1c-2.5-.5-5.1-0.9-7.6-1.4s-4.8-1.1-7.1-1.5H0Zm61.4-1.6v-41.4H36.5c-0.2,0-.2,0-0.2.2v3.3c0,0.2,0,.2.2,0.2H45v5.2H36.2v1.7c0,0.2,0,.2.3,0.2H45v5.2H36.5c-0.2,0-.2,0-0.2.2v1.7c0,0.2,0,.2.2,0.2H45v4.9c0,0.3,0,.3-0.3.3H36.4c-0.2,0-.2,0-0.2.2v1.6a0.16,0.16,0,0,0,.11.2H45v5.2H36.5c-0.2,0-.2,0-0.2.2v1.4c0,0.2,0,.2.2,0.2H45v5.2H36.5c-0.2,0-.2,0-0.2.2v3.3c0,0.2,0,.2.2,0.2H61.2a0.16,0.16,0,0,0,.11.2H61.4Zm-44.8-19a6.47,6.47,0,0,0,.4,1.3l3,6.3a0.34,0.34,0,0,0,.3.2h0.8c0.6,0,1.3.1,1.9,0.1,0.4,0,.9.1,1.3,0.1a2.77,2.77,0,0,1,.9.1,0.35,0.35,0,0,0-.1-0.2c-0.3-.6-0.7-1.2-1-1.8l-4.5-8.1a0.45,0.45,0,0,1,0-.5c1.8-3.2,3.6-6.5,5.4-9.7a0.2,0.2,0,0,1,.1-0.2,3.4,3.4,0,0,0-1,.1c-0.8.1-1.6,0.1-2.4,0.2-0.4,0-.8.1-1.2,0.1a0.25,0.25,0,0,0-.3.19h0c-0.6,1.3-1.3,2.6-1.9,4-0.3.7-.7,1.4-1,2.1-0.2.4-.3,0.9-0.5,1.4a9.29,9.29,0,0,0-.4-1.3c-0.5-1.2-1.1-2.5-1.6-3.7l-0.9-2.1c0-.1-0.1-0.2-0.2-0.1a1.27,1.27,0,0,0-.6.1c-0.9.1-1.9,0.1-2.8,0.2a2.77,2.77,0,0,0-.9.1c0,0.1.1,0.1,0.1,0.2,0.3,0.5.6,1.1,0.9,1.6,1.2,2.4,2.5,4.8,3.7,7.2v0.2c-0.7,1.2-1.4,2.4-2,3.6-1,1.7-2,3.5-2.9,5.2,0,0.1-.1.1-0.1,0.2,0.4,0,.8.1,1.1,0.1a4.87,4.87,0,0,1,1.2.1c0.6,0,1.2.1,1.8,0.1,0.2,0,.2,0,0.3-0.2,0.7-1.4,1.3-2.7,2-4.1a16.27,16.27,0,0,0,1.1-3.1h0Zm30.7-18.8h10v5.2H47.5c-0.2,0-.2,0-0.2-0.2v-5Zm10,28.8v5.2H47.5c-0.2,0-.2,0-0.2-0.2v-4.8c0-.2,0-0.2.2-0.2h9.8Zm-10-16.3v-5.2h10v5.2h-10Zm10,7.3h-10V1371h10v5.2h0Zm0,2v5.2h-10v-5c0-.2,0-0.2.2-0.2h9.8Zm-0.5-83.1c1,0.1,1.8.1,2.6,0.2a4.91,4.91,0,0,1,4.6,5.2v17.3c0,4-2.5,6.4-6.5,6.4h-4v10.4H10.6v-10.4H6.8c-4.4,0-6.7-2.4-6.8-6.8v-16.5q0-5.4,5.4-5.7c0.5,0,1.1-.1,1.9-0.1a21.42,21.42,0,0,1,.1-4.4,7,7,0,0,1,1.9-3.5,3,3,0,0,0,1.2-2.5V1271c0.9,0,1.5-.1,2.2-0.1H38.4a4.94,4.94,0,0,1,3,1.2c3.5,3.3,6.9,6.7,10.4,10.1a3.66,3.66,0,0,1,1.2,1.3c0.8,3.7,5.3,6.1,3.7,10.7a1.53,1.53,0,0,0,.1.9h0Zm-7.5,19.5H14.8v16H49.3v-16h0ZM37,1286.7v-11.5H14.7v20H49.1v-8.4C45.2,1286.7,41.3,1286.7,37,1286.7Zm-26.4,23.8H53.5v8.7c1.2,0,2.3-.1,3.3,0,1.7,0.1,2.3-.6,2.2-2.3-0.1-2.6,0-5.3,0-7.9v-4.6H5.1c0,4.5-.1,8.9.1,13.3a2.34,2.34,0,0,0,1.5,1.4,12.75,12.75,0,0,0,2,.1c1.5,0.2,2-.5,1.9-2C10.5,1315.1,10.6,1312.9,10.6,1310.5Zm29.5-35v7.9h7.3C45.2,1281,42.7,1278.3,40.1,1275.5Z" transform="translate(0)"/><path class="d" d="M40.7,1505.3a5.79,5.79,0,0,1,0-5.7l16.8-25.2-16.8-25.2a5.79,5.79,0,0,1,0-5.7c1-1.6,2.7-1.6,3.8,0l18.7,28a5.79,5.79,0,0,1,0,5.7l-18.7,28a2.28,2.28,0,0,1-1.9,1.2,2.17,2.17,0,0,1-1.9-1.1h0Z" transform="translate(0)"/><path class="h" d="M32,1042.5a32,32,0,1,0,32,32A32,32,0,0,0,32,1042.5Zm0,59a27,27,0,1,1,27-27h0A27,27,0,0,1,32,1101.5Zm8-43H20v32H44v-27.4Zm-18,30v-28H38v4h4v24H22Zm2-12H40v2H24v-2Zm0-4H40v2H24v-2Zm0-6h8v2H24v-2Zm0-4h4v2H24v-2Zm0,18H40v2H24v-2Zm0,4H40v2H24v-2ZM10.1,1621.6a10.07,10.07,0,0,0-10.1,10s0,0,0,.06v53.9a10.07,10.07,0,0,0,10,10.1H64v-74.1H10.1ZM57.3,1689H10.1a3.4,3.4,0,0,1,0-6.8H57.3v6.8Zm0-13.5H10.1a9.74,9.74,0,0,0-3.4.6v-44.4a3.37,3.37,0,0,1,3.34-3.4H57.3v47.2h0ZM6.4,1602v-41a9.63,9.63,0,0,0-6.4,9v32a9.6,9.6,0,0,0,9.6,9.6h32a9.54,9.54,0,0,0,9-6.4H9.6a3.16,3.16,0,0,1-3.2-3.12S6.4,1602,6.4,1602Zm48-54.4h-32a9.6,9.6,0,0,0-9.6,9.6v32a9.6,9.6,0,0,0,9.6,9.6h32a9.6,9.6,0,0,0,9.6-9.6v-32A9.6,9.6,0,0,0,54.4,1547.6Zm3.2,41.6a3.16,3.16,0,0,1-3.12,3.2H22.4a3.16,3.16,0,0,1-3.2-3.12s0-.05,0-0.08v-32a3.16,3.16,0,0,1,3.12-3.2H54.4a3.16,3.16,0,0,1,3.2,3.12s0,0.05,0,.08v32h0ZM45.3,1718.6v-4.8a8,8,0,0,0-8-8H8a8,8,0,0,0-8,8v21.3a8,8,0,0,0,8,8H37.3a8,8,0,0,0,8-8v-4.8L64,1740.5v-32l-18.7,10.1h0ZM40,1735a2.69,2.69,0,0,1-2.68,2.7H8A2.69,2.69,0,0,1,5.3,1735s0,0,0,0v-21.3A2.69,2.69,0,0,1,8,1711H37.3a2.69,2.69,0,0,1,2.7,2.68s0,0,0,0V1735Zm18.7-3.6-12.9-7,12.9-7v14Z" transform="translate(0)"/><path class="i" d="M0,1806.4v46.4H64v-46.5ZM5.8,1818h5.8v5.7H5.8V1818Zm17.4,17.5H17.5v-5.9h5.7v5.9Zm5.8-5.9h5.9v5.9H29v-5.9Zm-5.8,11.7v5.6H17.5v-5.6h5.7Zm5.8,0h5.9v5.6H29v-5.6Zm11.7,0h5.7v5.6H40.7v-5.6Zm0-5.8v-5.9h5.7v5.9H40.7Zm0-11.8V1818h5.7v5.7H40.7Zm-5.8,0H29V1818h5.9v5.7h0Zm-11.7,0H17.5V1818h5.7v5.7h0Zm-17.4,5.9h5.8v5.9H5.8v-5.9Zm0,11.7h5.8v5.6H5.8v-5.6Zm52.4,5.6H52.3v-5.6h5.9v5.6Zm0-11.4H52.3v-5.9h5.9v5.9Zm0-11.8H52.3V1818h5.9v5.7h0ZM52.3,1789v-5.9H46.5v5.9h-29v-5.9H11.6v5.9H0v11.6H64V1789H52.3Z" transform="translate(0)"/><path class="d" d="M61.6,1933.7a2.58,2.58,0,0,1-2.1-1.3L52,1918.1l-7.5,14.3a2.23,2.23,0,0,1-3.3.9,3,3,0,0,1-.8-3.8l9.6-18.3a2.33,2.33,0,0,1,2.1-1.3,2.45,2.45,0,0,1,2.1,1.3l9.6,18.3A2.68,2.68,0,0,1,61.6,1933.7Z" transform="translate(0)"/><path class="d" d="M52,1974a2.58,2.58,0,0,1-2.1-1.3l-9.6-18.3a3,3,0,0,1,.8-3.8,2.23,2.23,0,0,1,3.3.9l7.5,14.3,7.5-14.3a2.23,2.23,0,0,1,3.3-.9,3,3,0,0,1,.8,3.8l-9.6,18.3A2.05,2.05,0,0,1,52,1974Z" transform="translate(0)"/><path class="d" d="M61.6,2098a2.58,2.58,0,0,1-2.1-1.3L52,2082.4l-7.5,14.3a2.23,2.23,0,0,1-3.3.9,3,3,0,0,1-.8-3.8l9.6-18.3a2.33,2.33,0,0,1,2.1-1.3,2.45,2.45,0,0,1,2.1,1.3l9.6,18.3A2.68,2.68,0,0,1,61.6,2098Z" transform="translate(0)"/><path class="d" d="M52,2057.7a2.58,2.58,0,0,1-2.1-1.3l-9.6-18.3a3,3,0,0,1,.8-3.8,2.23,2.23,0,0,1,3.3.9l7.5,14.3,7.5-14.3a2.23,2.23,0,0,1,3.3-.9,3,3,0,0,1,.8,3.8l-9.6,18.3A2,2,0,0,1,52,2057.7Z" transform="translate(0)"/><path class="g" d="M40.64,2701.76v-6.38a8.5,8.5,0,0,0-17,0v6.38a3.19,3.19,0,0,0-3.18,3.19v12.75a3.19,3.19,0,0,0,3.18,3.19h17a3.19,3.19,0,0,0,3.19-3.19v-12.75a3.19,3.19,0,0,0-3.19-3.19h0Zm-14.87-6.38a6.38,6.38,0,0,1,12.76,0v6.38H25.77v-6.38Zm15.94,22.32a1.06,1.06,0,0,1-1.06,1.06h-17a1.07,1.07,0,0,1-1.06-1.06V2705a1.06,1.06,0,0,1,1.06-1.06h17a1.06,1.06,0,0,1,1.06,1.06h0v12.75Zm-8.5-7.15v-2.42a1.06,1.06,0,1,0-2.12,0h0v2.42a2.12,2.12,0,1,0,3.19,1.83,2.16,2.16,0,0,0-1.07-1.83h0Z" transform="translate(0)"/><path class="g" d="M32.15,2671.89a32,32,0,1,0,32,32A32,32,0,0,0,32.15,2671.89Zm0,59a27,27,0,1,1,27-27,27,27,0,0,1-27,27h0Z" transform="translate(0)"/><g class="j"><path class="g" d="M32.8,2915.32a1.09,1.09,0,0,0-1.73,0c-0.33.48-8,11.9-8,22.06a8.9,8.9,0,0,0,7.85,8.83v1.11a1.05,1.05,0,1,0,2.1,0v-1.11a8.91,8.91,0,0,0,7.85-8.83c0-10.16-7.71-21.58-8-22.06H32.8Zm0.2,28.77v-3.67l2.83-2.83a1,1,0,0,0-1.48-1.48L33,2937.46v-4.37l2.83-2.83a1,1,0,0,0-1.48-1.48L33,2930.14v-5.85a1.05,1.05,0,1,0-2.1,0h0v5.85l-1.35-1.36a1,1,0,0,0-1.48,1.48l2.83,2.83v4.37l-1.35-1.35a1,1,0,0,0-1.48,1.48l2.83,2.83v3.67a6.81,6.81,0,0,1-5.75-6.72c0-7.55,4.79-16.22,6.8-19.51,2,3.3,6.8,12,6.8,19.51a6.8,6.8,0,0,1-5.75,6.72h0Z" transform="translate(0)"/></g><path class="g" d="M32.15,2899.89a32,32,0,1,0,32,32A32,32,0,0,0,32.15,2899.89Zm0,59a27,27,0,1,1,27-27,27,27,0,0,1-27,27h0Z" transform="translate(0)"/><path class="g" d="M32.15,2480.08c5.12,0,9.28-5.09,9.28-11.34s-4.16-11.34-9.28-11.34a8.48,8.48,0,0,0-6.64,3.41,12.73,12.73,0,0,0-2.64,7.94c0,6.24,4.16,11.33,9.28,11.33h0Zm0-20.63c4,0,7.21,4.16,7.21,9.28s-3.24,9.28-7.21,9.28-7.22-4.16-7.22-9.28,3.24-9.28,7.22-9.28h0ZM39.36,2478a1,1,0,0,0,0,2.06,7.23,7.23,0,0,1,7.22,7.21,1,1,0,0,1-1,1H18.74a1,1,0,0,1-1-1,7.22,7.22,0,0,1,7.21-7.21,1,1,0,0,0,0-2.06,9.29,9.29,0,0,0-9.28,9.28,3.1,3.1,0,0,0,3.09,3.1H45.54a3.1,3.1,0,0,0,3.1-3.1h0a9.29,9.29,0,0,0-9.28-9.28h0Z" transform="translate(0)"/><path class="g" d="M32.15,2443.89a32,32,0,1,0,32,32A32,32,0,0,0,32.15,2443.89Zm0,59a27,27,0,1,1,27-27h0A27,27,0,0,1,32.15,2502.89Z" transform="translate(0)"/><path class="f" d="M40.64,2587.76v-6.38a8.5,8.5,0,1,0-17,0v6.38a3.19,3.19,0,0,0-3.18,3.19v12.75a3.19,3.19,0,0,0,3.18,3.19h17a3.19,3.19,0,0,0,3.19-3.19v-12.75a3.19,3.19,0,0,0-3.19-3.19h0Zm-14.87-6.38a6.38,6.38,0,0,1,12.76,0v6.38H25.77v-6.38Zm15.94,22.32a1.06,1.06,0,0,1-1.06,1.06h-17a1.07,1.07,0,0,1-1.06-1.06V2591a1.06,1.06,0,0,1,1.06-1.06h17a1.06,1.06,0,0,1,1.06,1.06h0v12.75Zm-8.5-7.15v-2.42a1.06,1.06,0,1,0-2.12,0h0v2.42a2.12,2.12,0,1,0,3.19,1.83,2.16,2.16,0,0,0-1.07-1.83h0Z" transform="translate(0)"/><path class="f" d="M32.15,2557.89a32,32,0,1,0,32,32A32,32,0,0,0,32.15,2557.89Zm0,59a27,27,0,1,1,27-27,27,27,0,0,1-27,27h0Z" transform="translate(0)"/><g class="k"><path class="f" d="M32.8,2801.32a1.09,1.09,0,0,0-1.73,0c-0.33.48-8,11.9-8,22.06a8.9,8.9,0,0,0,7.85,8.83v1.11a1.05,1.05,0,1,0,2.1,0v-1.11a8.91,8.91,0,0,0,7.85-8.83c0-10.16-7.71-21.58-8-22.06H32.8Zm0.2,28.77v-3.67l2.83-2.83a1,1,0,0,0-1.48-1.48L33,2823.46v-4.37l2.83-2.83a1,1,0,0,0-1.48-1.48L33,2816.14v-5.85a1.05,1.05,0,1,0-2.1,0v5.85l-1.35-1.36a1,1,0,0,0-1.48,1.48l2.83,2.83v4.37l-1.35-1.35a1,1,0,0,0-1.48,1.48h0l2.83,2.83v3.67a6.81,6.81,0,0,1-5.75-6.72c0-7.55,4.79-16.22,6.8-19.51,2,3.3,6.8,12,6.8,19.51a6.8,6.8,0,0,1-5.75,6.72h0Z" transform="translate(0)"/></g><path class="f" d="M32.15,2785.89a32,32,0,1,0,32,32A32,32,0,0,0,32.15,2785.89Zm0,59a27,27,0,1,1,27-27,27,27,0,0,1-27,27h0Z" transform="translate(0)"/><path class="f" d="M32.15,2366.08c5.12,0,9.28-5.09,9.28-11.34s-4.16-11.34-9.28-11.34a8.48,8.48,0,0,0-6.64,3.41,12.73,12.73,0,0,0-2.64,7.94c0,6.24,4.16,11.33,9.28,11.33h0Zm0-20.63c4,0,7.21,4.16,7.21,9.28s-3.24,9.28-7.21,9.28-7.22-4.16-7.22-9.28,3.24-9.28,7.22-9.28h0ZM39.36,2364a1,1,0,0,0,0,2.06,7.23,7.23,0,0,1,7.22,7.21,1,1,0,0,1-1,1H18.74a1,1,0,0,1-1-1,7.22,7.22,0,0,1,7.21-7.21,1,1,0,0,0,0-2.06,9.29,9.29,0,0,0-9.28,9.28,3.1,3.1,0,0,0,3.09,3.1H45.54a3.1,3.1,0,0,0,3.1-3.1h0a9.29,9.29,0,0,0-9.28-9.28h0Z" transform="translate(0)"/><path class="f" d="M32.15,2329.89a32,32,0,1,0,32,32A32,32,0,0,0,32.15,2329.89Zm0,59a27,27,0,1,1,27-27,27,27,0,0,1-27,27h0Z" transform="translate(0)"/></svg>
