<?xml version="1.0" encoding="utf-8"?>
<!-- Generator: Adobe Illustrator 18.1.1, SVG Export Plug-In . SVG Version: 6.00 Build 0)  -->
<!DOCTYPE svg PUBLIC "-//W3C//DTD SVG 1.1//EN" "http://www.w3.org/Graphics/SVG/1.1/DTD/svg11.dtd">
<svg version="1.1" id="Layer_1" xmlns="http://www.w3.org/2000/svg" xmlns:xlink="http://www.w3.org/1999/xlink" x="0px" y="0px"
	 width="64.1px" height="2199.2px" viewBox="-546 -1168.4 64.1 2199.2" enable-background="new -546 -1168.4 64.1 2199.2"
	 xml:space="preserve">
<path fill="#DDDDDD" d="M-514-1094.4c-17.6,0-32,14.4-32,32s14.4,32,32,32c17.6,0,32-14.4,32-32S-496.4-1094.4-514-1094.4z
	 M-514-1035.4c-15,0-27-12-27-27s12-27,27-27s27,12,27,27S-499-1035.4-514-1035.4z"/>
<path fill="#AAAAAA" d="M-505.2-1056.2c-2-0.4-4.8-2.2-4.8-3.2v-2.2c0-0.8,1-2.2,1.6-3.6c0-0.2,0.4,0,0.6-0.4c0.6-0.6,0.6-1.6,0.6-2
	c0.2-0.6-0.6-0.8-0.6-0.8s0.6-3.6,0-5.8c-0.8-3-4.6-4.6-6.2-4.6s-5.4,1.6-6.2,4.6c-0.6,2.2,0,5.8,0,5.8s-0.8,0-0.6,0.8
	c0.2,0.4,0.2,1.4,0.8,2c0.2,0.4,0.4,0.2,0.4,0.4c0.4,1.4,1.6,2.8,1.6,3.6v2.2c0,0.8-2.8,2.8-4.8,3.2c-2.6,0.4-3.8,2.2-3.2,6.6
	c0.4,2.2,6.2,3.2,12,3c5.8,0,11.8-0.8,12-3C-501.4-1054-502.6-1055.6-505.2-1056.2z"/>
<path fill="#CD5806" d="M-546-1168.4v64h64v-64H-546z M-497.8-1126.5l-6.3,6.3l-9.9-9.9l-9.9,9.9l-6.3-6.3l9.9-9.9l-9.9-9.9l6.3-6.3
	l9.9,9.9l9.9-9.9l6.3,6.3l-9.9,9.9L-497.8-1126.5z"/>
<path fill="#003E51" d="M-546,989.8v-10.2h64v10.2H-546z M-546,1010.3v-10.2h64v10.2H-546z M-546,1030.8v-10.2h64v10.2H-546z"/>
<path fill="#DDDDDD" d="M-528.8-959.1v-58.6c0-1.6,1.3-2.7,2.7-2.7h23.8l20.3,20.3v41c0,1.6-1.3,2.7-2.7,2.7h-41.4
	C-527.7-956.4-528.8-957.5-528.8-959.1z"/>
<path fill="#AAAAAA" d="M-502.3-1020.4l20.3,20.3h-17.6c-1.6,0-2.7-1.3-2.7-2.7V-1020.4z"/>
<path fill="#CD5806" d="M-515.4-970.8c0,0.9-0.3,1.6-1,2.1c-0.6,0.4-1.3,0.7-2.4,0.7h-1.4v4.3h-1.4v-9.8h2.6c1,0,1.8,0.3,2.4,0.7
	C-515.8-972.3-515.4-971.6-515.4-970.8z M-517.4-969.5c0.4-0.3,0.6-0.7,0.6-1.3c0-0.6-0.1-1-0.6-1.3c-0.4-0.3-0.9-0.4-1.4-0.4h-1.3
	v3.4h1.3C-518.3-969.1-517.8-969.2-517.4-969.5z M-507.3-972.3c1,1,1.6,2.1,1.6,3.6c0,1.4-0.6,2.7-1.6,3.6c-1,0.9-2.1,1.3-3.7,1.3
	h-3v-9.8h3C-509.6-973.6-508.3-973.2-507.3-972.3L-507.3-972.3z M-507.3-968.6c0-1.1-0.4-2.1-1.1-2.8c-0.7-0.6-1.6-0.9-2.6-0.9h-1.6
	v7.4h1.6c1.1,0,2-0.3,2.6-0.9C-507.6-966.6-507.3-967.5-507.3-968.6z M-498.8-973.6v1.1h-4.1v3.3h3.8v1.1h-3.8v4.3h-1.4v-9.8H-498.8
	L-498.8-973.6z"/>
<path fill="#AAAAAA" d="M-523.9-927.1l-2.8,2.8l9.9,9.9l-9.9,9.9l2.8,2.8l9.9-9.9l9.9,9.9l2.8-2.8l-9.9-9.9l9.9-9.9l-2.8-2.8
	l-9.9,9.9L-523.9-927.1z M-536.6-937c-12.5,12.5-12.5,32.8,0,45.3s32.8,12.5,45.3,0s12.5-32.8,0-45.3
	C-503.9-949.4-524.1-949.4-536.6-937z M-495-895.3c-10.5,10.5-27.6,10.5-38.2,0c-10.5-10.5-10.5-27.6,0-38.2
	c10.5-10.6,27.6-10.5,38.2,0C-484.4-923-484.5-905.9-495-895.3z"/>
<path fill="#666666" d="M-514-872.4c-17.7,0-32,14.3-32,32s14.3,32,32,32s32-14.3,32-32S-496.3-872.4-514-872.4z M-514-813.4
	c-14.9,0-27-12.1-27-27s12.1-27,27-27c14.9,0,27,12.1,27,27S-499.1-813.4-514-813.4z M-514-828l-13.1-8.2l-2.9,1.7l16,10l16-10
	l-2.9-1.8L-514-828z M-514-834l-13.1-8.2l-2.9,1.7l16,10l16-9.9l-3-1.9L-514-834z M-530-846.4l16,10l16-10l-16-10L-530-846.4z"/>
<path fill="#A99A6F" d="M-514-798.4c-17.7,0-32,14.3-32,32c0,17.7,14.3,32,32,32s32-14.3,32-32C-482-784.1-496.3-798.4-514-798.4z
	 M-514-739.4c-14.9,0-27-12.1-27-27c0-14.9,12.1-27,27-27c14.9,0,27,12.1,27,27C-487-751.5-499.1-739.4-514-739.4z M-514-754
	l-13.1-8.2l-2.9,1.7l16,10l16-10l-2.9-1.8L-514-754z M-514-760l-13.1-8.2l-2.9,1.7l16,10l16-9.9l-3-1.9L-514-760z M-530-772.4l16,10
	l16-10l-16-10L-530-772.4z"/>
<path fill="#666666" d="M-514-724.4c-17.7,0-32,14.3-32,32c0,17.7,14.3,32,32,32s32-14.3,32-32C-482-710.1-496.3-724.4-514-724.4z
	 M-514-665.4c-14.9,0-27-12.1-27-27c0-14.9,12.1-27,27-27c14.9,0,27,12.1,27,27C-487-677.5-499.1-665.4-514-665.4z M-511.1-702.4
	c0,0-7.3-0.1-12.6,3.3l-6.6,10.7c0,0,4.7-5.4,9.4-7.2c5.1-1.9,9.8-0.8,9.8-0.8v6l12-8l-12-10C-511.1-708.4-511.1-702.4-511.1-702.4z
	 M-508.3-689.2c-5.1,1.9-10.7,0.8-10.7,0.8v-6l-12,8l12,10v-6c0,0,8.4,0.1,13.7-3.3l6.8-10.7C-498.5-696.4-503.7-691-508.3-689.2z"
	/>
<path fill="#A99A6F" d="M-514-650.4c-17.7,0-32,14.3-32,32s14.3,32,32,32s32-14.3,32-32C-482-636.2-496.3-650.4-514-650.4z
	 M-514-591.4c-14.9,0-27-12-27-27s12.1-27,27-27c14.9,0,27,12.1,27,27C-487-603.5-499.1-591.4-514-591.4z M-511.1-628.4
	c0,0-7.3-0.1-12.6,3.3c-5.3,3.4-6.6,10.7-6.6,10.7s4.7-5.4,9.4-7.2c5.1-1.9,9.8-0.8,9.8-0.8v6l12-8l-12-10
	C-511.1-634.4-511.1-628.4-511.1-628.4z M-508.3-615.2c-5.1,1.9-10.7,0.8-10.7,0.8v-6l-12,8l12,10v-6c0,0,8.4,0.1,13.7-3.3l6.8-10.7
	C-498.5-622.5-503.7-617-508.3-615.2z"/>
<path fill="#666666" d="M-514-576.4c-17.7,0-32,14.3-32,32s14.3,32,32,32s32-14.3,32-32C-482-562.2-496.3-576.4-514-576.4z
	 M-514-517.4c-14.9,0-27-12-27-27s12.1-27,27-27c14.9,0,27,12.1,27,27C-487-529.5-499.1-517.4-514-517.4z M-512.8-557.2
	c-0.9,0-1.8,0.1-2.6,0.2c-0.7-0.9-1.8-1.7-3.3-2.1c-2.3-0.7-7.5-2.2-7.5-0.5c1.4,0.9,2.5,4.1,3.9,5.5c-2.1,1.7-3.8,4-5.1,6.8
	c0,0-1.8,0.6-2.3,1.1s-0.5,5.4,0,5.8c0.5,0.5,2.6,0.9,2.6,0.9c1.1,2.4,2.7,4.4,4.8,5.8c-0.1,1.7-0.2,4.5,0.1,4.8
	c0.5,0.5,4.8,0.5,5.3,0c0.2-0.2,1-1.2,1.9-2.2c0.7,0.1,1.4,0.1,2.1,0.1c0.5,0,1.1,0,1.6-0.1c0.8,0.9,1.4,1.9,1.6,2.1
	c0.5,0.5,4.9,0.5,5.3,0c0.3-0.3,0.2-2.9,0.1-4.6c3.7-2.4,6-6.3,6-10.6C-498-551.2-504.6-557.2-512.8-557.2z M-505.1-535.2l-1,0.6
	l0.1,1.2c0.1,1.2,0.1,2.2,0.1,2.8h-2.3c-0.3-0.5-0.8-1.1-1.3-1.7l-0.7-0.8l-1,0.1l-1.4,0.1c-0.6,0-1.3,0-1.9-0.1l-1-0.1l-0.7,0.8
	c-0.6,0.7-1.2,1.4-1.5,1.8c-0.3,0-0.7,0.1-1.4,0.1h-0.9c0-0.6,0-1.5,0.1-3l0.1-1.1l-0.9-0.6c-1.8-1.2-3.2-2.9-4.1-5l-0.4-0.9l-1-0.2
	c-0.5-0.1-1-0.3-1.4-0.4c-0.1-0.9-0.1-2.4,0-3.2c0.3-0.1,0.8-0.3,1.2-0.5l0.8-0.3l0.4-0.8c1.2-2.6,2.7-4.7,4.5-6.1l1.7-1.4l-1.5-1.6
	c-0.4-0.5-1-1.3-1.5-2.2c-0.1-0.1-0.2-0.3-0.2-0.4c1.1,0.2,2.3,0.6,3.3,0.9s1.9,0.9,2.3,1.5l0.7,0.9l1.1-0.2
	c0.7-0.1,1.5-0.2,2.3-0.2c7,0,12.8,5,12.8,11.2C-500-540.6-501.9-537.4-505.1-535.2L-505.1-535.2z M-508.2-552.4
	c-2.4-0.7-5,0.3-5.1,1c-0.2,0.6,2.5-0.2,4.8,0.5c2.4,0.7,4.6,3.7,4.8,3C-503.5-548.6-505.8-551.6-508.2-552.4z M-520-549.6
	c-0.7,0-1.2,0.6-1.2,1.3c0,0.7,0.6,1.3,1.2,1.3s1.2-0.6,1.2-1.3C-518.8-549.4-519.4-549.6-520-549.6z"/>
<path fill="#A99A6F" d="M-514-502.4c-17.7,0-32,14.3-32,32c0,17.7,14.3,32,32,32s32-14.3,32-32C-482-488.2-496.3-502.4-514-502.4z
	 M-514-443.4c-14.9,0-27-12-27-27s12.1-27,27-27c14.9,0,27,12.1,27,27C-487-455.5-499.1-443.4-514-443.4z M-512.8-483.2
	c-0.9,0-1.8,0.1-2.6,0.2c-0.7-0.9-1.8-1.7-3.3-2.1c-2.3-0.7-7.5-2.2-7.5-0.5c1.4,0.9,2.5,4.1,3.9,5.5c-2.1,1.7-3.8,4-5.1,6.8
	c0,0-1.8,0.6-2.3,1.1s-0.5,5.4,0,5.8c0.5,0.5,2.6,0.9,2.6,0.9c1.1,2.4,2.7,4.4,4.8,5.8c-0.1,1.7-0.2,4.5,0.1,4.8
	c0.5,0.5,4.8,0.5,5.3,0c0.2-0.2,1-1.2,1.9-2.2c0.7,0.1,1.4,0.1,2.1,0.1c0.5,0,1.1,0,1.6-0.1c0.8,0.9,1.4,1.9,1.6,2.1
	c0.5,0.5,4.9,0.5,5.3,0c0.3-0.3,0.2-2.9,0.1-4.6c3.7-2.4,6-6.3,6-10.6C-498-477.2-504.6-483.2-512.8-483.2z M-505.1-461.2l-1,0.6
	l0.1,1.2c0.1,1.2,0.1,2.2,0.1,2.8h-2.3c-0.3-0.5-0.8-1.1-1.3-1.7l-0.7-0.8l-1,0.1l-1.4,0.1c-0.6,0-1.3,0-1.9-0.1l-1-0.1l-0.7,0.8
	c-0.6,0.7-1.2,1.4-1.5,1.8c-0.3,0-0.7,0.1-1.4,0.1h-0.9c0-0.6,0-1.5,0.1-3l0.1-1.1l-0.9-0.6c-1.8-1.2-3.2-2.9-4.1-5l-0.4-0.9l-1-0.2
	c-0.5-0.1-1-0.3-1.4-0.4c-0.1-0.9-0.1-2.4,0-3.2c0.3-0.1,0.8-0.3,1.2-0.5l0.8-0.3l0.4-0.8c1.2-2.6,2.7-4.7,4.5-6.1l1.7-1.4l-1.5-1.6
	c-0.4-0.5-1-1.3-1.5-2.2c-0.1-0.1-0.2-0.3-0.2-0.4c1.1,0.2,2.3,0.6,3.3,0.9c1,0.3,1.9,0.9,2.3,1.5l0.7,0.9l1.1-0.2
	c0.7-0.1,1.5-0.2,2.3-0.2c7,0,12.8,5,12.8,11.2C-500-466.6-501.9-463.4-505.1-461.2L-505.1-461.2z M-508.2-478.4
	c-2.4-0.7-5,0.3-5.1,1c-0.2,0.6,2.5-0.2,4.8,0.5c2.4,0.7,4.6,3.7,4.8,3C-503.5-474.6-505.8-477.6-508.2-478.4z M-520-475.6
	c-0.7,0-1.2,0.6-1.2,1.3c0,0.7,0.6,1.3,1.2,1.3s1.2-0.6,1.2-1.3C-518.8-475.4-519.4-475.6-520-475.6z"/>
<path fill="#FFFFFF" d="M-514-428.4c-17.7,0-32,14.3-32,32c0,17.7,14.3,32,32,32s32-14.3,32-32C-482-414.2-496.3-428.4-514-428.4z
	 M-514-369.4c-14.9,0-27-12-27-27s12.1-27,27-27c14.9,0,27,12.1,27,27C-487-381.5-499.1-369.4-514-369.4z M-505.1-380.4
	c0.7,0,7.1-4.7,7.1-5.3s-7.2-5.1-7.8-5.1c-0.6,0-2.7,2.5-3.3,2.8c-0.6,0.3-4.1,0.2-8-3.7c-3.9-3.9-5.2-8.4-5.2-9.1s3.3-2.9,3.3-3.4
	c0.1-0.5-4.3-8.1-5-8.1s-6.1,6.6-6.1,7.1s0.5,7.6,9.4,16.5C-511.8-379.8-505.8-380.4-505.1-380.4z M-514-354.4
	c-17.7,0-32,14.3-32,32s14.3,32,32,32s32-14.3,32-32C-482-340.2-496.3-354.4-514-354.4z M-514-295.4c-14.9,0-27-12-27-27
	s12.1-27,27-27c14.9,0,27,12.1,27,27S-499.1-295.4-514-295.4z M-514-332.4h-16v20h32v-20H-514L-514-332.4z M-514-330.4h11.2l-11.2,8
	l-11.2-8H-514L-514-330.4z M-528-329.7l6.8,4.6l-6.8,7.4V-329.7z M-514-314.4h-11.6l5.7-9.9l5.9,4l5.9-4l5.7,9.9H-514z M-500-317.7
	l-6.8-7.4l6.8-4.6V-317.7z"/>
<path fill="#CD5806" d="M-546-280.4h64v64h-64V-280.4z"/>
<path fill="#FFFFFF" d="M-498-254.4l-16,16l-16-16H-498z"/>
<path fill="#BBBBBB" d="M-546-206.4h64v64h-64V-206.4z"/>
<path fill="#FFFFFF" d="M-498-180.4l-16,16l-16-16H-498z"/>
<path fill="#BBBBBB" d="M-514-45.6c-17.7,0-32,14.3-32,32s14.3,32,32,32s32-14.3,32-32C-482-31.2-496.3-45.6-514-45.6z M-514,13.4
	c-14.9,0-27-12.1-27-27s12.1-27,27-27c14.9,0,27,12.1,27,27S-499.1,13.4-514,13.4z M-516-16.2l0.8,10.6h2.4l0.8-10.7v-13.3h-4V-16.2
	z M-516-1.6h4v4h-4V-1.6z"/>
<path fill="#666666" d="M-514,28.4c17.7,0,32,14.4,32,32.1c0,17.6-14.4,31.9-32.1,31.9c-17.5,0-31.9-14.4-31.9-32
	S-531.6,28.5-514,28.4z M-514.1,71.1h0.6c2.4,0,2.4,0,2.8-2.4c0.3-2.4,1.5-4.3,3.2-5.9c1.3-1.1,2.5-2.3,3.8-3.4
	c4.3-3.7,3.9-11.5,0.7-15.3c-3.4-4.1-9.9-5.6-15.7-3.5c-5.4,1.9-8.2,6.2-8.6,11.9c0,0.5,0.5,1.3,0.8,1.4c1.6,0.1,3.3,0.1,4.9-0.1
	c0.4,0,0.8-0.9,1-1.5c0.4-1.1,0.5-2.3,1-3.4c1.1-2.6,3.4-3.9,6.5-3.6c2.5,0.2,4.5,2,5.1,4.6c0.7,2.9-0.1,5.3-2.2,7.3l-2.4,2.1
	c-2.7,2.2-4,5-4.4,8.4C-517.4,70.8-517.2,71.1-514.1,71.1z M-514.2,75.2h-1.3c-2.2,0-2.4,0.2-2.4,2.4v2.9c0,1.1,0.5,1.6,1.5,1.6
	c1.3,0.1,2.7,0,4,0c1.3,0,2-0.6,1.9-2v-1.3C-510.5,75.2-510.5,75.2-514.2,75.2z"/>
<path fill="#BBBBBB" d="M-546,227.4v-44.7h0.1c2.1-0.4,4.3-0.8,6.4-1.1c2-0.4,4.1-0.7,6.1-1.1c2.4-0.4,4.7-0.8,7.1-1.3
	c2.6-0.5,5.3-0.9,7.9-1.4c2.7-0.5,5.3-1,8-1.4c0.2,0,0.4-0.1,0.7-0.1v5.6c0,0.2,0,0.2,0.3,0.2h24.3c0.5,0,1,0,1.4,0.2
	c1.2,0.5,1.8,1.4,1.8,2.7v40.4c0,0.6-0.2,1.2-0.5,1.7c-0.6,0.8-1.5,1.2-2.5,1.2h-24.4c-0.3,0-0.3,0-0.3,0.3v5.6h-0.1
	c-1.1-0.2-2.3-0.4-3.4-0.6c-2.4-0.4-4.7-0.8-7.1-1.3c-1.8-0.3-3.7-0.7-5.5-1c-1.9-0.3-3.7-0.7-5.6-1c-2.5-0.5-5.1-0.9-7.6-1.4
	C-541.4,228.3-543.7,227.8-546,227.4L-546,227.4z M-484.6,225.8v-41.4h-24.9c-0.2,0-0.2,0-0.2,0.2v3.3c0,0.2,0,0.2,0.2,0.2h8.5v5.2
	h-8.8v1.7c0,0.2,0,0.2,0.3,0.2h8.5v5.2h-8.5c-0.2,0-0.2,0-0.2,0.2v1.7c0,0.2,0,0.2,0.2,0.2h8.5v4.9c0,0.3,0,0.3-0.3,0.3h-8.3
	c-0.2,0-0.2,0-0.2,0.2v1.6c0,0.2,0.1,0.2,0.2,0.2h8.6v5.2h-8.5c-0.2,0-0.2,0-0.2,0.2v1.4c0,0.2,0,0.2,0.2,0.2h8.5v5.2h-8.5
	c-0.2,0-0.2,0-0.2,0.2v3.3c0,0.2,0,0.2,0.2,0.2h24.7C-484.8,225.8-484.7,225.8-484.6,225.8L-484.6,225.8z M-529.4,206.8
	c0.1,0.4,0.2,0.9,0.4,1.3l3,6.3c0.1,0.1,0.1,0.2,0.3,0.2h0.8c0.6,0,1.3,0.1,1.9,0.1c0.4,0,0.9,0.1,1.3,0.1c0.3,0,0.6,0,0.9,0.1
	c0-0.1-0.1-0.2-0.1-0.2c-0.3-0.6-0.7-1.2-1-1.8l-4.5-8.1c-0.1-0.2-0.1-0.3,0-0.5c1.8-3.2,3.6-6.5,5.4-9.7c0-0.1,0-0.1,0.1-0.2
	c-0.3,0-0.7,0-1,0.1c-0.8,0.1-1.6,0.1-2.4,0.2c-0.4,0-0.8,0.1-1.2,0.1c-0.2,0-0.3,0.1-0.3,0.2c-0.6,1.3-1.3,2.6-1.9,4
	c-0.3,0.7-0.7,1.4-1,2.1c-0.2,0.4-0.3,0.9-0.5,1.4c-0.1-0.4-0.2-0.8-0.4-1.3c-0.5-1.2-1.1-2.5-1.6-3.7l-0.9-2.1
	c0-0.1-0.1-0.2-0.2-0.1c-0.2,0-0.4,0-0.6,0.1c-0.9,0.1-1.9,0.1-2.8,0.2c-0.3,0-0.6,0-0.9,0.1c0,0.1,0.1,0.1,0.1,0.2
	c0.3,0.5,0.6,1.1,0.9,1.6c1.2,2.4,2.5,4.8,3.7,7.2v0.2c-0.7,1.2-1.4,2.4-2,3.6c-1,1.7-2,3.5-2.9,5.2c0,0.1-0.1,0.1-0.1,0.2
	c0.4,0,0.8,0.1,1.1,0.1c0.4,0,0.8,0,1.2,0.1c0.6,0,1.2,0.1,1.8,0.1c0.2,0,0.2,0,0.3-0.2c0.7-1.4,1.3-2.7,2-4.1
	C-530.1,208.9-529.6,207.9-529.4,206.8L-529.4,206.8z M-498.7,188h10v5.2h-9.8c-0.2,0-0.2,0-0.2-0.2V188z M-488.7,216.8v5.2h-9.8
	c-0.2,0-0.2,0-0.2-0.2V217c0-0.2,0-0.2,0.2-0.2H-488.7z M-498.7,200.5v-5.2h10v5.2H-498.7z M-488.7,207.8h-10v-5.2h10V207.8z
	 M-488.7,209.8v5.2h-10v-5c0-0.2,0-0.2,0.2-0.2H-488.7z M-489.2,126.7c1,0.1,1.8,0.1,2.6,0.2c2.9,0.4,4.6,2.3,4.6,5.2v17.3
	c0,4-2.5,6.4-6.5,6.4h-4v10.4h-42.9v-10.4h-3.8c-4.4,0-6.7-2.4-6.8-6.8v-16.5c0-3.6,1.8-5.5,5.4-5.7c0.5,0,1.1-0.1,1.9-0.1
	c0-1.5-0.2-3,0.1-4.4c0.3-1.3,1-2.7,1.9-3.5c0.9-0.8,1.2-1.5,1.2-2.5v-13.7c0.9,0,1.5-0.1,2.2-0.1h25.7c1,0,2.2,0.5,3,1.2
	c3.5,3.3,6.9,6.7,10.4,10.1c0.4,0.4,1.1,0.8,1.2,1.3c0.8,3.7,5.3,6.1,3.7,10.7C-489.4,126-489.3,126.3-489.2,126.7L-489.2,126.7z
	 M-496.7,146.2h-34.5v16h34.5V146.2L-496.7,146.2z M-509,118.3v-11.5h-22.3v20h34.4v-8.4C-500.8,118.3-504.7,118.3-509,118.3z
	 M-535.4,142.1h42.9v8.7c1.2,0,2.3-0.1,3.3,0c1.7,0.1,2.3-0.6,2.2-2.3c-0.1-2.6,0-5.3,0-7.9V136h-53.9c0,4.5-0.1,8.9,0.1,13.3
	c0,0.5,0.9,1.2,1.5,1.4s1.3,0,2,0.1c1.5,0.2,2-0.5,1.9-2C-535.5,146.7-535.4,144.5-535.4,142.1z M-505.9,107.1v7.9h7.3
	C-500.8,112.6-503.3,109.9-505.9,107.1z"/>
<path fill="#CD5806" d="M-505.3,336.9c-1-1.6-1-4.1,0-5.7l16.8-25.2l-16.8-25.2c-1-1.6-1-4.1,0-5.7s2.7-1.6,3.8,0l18.7,28
	c1,1.6,1,4.1,0,5.7l-18.7,28c-0.5,0.8-1.2,1.2-1.9,1.2C-504.1,338-504.8,337.7-505.3,336.9L-505.3,336.9z"/>
<path fill="#BBBBBB" d="M-514-125.9c-17.7,0-32,14.3-32,32s14.3,32,32,32s32-14.3,32-32S-496.3-125.9-514-125.9z M-514-66.9
	c-14.9,0-27-12.1-27-27s12.1-27,27-27c14.9,0,27,12.1,27,27S-499.1-66.9-514-66.9z M-506-109.9h-20v32h24v-27.4L-506-109.9z
	 M-524-79.9v-28h16v4h4v24H-524z M-522-91.9h16v2h-16V-91.9z M-522-95.9h16v2h-16V-95.9z M-522-101.9h8v2h-8V-101.9z M-522-105.9h4
	v2h-4V-105.9z M-522-87.9h16v2h-16V-87.9z M-522-83.9h16v2h-16V-83.9z M-535.9,453.2c-5.6,0-10.1,4.5-10.1,10.1v53.9
	c0,5.6,4.5,10.1,10.1,10.1h53.9v-74.1H-535.9z M-488.7,520.6h-47.2c-1.9,0-3.4-1.5-3.4-3.4s1.5-3.4,3.4-3.4h47.2V520.6z
	 M-488.7,507.1h-47.2c-1.2,0-2.3,0.2-3.4,0.6v-44.4c0-1.9,1.5-3.4,3.4-3.4h47.2V507.1L-488.7,507.1z M-539.6,433.6v-41
	c-3.7,1.3-6.4,4.9-6.4,9v32c0,5.3,4.3,9.6,9.6,9.6h32c4.2,0,7.7-2.7,9-6.4h-41C-538.2,436.8-539.6,435.4-539.6,433.6z M-491.6,379.2
	h-32c-5.3,0-9.6,4.3-9.6,9.6v32c0,5.3,4.3,9.6,9.6,9.6h32c5.3,0,9.6-4.3,9.6-9.6v-32C-482,383.5-486.3,379.2-491.6,379.2z
	 M-488.4,420.8c0,1.8-1.4,3.2-3.2,3.2h-32c-1.8,0-3.2-1.4-3.2-3.2v-32c0-1.8,1.4-3.2,3.2-3.2h32c1.8,0,3.2,1.4,3.2,3.2V420.8z
	 M-500.7,550.2v-4.8c0-4.4-3.6-8-8-8H-538c-4.4,0-8,3.6-8,8v21.3c0,4.4,3.6,8,8,8h29.3c4.4,0,8-3.6,8-8v-4.8l18.7,10.2v-32
	L-500.7,550.2L-500.7,550.2z M-506,566.6c0,1.5-1.2,2.7-2.7,2.7H-538c-1.5,0-2.7-1.2-2.7-2.7v-21.3c0-1.5,1.2-2.7,2.7-2.7h29.3
	c1.5,0,2.7,1.2,2.7,2.7V566.6z M-487.3,563l-12.9-7l12.9-7V563z"/>
<g>
	<path fill="#333333" d="M-546,638v46.4h64v-46.5L-546,638z M-540.2,649.6h5.8v5.7h-5.8V649.6z M-522.8,667.1h-5.7v-5.9h5.7V667.1z
		 M-517,661.2h5.9v5.9h-5.9V661.2z M-522.8,672.9v5.6h-5.7v-5.6H-522.8z M-517,672.9h5.9v5.6h-5.9V672.9z M-505.3,672.9h5.7v5.6
		h-5.7V672.9z M-505.3,667.1v-5.9h5.7v5.9H-505.3z M-505.3,655.3v-5.7h5.7v5.7H-505.3z M-511.1,655.3h-5.9v-5.7h5.9V655.3z
		 M-522.8,655.3h-5.7v-5.7h5.7V655.3z M-540.2,661.2h5.8v5.9h-5.8V661.2z M-540.2,672.9h5.8v5.6h-5.8V672.9z M-487.8,678.5h-5.9
		v-5.6h5.9V678.5z M-487.8,667.1h-5.9v-5.9h5.9V667.1z M-487.8,655.3h-5.9v-5.7h5.9V655.3z M-493.7,620.6v-5.9h-5.8v5.9h-29v-5.9
		h-5.9v5.9H-546v11.6h64v-11.6H-493.7z"/>
</g>
<g>
	<path fill="#CD5806" d="M-484.4,765.3c-0.8,0-1.6-0.5-2.1-1.3l-7.5-14.3l-7.5,14.3c-0.7,1.3-2.2,1.7-3.3,0.9
		c-1.1-0.8-1.5-2.5-0.8-3.8l9.6-18.3c0.4-0.8,1.2-1.3,2.1-1.3s1.6,0.5,2.1,1.3l9.6,18.3c0.7,1.3,0.3,3-0.8,3.8
		C-483.6,765.2-484,765.3-484.4,765.3z"/>
	<path fill="#CD5806" d="M-494,805.6c-0.8,0-1.6-0.5-2.1-1.3l-9.6-18.3c-0.7-1.3-0.3-3,0.8-3.8c1.1-0.8,2.6-0.4,3.3,0.9l7.5,14.3
		l7.5-14.3c0.7-1.3,2.2-1.7,3.3-0.9c1.1,0.8,1.5,2.5,0.8,3.8l-9.6,18.3C-492.4,805.1-493.2,805.6-494,805.6z"/>
</g>
<g>
	<path fill="#CD5806" d="M-484.4,929.6c-0.8,0-1.6-0.5-2.1-1.3l-7.5-14.3l-7.5,14.3c-0.7,1.3-2.2,1.7-3.3,0.9
		c-1.1-0.8-1.5-2.5-0.8-3.8l9.6-18.3c0.4-0.8,1.2-1.3,2.1-1.3s1.6,0.5,2.1,1.3l9.6,18.3c0.7,1.3,0.3,3-0.8,3.8
		C-483.6,929.5-484,929.6-484.4,929.6z"/>
	<path fill="#CD5806" d="M-494,889.3c-0.8,0-1.6-0.5-2.1-1.3l-9.6-18.3c-0.7-1.3-0.3-3,0.8-3.8c1.1-0.8,2.6-0.4,3.3,0.9l7.5,14.3
		l7.5-14.3c0.7-1.3,2.2-1.7,3.3-0.9c1.1,0.8,1.5,2.5,0.8,3.8l-9.6,18.3C-492.4,888.8-493.2,889.3-494,889.3z"/>
</g>
</svg>
