<svg xmlns="http://www.w3.org/2000/svg" width="743.1" height="374.4" viewBox="0 0 743.1 374.4"><path d="M105.3 201.2c0-2.9 0-5.7 3.8-5.7 2.3 0 3.3 1.3 3.2 3.7h-2.3c0-1.5-.3-2-.9-2-1.3 0-1.5 1.2-1.5 4s.2 4 1.5 4c1.1 0 1-1.4 1.1-2.2h2.3c0 2.9-1.2 3.9-3.3 3.9-3.9 0-3.9-2.8-3.9-5.7zm14.3 4.1c0 .5.1 1 .1 1.4h-2l-.1-1c-.5.8-1.1 1.2-2 1.2-1.5 0-2-1.1-2-2.5 0-2.5 2-2.6 4-2.6v-.6c0-.7-.1-1.1-.9-1.1-.7 0-.8.6-.8 1.2h-2.1c0-.9.3-1.5.8-1.9.5-.4 1.2-.5 2-.5 2.7 0 3.1 1.2 3.1 2.6v3.8h-.1zm-3.9-1c0 .5.1 1.2.8 1.2 1.3 0 1.1-1.7 1.1-2.5-1.1 0-1.9-.1-1.9 1.3zm7.9-4.5c.2-.4.5-.6.8-.7.3-.2.7-.2 1.1-.2 1 0 1.9.6 1.9 1.7v6.2h-2.1v-5.3c0-.7-.1-1.2-.8-1.2s-.8.5-.8 1.2v5.3h-2.1v-7.8h2.1v.8h-.1zm11.3 5.5c0 .5.1 1 .1 1.4h-2l-.1-1c-.5.8-1.1 1.2-2 1.2-1.5 0-2-1.1-2-2.5 0-2.5 2-2.6 4-2.6v-.6c0-.7-.1-1.1-.9-1.1-.7 0-.8.6-.8 1.2h-2.1c0-.9.3-1.5.8-1.9.5-.4 1.2-.5 2-.5 2.7 0 3.1 1.2 3.1 2.6v3.8h-.1zm-3.9-1c0 .5.1 1.2.8 1.2 1.3 0 1.1-1.7 1.1-2.5-1.1 0-1.9-.1-1.9 1.3zm9.6 2.4v-.9c-.4.7-1 1-1.8 1-2.2 0-2.1-2.5-2.1-4.1 0-1.6-.1-3.9 2.1-3.9.8 0 1.3.2 1.8.9v-4h2.1v11h-2.1zm-.1-3.9c0-1.5 0-2.6-.9-2.6s-.9 1.1-.9 2.6c0 1.9.1 2.7.9 2.7s.9-.8.9-2.7zm9.8 2.5c0 .5.1 1 .1 1.4h-2l-.1-1c-.5.8-1.1 1.2-2 1.2-1.5 0-2-1.1-2-2.5 0-2.5 2-2.6 4-2.6v-.6c0-.7-.1-1.1-.9-1.1-.7 0-.8.6-.8 1.2h-2.1c0-.9.3-1.5.8-1.9.5-.4 1.2-.5 2-.5 2.7 0 3.1 1.2 3.1 2.6v3.8h-.1zm-4-1c0 .5.1 1.2.8 1.2 1.3 0 1.1-1.7 1.1-2.5-1.1 0-1.9-.1-1.9 1.3zm5.9-8.6h2l-1.1 3h-1.5l.6-3zm3.9 8.5c0 .3 0 .7.1.9.1.2.4.4.8.4s.8-.3.8-.8c0-1.6-3.8-1.3-3.8-3.7 0-1.7 1.6-2.2 3-2.2 1.5 0 2.8.7 2.7 2.4h-2.1c0-.5-.1-.9-.2-1-.1-.1-.3-.2-.5-.2-.5 0-.7.3-.7.8 0 1.2 3.8 1.2 3.8 3.6 0 1.3-1.1 2.3-2.9 2.3-1.9 0-3.1-.5-3-2.6l2 .1zm8.6 2.5v-11h2.3v11h-2.3zm6.3-6.9c.2-.4.5-.6.8-.7.3-.2.7-.2 1.1-.2 1 0 1.9.6 1.9 1.7v6.2h-2.1v-5.3c0-.7-.1-1.2-.8-1.2s-.8.5-.8 1.2v5.3h-2.1v-7.8h2.1l-.1.8zm4.8-.8h2.2l1.1 5.8 1.1-5.8h2.1l-2.1 7.7h-2.4l-2-7.7zm9.5 4.2c0 .9 0 2.3 1 2.3.8 0 .9-.7.9-1.4h2.2c0 .8-.3 1.5-.8 2s-1.3.7-2.3.7c-2.8 0-3.1-1.7-3.1-4.1 0-2.1.3-3.9 3.1-3.9 2.9 0 3.2 1.9 3.1 4.3l-4.1.1zm2-1.2c0-.7 0-1.8-1-1.8s-1 1.2-1 1.8h2zm5.4 2.2c0 .3 0 .7.1.9.1.2.4.4.8.4s.8-.3.8-.8c0-1.6-3.8-1.3-3.8-3.7 0-1.7 1.6-2.2 3-2.2 1.5 0 2.8.7 2.7 2.4h-2.1c0-.5-.1-.9-.2-1-.1-.1-.3-.2-.5-.2-.5 0-.7.3-.7.8 0 1.2 3.8 1.2 3.8 3.6 0 1.3-1.1 2.3-2.9 2.3-1.9 0-3.1-.5-3-2.6l2 .1zm4.2-5.2h.9v-1.2l2.1-1v2.2h1.1v1.3h-1v4.1c0 .6 0 1 .7 1h.4v1.3c-.3 0-.6.1-1.1.1-1.9 0-2.1-1.2-2.1-1.7v-4.7h-.9l-.1-1.4zm7.2.8c.5-.7 1-.9 1.8-.9s1.4.4 1.7 1c.5-.7 1.1-1 2-1 1 0 1.9.6 1.9 1.7v6.2h-2.1v-5.3c0-.7-.1-1.2-.8-1.2s-.8.5-.8 1.2v5.3h-2.1v-5.3c0-.7-.1-1.2-.8-1.2s-.8.5-.8 1.2v5.3h-2.1v-7.8h2.1v.8zm11 3.4c0 .9 0 2.3 1 2.3.8 0 .9-.7.9-1.4h2.2c0 .8-.3 1.5-.8 2s-1.3.7-2.3.7c-2.8 0-3.1-1.7-3.1-4.1 0-2.1.3-3.9 3.1-3.9 2.9 0 3.2 1.9 3.1 4.3l-4.1.1zm2-1.2c0-.7 0-1.8-1-1.8s-1 1.2-1 1.8h2zm5.8-2.2c.2-.4.5-.6.8-.7.3-.2.7-.2 1.1-.2 1 0 1.9.6 1.9 1.7v6.2h-2.1v-5.3c0-.7-.1-1.2-.8-1.2s-.8.5-.8 1.2v5.3h-2.1v-7.8h2.1l-.1.8zm4.7-.8h.9v-1.2l2.1-1v2.2h1.1v1.3h-1.1v4.1c0 .6 0 1 .7 1h.4v1.3c-.3 0-.6.1-1.1.1-1.9 0-2.1-1.2-2.1-1.7v-4.7h-.9v-1.4zm8.5 2.2c0-2.9 0-5.7 3.8-5.7 2.3 0 3.3 1.3 3.2 3.7h-2.3c0-1.5-.3-2-.9-2-1.3 0-1.5 1.2-1.5 4s.2 4 1.5 4c1.1 0 1-1.4 1.1-2.2h2.3c0 2.9-1.2 3.9-3.3 3.9-3.9 0-3.9-2.8-3.9-5.7zm8.4 1.6c0-2.1.3-3.9 3.1-3.9s3.1 1.8 3.1 3.9c0 2.4-.4 4.1-3.1 4.1-2.8-.1-3.1-1.7-3.1-4.1zm4.1-.2c0-1.6-.1-2.4-1-2.4s-1 .8-1 2.4c0 2.3.2 2.8 1 2.8.8.1 1-.4 1-2.8zm5.7-2.8c.5-.7 1-.9 1.8-.9s1.4.4 1.7 1c.5-.7 1.1-1 2-1 1 0 1.9.6 1.9 1.7v6.2h-2.1v-5.3c0-.7-.1-1.2-.8-1.2-.7 0-.8.5-.8 1.2v5.3h-2.1v-5.3c0-.7-.1-1.2-.8-1.2s-.8.5-.8 1.2v5.3h-2.1v-7.8h2.1v.8zm11.1-.8v.9c.4-.7 1-1 1.8-1 2.2 0 2.1 2.5 2.1 4.1 0 1.6.1 3.9-2.1 3.9-.8 0-1.3-.2-1.8-.9v4h-2.1v-11h2.1zm1.9 3.8c0-1.5 0-2.6-.9-2.6s-.9 1.1-.9 2.6c0 1.9.1 2.7.9 2.7.7 0 .9-.8.9-2.7zm9.5 2.5c0 .5.1 1 .1 1.4h-2l-.1-1c-.5.8-1.1 1.2-2 1.2-1.5 0-2-1.1-2-2.5 0-2.5 2-2.6 4-2.6v-.6c0-.7-.1-1.1-.9-1.1-.7 0-.8.6-.8 1.2h-2.1c0-.9.3-1.5.8-1.9.5-.4 1.2-.5 2-.5 2.7 0 3.1 1.2 3.1 2.6v3.8h-.1zm-3.9-1c0 .5.1 1.2.8 1.2 1.3 0 1.1-1.7 1.1-2.5-1.1 0-1.9-.1-1.9 1.3zm7.9-4.5c.2-.4.5-.6.8-.7.3-.2.7-.2 1.1-.2 1 0 1.9.6 1.9 1.7v6.2h-2.1v-5.3c0-.7-.1-1.2-.8-1.2-.7 0-.8.5-.8 1.2v5.3h-2.1v-7.8h2.1v.8h-.1zm6.9 7l-2.1-7.8h2.1l1.1 5.4 1.2-5.4h2.1l-3 10.6h-2.3l.9-2.8z"/><path fill="#00447C" d="M10.9 145.8c0-17.4 12.2-31.9 28.5-35.6-1.2-.1-2.4-.2-3.6-.2-19.8 0-35.8 16-35.8 35.8 0 19.7 16 35.8 35.8 35.8 1.2 0 2.4-.1 3.7-.2-16.4-3.7-28.6-18.3-28.6-35.6zm46.7 16v-32.1h6.1v32.1h-6.1zm-26.6-10.9c.9 1.7 2.2 3 3.9 3.9 1.7.9 3.6 1.4 5.7 1.4 1.8 0 3.4-.3 4.9-1 1.5-.7 3.1-1.9 4.8-3.6l4.1 4.3c-2.4 2.3-4.6 3.9-6.7 4.8-2.1.9-4.5 1.3-7.2 1.3-5 0-9.1-1.6-12.2-4.7-3.2-3.2-4.8-7.2-4.8-12.1 0-3.2.7-6 2.2-8.5 1.4-2.5 3.5-4.5 6.2-6s5.6-2.3 8.7-2.3c2.6 0 5.2.6 7.6 1.7 2.4 1.1 4.6 2.7 6.3 4.8l-4.2 4.1c-2.9-3.1-6.2-4.6-9.8-4.6-3.1 0-5.6 1-7.7 3.1-2.1 2.1-3.1 4.7-3.1 7.7-.1 2.2.4 4.1 1.3 5.7zm15.6-39.2c-18.4.4-33.3 15.5-33.3 34.1 0 18.5 14.9 33.7 33.3 34.1 14.5-4.6 25-18.1 25-34.1-.1-16-10.6-29.5-25-34.1zm32.9 18.1h5.4v32.1h-5.4v-32.1zm8.7 10.3h5.5v2.2c1.2-1 2.4-1.8 3.4-2.2 1-.4 2-.6 3.1-.6 2.2 0 4 .8 5.5 2.3 1.3 1.3 1.9 3.2 1.9 5.7v14.4h-5.5v-9.5c0-2.6-.1-4.3-.3-5.2-.2-.9-.6-1.5-1.2-2-.6-.4-1.3-.7-2.1-.7-1.1 0-2 .4-2.8 1.1s-1.3 1.8-1.6 3.1c-.2.7-.2 2.2-.2 4.4v8.7h-5.5v-21.7h-.2zm19.9 0h5.6l5.5 12.9 5.6-12.9h5.5l-9.4 21.8h-3.5l-9.3-21.8zm38.4 8.2c-.4-1.2-1.1-2.2-2.1-2.9-1.1-.8-2.3-1.1-3.7-1.1-1.5 0-2.9.4-4 1.3-.7.5-1.4 1.5-2 2.8l11.8-.1zm5.4 4.2h-17.5c.3 1.6.9 2.8 2 3.7 1.1.9 2.5 1.4 4.2 1.4 2 0 3.8-.7 5.2-2.2l4.6 2.2c-1.1 1.6-2.5 2.8-4.1 3.6-1.6.8-3.5 1.2-5.7 1.2-3.4 0-6.2-1.1-8.3-3.2-2.1-2.2-3.2-4.9-3.2-8.1 0-3.3 1.1-6.1 3.2-8.3 2.1-2.2 4.8-3.3 8-3.3 3.4 0 6.2 1.1 8.3 3.3s3.2 5.1 3.2 8.7l.1 1zm16.3-9.3l-3.4 3.4c-1.4-1.4-2.6-2.1-3.7-2.1-.6 0-1.1.1-1.4.4-.3.3-.5.6-.5 1 0 .3.1.6.3.8.2.2.8.6 1.6 1l2 1c2.1 1 3.5 2.1 4.3 3.2.8 1.1 1.2 2.3 1.2 3.8 0 1.9-.7 3.5-2.1 4.8-1.4 1.3-3.3 1.9-5.7 1.9-3.2 0-5.7-1.2-7.6-3.7l3.4-3.7c.6.8 1.4 1.4 2.3 1.8.9.5 1.6.7 2.3.7s1.3-.2 1.7-.5c.4-.3.7-.7.7-1.2 0-.8-.8-1.7-2.4-2.5l-1.8-.9c-3.5-1.8-5.3-4-5.3-6.7 0-1.7.7-3.2 2-4.4s3-1.8 5.1-1.8c1.4 0 2.7.3 4 .9 1.1.7 2.1 1.6 3 2.8zm4.6-11.1h5.5v8h3.2v4.7h-3.2v17.1h-5.5v-17.1h-2.8v-4.7h2.8v-8zm10.8 8h5.5v2.5c.9-1 2-1.8 3.1-2.3s2.4-.8 3.7-.8c1.4 0 2.6.3 3.7 1s2 1.7 2.6 2.9c.9-1.3 1.9-2.3 3.2-2.9 1.3-.7 2.6-1 4.1-1 1.6 0 2.9.4 4.1 1.1 1.2.7 2 1.7 2.5 2.8.5 1.2.8 3.1.8 5.7v12.8h-5.5v-11c0-2.5-.3-4.1-.9-5-.6-.9-1.5-1.3-2.8-1.3-.9 0-1.8.3-2.5.8s-1.3 1.3-1.7 2.2c-.4.9-.5 2.5-.5 4.5v9.8h-5.5v-10.5c0-1.9-.1-3.4-.4-4.2-.3-.9-.7-1.5-1.3-1.9-.6-.4-1.3-.6-2.1-.6-.9 0-1.7.3-2.5.8-.7.5-1.3 1.3-1.7 2.3s-.6 2.5-.6 4.6v9.7h-5.5v-22h.2zm52.5 8.2c-.4-1.2-1.1-2.2-2.1-2.9-1.1-.8-2.3-1.1-3.7-1.1-1.5 0-2.9.4-4 1.3-.7.5-1.4 1.5-2 2.8l11.8-.1zm5.5 4.2h-17.5c.3 1.6.9 2.8 2 3.7 1.1.9 2.5 1.4 4.2 1.4 2 0 3.8-.7 5.2-2.2l4.6 2.2c-1.1 1.6-2.5 2.8-4.1 3.6-1.6.8-3.5 1.2-5.7 1.2-3.4 0-6.2-1.1-8.3-3.2-2.1-2.2-3.2-4.9-3.2-8.1 0-3.3 1.1-6.1 3.2-8.3 2.1-2.2 4.8-3.3 8-3.3 3.4 0 6.2 1.1 8.3 3.3s3.2 5.1 3.2 8.7l.1 1zm2.1-12.4h5.5v2.2c1.2-1 2.4-1.8 3.4-2.2 1-.4 2-.6 3.1-.6 2.2 0 4 .8 5.5 2.3 1.3 1.3 1.9 3.2 1.9 5.7v14.4h-5.5v-9.5c0-2.6-.1-4.3-.3-5.2-.2-.9-.6-1.5-1.2-2-.6-.4-1.3-.7-2.1-.7-1.1 0-2 .4-2.8 1.1s-1.3 1.8-1.6 3.1c-.2.7-.2 2.2-.2 4.4v8.7h-5.5v-21.7h-.2zm23.7-8h5.5v8h3.2v4.7h-3.2v17.1h-5.5v-17.1h-2.8v-4.7h2.8v-8zm24.2 11.1l-3.4 3.4c-1.4-1.4-2.6-2.1-3.7-2.1-.6 0-1.1.1-1.4.4s-.5.6-.5 1c0 .3.1.6.3.8.2.2.8.6 1.6 1l2 1c2.1 1 3.6 2.1 4.3 3.2.8 1.1 1.2 2.3 1.2 3.8 0 1.9-.7 3.5-2.1 4.8-1.4 1.3-3.3 1.9-5.7 1.9-3.2 0-5.7-1.2-7.6-3.7l3.4-3.7c.6.8 1.4 1.4 2.3 1.8.9.5 1.6.7 2.3.7.7 0 1.3-.2 1.7-.5.4-.3.7-.7.7-1.2 0-.8-.8-1.7-2.4-2.5l-1.8-.9c-3.5-1.8-5.3-4-5.3-6.7 0-1.7.7-3.2 2-4.4s3-1.8 5.1-1.8c1.4 0 2.7.3 4 .9 1 .7 2.1 1.6 3 2.8zm.8-4.2h.3c.4 0 .7-.1.7-.5 0-.2-.2-.5-.7-.5h-.3v1zm0 1.5h-.4v-2.7c.2 0 .4-.1.8-.1s.7.1.8.2c.2.1.3.3.3.6 0 .4-.2.6-.5.7.2 0 .4.3.5.7.1.4.1.6.2.7h-.5c-.1-.1-.1-.3-.2-.7-.1-.3-.2-.5-.6-.5h-.3l-.1 1.1zm.4-3.5c-1.1 0-1.9.9-1.9 2.1 0 1.2.9 2.1 2 2.1s1.9-.9 1.9-2.1c0-1.2-.9-2.1-2-2.1zm0-.4c1.3 0 2.4 1.1 2.4 2.4 0 1.4-1.1 2.4-2.4 2.4s-2.4-1.1-2.4-2.4 1.1-2.4 2.4-2.4zm-277.5-86.6c0-24.3 17.1-44.6 39.8-49.7-1.7-.2-3.4-.3-5.1-.3-27.6 0-50 22.4-50 50s22.4 50 50 50c1.7 0 3.4-.1 5.1-.3-22.8-5.1-39.8-25.4-39.8-49.7zm65.2 22.4v-44.8h8.5v44.8h-8.5zm-37.2-15.2c1.3 2.3 3.1 4.1 5.5 5.5 2.4 1.3 5 2 7.9 2 2.5 0 4.7-.5 6.8-1.4 2-.9 4.3-2.6 6.8-5l5.8 6c-3.3 3.2-6.4 5.5-9.4 6.7-2.9 1.2-6.3 1.9-10.1 1.9-7 0-12.7-2.2-17.1-6.6s-6.7-10.1-6.7-17c0-4.5 1-8.4 3-11.9s4.9-6.3 8.7-8.4 7.8-3.2 12.2-3.2c3.7 0 7.3.8 10.7 2.3 3.4 1.6 6.4 3.8 8.8 6.7l-6 5.7c-4.1-4.3-8.6-6.4-13.7-6.4-4.3 0-7.9 1.5-10.8 4.4-2.9 2.9-4.4 6.5-4.4 10.8.1 2.9.7 5.6 2 7.9zm21.8-54.9c-25.8.7-46.5 21.8-46.5 47.7s20.8 47 46.5 47.7c20.2-6.5 34.9-25.4 34.9-47.7s-14.7-41.2-34.9-47.7zm46 25.3h7.5v44.9h-7.5v-44.9zm12.2 14.5h7.6v3.1c1.7-1.5 3.3-2.5 4.7-3 1.4-.6 2.8-.9 4.3-.9 3 0 5.6 1.1 7.7 3.2 1.8 1.8 2.6 4.4 2.6 7.9v20.1h-7.6v-13.3c0-3.6-.2-6-.5-7.2s-.9-2.1-1.7-2.7c-.8-.6-1.8-.9-3-.9-1.5 0-2.8.5-3.9 1.6-1.1 1-1.9 2.5-2.3 4.3-.2.9-.3 3-.3 6.2v12.2h-7.6v-30.6zm27.8 0h7.8l7.7 18 7.8-18h7.7l-13.2 30.4h-4.8l-13-30.4zm53.7 11.4c-.5-1.7-1.5-3.1-3-4.1-1.5-1.1-3.2-1.6-5.2-1.6-2.1 0-4 .6-5.6 1.8-1 .7-1.9 2-2.8 3.9h16.6zm7.6 6h-24.5c.4 2.2 1.3 3.9 2.8 5.2 1.5 1.3 3.5 1.9 5.9 1.9 2.8 0 5.3-1 7.3-3l6.4 3c-1.6 2.3-3.5 4-5.7 5.1s-4.9 1.6-7.9 1.6c-4.8 0-8.6-1.5-11.6-4.5s-4.5-6.8-4.5-11.3c0-4.6 1.5-8.5 4.5-11.6 3-3.1 6.7-4.6 11.2-4.6 4.8 0 8.7 1.5 11.7 4.6s4.5 7.1 4.5 12.1l-.1 1.5zm22.7-13.1l-4.7 4.8c-1.9-1.9-3.7-2.9-5.2-2.9-.9 0-1.5.2-2 .5-.5.4-.7.8-.7 1.4 0 .4.2.8.5 1.1s1.1.8 2.3 1.4l2.8 1.4c2.9 1.5 5 2.9 6.1 4.4s1.6 3.3 1.6 5.3c0 2.7-1 5-3 6.8s-4.7 2.7-8 2.7c-4.4 0-8-1.7-10.6-5.2l4.7-5.1c.9 1.1 1.9 1.9 3.2 2.6 1.2.7 2.3 1 3.2 1 1 0 1.8-.2 2.4-.7.6-.5.9-1 .9-1.7 0-1.2-1.1-2.3-3.3-3.4l-2.6-1.3c-4.9-2.5-7.4-5.6-7.4-9.3 0-2.4.9-4.5 2.8-6.2 1.9-1.7 4.2-2.6 7.1-2.6 2 0 3.8.4 5.6 1.3 1.6.8 3.1 2.1 4.3 3.7zm6.5-15.4h7.6v11.1h4.5v6.6h-4.5v23.8h-7.6v-23.8h-3.9v-6.6h3.9v-11.1zm15.1 11.1h7.6v3.5c1.3-1.4 2.8-2.5 4.4-3.2s3.3-1.1 5.2-1.1c1.9 0 3.6.5 5.2 1.4 1.5.9 2.8 2.3 3.7 4.1 1.2-1.8 2.7-3.2 4.5-4.1 1.8-.9 3.7-1.4 5.8-1.4 2.2 0 4.1.5 5.7 1.5s2.8 2.3 3.5 3.9c.7 1.6 1.1 4.3 1.1 7.9v17.9h-7.6v-15.4c0-3.4-.4-5.8-1.3-7s-2.2-1.8-3.9-1.8c-1.3 0-2.5.4-3.5 1.1-1 .7-1.8 1.8-2.3 3.1s-.8 3.4-.8 6.3v13.7h-7.6v-14.7c0-2.7-.2-4.7-.6-5.9s-1-2.1-1.8-2.7c-.8-.6-1.8-.9-2.9-.9-1.3 0-2.4.4-3.5 1.1-1 .8-1.8 1.8-2.3 3.2s-.8 3.5-.8 6.4v13.5h-7.6v-30.4h-.2zm73.4 11.4c-.5-1.7-1.5-3.1-3-4.1-1.5-1.1-3.2-1.6-5.2-1.6-2.1 0-4 .6-5.6 1.8-1 .7-1.9 2-2.8 3.9h16.6zm7.6 6h-24.5c.4 2.2 1.3 3.9 2.8 5.2 1.5 1.3 3.5 1.9 5.9 1.9 2.8 0 5.3-1 7.3-3l6.4 3c-1.6 2.3-3.5 4-5.7 5.1s-4.9 1.6-7.9 1.6c-4.8 0-8.6-1.5-11.6-4.5s-4.5-6.8-4.5-11.3c0-4.6 1.5-8.5 4.5-11.6 3-3.1 6.7-4.6 11.2-4.6 4.8 0 8.7 1.5 11.7 4.6s4.5 7.1 4.5 12.1l-.1 1.5zm2.9-17.4h7.6v3.1c1.7-1.5 3.3-2.5 4.7-3 1.4-.6 2.8-.9 4.3-.9 3 0 5.6 1.1 7.7 3.2 1.8 1.8 2.7 4.4 2.7 7.9v20.1h-7.6v-13.3c0-3.6-.2-6-.5-7.2s-.9-2.1-1.7-2.7c-.8-.6-1.8-.9-3-.9-1.5 0-2.8.5-3.9 1.6-1.1 1-1.9 2.5-2.3 4.3-.2.9-.3 3-.3 6.2v12.2h-7.6v-30.6h-.1zm33.2-11.1h7.6v11.1h4.5v6.6h-4.5v23.8h-7.6v-23.8h-4v-6.6h4v-11.1zm33.8 15.4l-4.7 4.8c-1.9-1.9-3.7-2.9-5.2-2.9-.9 0-1.5.2-2 .5-.5.4-.7.8-.7 1.4 0 .4.2.8.5 1.1s1.1.8 2.3 1.4l2.8 1.4c2.9 1.5 5 2.9 6.1 4.4s1.7 3.3 1.7 5.3c0 2.7-1 5-3 6.8s-4.6 2.7-8 2.7c-4.4 0-8-1.7-10.6-5.2l4.7-5.1c.9 1.1 1.9 1.9 3.2 2.6 1.2.7 2.3 1 3.2 1 1 0 1.8-.2 2.4-.7s.9-1 .9-1.7c0-1.2-1.1-2.3-3.3-3.4l-2.6-1.3c-4.9-2.5-7.4-5.6-7.4-9.3 0-2.4.9-4.5 2.8-6.2s4.2-2.6 7.1-2.6c2 0 3.8.4 5.6 1.3 1.5.8 3 2.1 4.2 3.7zm1.1-5.9h.4c.5 0 .9-.2.9-.6 0-.3-.2-.7-.9-.7h-.4v1.3zm0 2.1h-.6v-3.8c.3 0 .6-.1 1.1-.1.6 0 1 .1 1.2.3s.4.4.4.8c0 .5-.3.8-.7.9.3.1.6.4.6.9.1.6.2.8.2.9h-.6c-.1-.1-.2-.5-.3-1-.1-.5-.3-.7-.8-.7h-.4v1.8h-.1zm.6-4.9c-1.5 0-2.7 1.3-2.7 2.9 0 1.6 1.2 2.9 2.7 2.9s2.7-1.3 2.7-2.9c0-1.6-1.2-2.9-2.7-2.9zm0-.5c1.9 0 3.3 1.5 3.3 3.4s-1.5 3.4-3.4 3.4-3.4-1.5-3.4-3.4c.1-1.9 1.6-3.4 3.5-3.4zm-395.4 224.8v1.5c-.9 0-1.9-.1-2.9-.1h-8c-1 0-2 0-3 .1v-1.5l4.3-.2c0-.8.1-1.5.1-2v-35.4l-4.4-.3v-1.5l3 .1h7.9s2 0 3-.1v1.5l-4.3.2c0 .8-.1 1.5-.1 2 0 .6 0 1.2-.1 2v31.5c0 .6 0 1.2.1 1.9l4.4.3zm3.2 0l3.1-.1v-20.3l-3.2-.1v-2.3l7-.8c0 .9 0 1.4.1 1.7.1.3.3.4.6.4.2 0 .5-.1 1-.4.5-.3 1.2-.5 2-.8s1.8-.6 2.8-.8c1.1-.3 2.2-.4 3.4-.4 2.3 0 4.1.6 5.4 1.7 1.3 1.2 2 2.9 2 5.3v16.7l3.1.1v1.4h-10.2v-1.3l3-.1v-16.4c0-1-.1-1.8-.2-2.5s-.4-1.3-.8-1.7c-.4-.5-1-.8-1.7-1s-1.7-.3-2.8-.3c-.5 0-1.1 0-1.7.1l-1.8.3c-.6.1-1.2.3-1.8.5-.6.2-1 .4-1.4.6-.2.1-.3.3-.4.6s-.1.9-.1 1.6v18.3l3 .1v1.4h-10.4v-1.5zm39.3 2.4l-8.7-21.8-.5-1.1c-.1-.3-.3-.5-.5-.6-.2-.2-.4-.3-.6-.3-.2 0-.5-.1-.9-.1v-1.6h8.8v1.6c-.9 0-1.6 0-1.9.1-.3.1-.5.2-.5.3l.2.7c.1.4.3.8.4 1.3l.5 1.4c.2.4.3.7.3.9l5.2 14 6.4-15.6c0-.1.1-.3.2-.5s.2-.4.3-.7c.1-.2.2-.5.2-.7.1-.2.1-.4.1-.4 0-.2-.1-.3-.4-.4-.3-.1-.9-.1-1.9-.1v-2h5.9v1.7c-.5.1-.9.2-1.2.4-.3.1-.6.4-.8.7-.3.3-.5.8-.8 1.3-.3.6-.6 1.4-1 2.4l-8 19.1h-.8zm35-6.7c-.3.5-.6 1.1-1.1 1.8-.5.8-1.1 1.5-1.9 2.2-.8.7-1.7 1.3-2.8 1.8-1.1.5-2.5.8-4 .8-1.7 0-3.2-.3-4.7-.9s-2.7-1.5-3.8-2.6c-1.1-1.1-1.9-2.5-2.6-4-.6-1.6-.9-3.3-.9-5.2 0-1.7.3-3.3.8-4.9s1.3-3.1 2.4-4.4c1-1.3 2.3-2.3 3.8-3.1s3.2-1.2 5.2-1.2c1.9 0 3.5.4 4.7 1.1 1.2.7 2.2 1.6 2.9 2.5.7 1 1.2 1.9 1.5 2.9s.4 1.8.4 2.3c0 .4-.1.7-.2.9s-.4.3-1 .3h-15.5c-.4 0-.7.1-.8.3-.2.2-.2.9-.2 2 0 1.3.2 2.6.6 4 .4 1.3 1 2.5 1.9 3.6.8 1.1 1.8 1.9 3 2.6 1.2.7 2.6 1 4.2 1 1 0 2-.1 2.8-.4.8-.3 1.5-.6 2-1.1.6-.4 1-.9 1.4-1.4s.7-1 1-1.4l.9.5zm-5.3-11c.5 0 .9 0 1-.1.2-.1.2-.3.2-.6l-.2-1.6s-.4-1.5-.7-2.3c-.4-.8-.9-1.5-1.6-2-.7-.6-1.7-.9-2.8-.9-1.3 0-2.4.3-3.4.9-1 .6-1.8 1.3-2.4 2.2-.7.8-1.2 1.6-1.5 2.4s-.5 1.4-.5 1.7c0 .2.2.3.6.3h11.3zm7.5 9.8h1.4c.1.6.3 1.3.6 2.1s.6 1.5 1.1 2.1c.4.7 1 1.2 1.7 1.7.7.4 1.5.7 2.5.7.7 0 1.4-.1 1.9-.4.6-.3 1-.6 1.4-1.1.4-.4.6-.9.8-1.5.2-.5.3-1.1.3-1.7 0-1.1-.3-2.1-.8-2.9-.5-.8-1.2-1.5-2-2.1-.8-.6-1.7-1.2-2.6-1.8-.9-.6-1.8-1.2-2.6-1.8-.8-.6-1.5-1.4-2-2.2-.5-.9-.8-1.9-.8-3.1 0-.9.2-1.8.6-2.6s.9-1.5 1.5-2.1c.7-.6 1.4-1 2.3-1.4.9-.3 1.8-.5 2.8-.5.8 0 1.5.1 2 .2.6.2 1.1.3 1.6.5s1 .4 1.5.7c.5.3.9.5 1.5.6l.1 4.8h-1.4l-.6-2.1s-.5-1.3-.9-1.8-.8-.9-1.4-1.2c-.5-.3-1.2-.5-2-.5-1.3 0-2.4.4-3.2 1.2-.9.8-1.3 1.7-1.3 2.7 0 .9.3 1.7.8 2.4.6.7 1.3 1.3 2.1 1.9.9.6 1.8 1.2 2.7 1.7 1 .6 1.9 1.2 2.7 1.9.9.7 1.6 1.5 2.1 2.4.6.9.8 2 .8 3.3 0 1.2-.2 2.2-.7 3.2s-1.1 1.7-1.8 2.4c-.7.6-1.6 1.1-2.5 1.5-.9.3-1.9.5-2.8.5s-1.9-.1-3-.4c-1.1-.3-2.5-.8-4.1-1.4l-.3-5.9zm31.6 6.1c-1.2.4-2.2.8-3.1 1-.9.3-1.9.4-2.9.4-1.9 0-3.2-.5-4.1-1.5s-1.3-2.9-1.2-5.6l.2-15.8-3.6.2v-1.8l2.7-.1c.6 0 .9-.3.9-.8l.1-10h4.1l-.1 10.6c.9 0 1.7-.1 2.3-.1.6 0 1.2-.1 1.7-.1s1-.1 1.4-.1c.5-.1 1-.1 1.6-.2v2.2h-4.1s-1.3.1-1.8.1c-.5.1-.8.1-.9.2l-.2.3c-.1.1-.1.3-.1.6v2.6l-.1 9.9c0 1.5 0 2.8.1 3.7.1 1 .3 1.7.6 2.3.3.6.7 1 1.2 1.2.5.2 1.1.3 1.8.3 1.3 0 2.4-.2 3.5-.5v1zm0-11.2c0-2.6.4-4.8 1.2-6.5.8-1.7 1.8-3.1 3.1-4.2 1.2-1 2.6-1.8 4.1-2.2 1.5-.4 3-.6 4.4-.6 2.3 0 4.2.4 5.7 1.2 1.5.8 2.7 1.9 3.6 3.1.9 1.3 1.5 2.6 1.9 4.1.3 1.5.5 2.8.5 4.1 0 1.8-.3 3.5-.8 5.2-.5 1.7-1.3 3.1-2.4 4.4-1 1.3-2.3 2.3-3.8 3.1-1.5.8-3.2 1.2-5.2 1.2-1.5 0-3-.3-4.5-.8s-2.8-1.3-3.9-2.4c-1.1-1.1-2.1-2.4-2.8-4-.7-1.6-1.1-3.5-1.1-5.7zm4.4-.2c0 1.5.2 3 .5 4.4.3 1.4.9 2.7 1.5 3.8.7 1.1 1.5 2 2.4 2.6.9.7 2 1 3.3 1s2.5-.3 3.5-1 1.8-1.6 2.4-2.7c.6-1.1 1.1-2.4 1.4-3.8.3-1.4.5-2.9.5-4.5 0-1.7-.2-3.2-.5-4.6s-.8-2.7-1.4-3.8c-.6-1.1-1.4-1.9-2.3-2.5-.9-.6-1.9-.9-3.1-.9-.8 0-1.6.2-2.6.6-.9.4-1.9 1-2.7 1.9-.9.9-1.6 2.1-2.1 3.7-.5 1.5-.8 3.4-.8 5.8zm22.9 10.8l3.1-.1v-17.8c0-.8 0-1.4-.1-1.9 0-.5-.1-.8-.2-.8 0 0-.2-.1-.4-.1s-.5-.1-.8-.1-.6 0-.9-.1h-.9v-2l7-.9.2 2.2.1.7c.1.2.1.3.3.3.1 0 .3-.2.7-.6.3-.4.8-.8 1.4-1.2.6-.4 1.3-.8 2.1-1.2.8-.4 1.7-.6 2.6-.6.3 0 .7 0 1 .1.4 0 .6.2.6.5v.6c0 .3 0 .6-.1 1l-.1.9s-.1.5-.1.6c0 0 0 .1-.1.1s-.3 0-.6.1c-.3 0-.8 0-1.4.1h-2.5c-.9 0-1.6 0-2.1.1s-.8.2-1.1.3c-.2.2-.4.4-.4.6-.1.3-.1.6-.1 1v18.1l3.8.1v1.4h-11.1v-1.4h.1z"/><path fill="#999" d="M173.3 243.3c0-3.2.5-6.1 1.6-8.7 1.1-2.7 2.6-4.9 4.5-6.9 1.9-1.9 4.2-3.4 6.8-4.5s5.5-1.6 8.6-1.6c3.2 0 6.1.5 8.6 1.5 2.6 1 4.8 2.5 6.6 4.3 1.8 1.9 3.2 4.1 4.2 6.6 1 2.6 1.5 5.4 1.5 8.4 0 2.6-.4 5.2-1.3 7.8-.9 2.6-2.2 4.9-3.9 7-1.7 2.1-3.9 3.8-6.6 5.1-2.7 1.3-5.8 1.9-9.3 1.9-3 0-5.8-.5-8.4-1.5-2.6-1-4.9-2.4-6.8-4.2-1.9-1.8-3.4-4-4.5-6.7-1-2.4-1.6-5.3-1.6-8.5zm7.8-.2c0 2.9.4 5.6 1.1 8 .7 2.4 1.7 4.5 3 6.3 1.3 1.8 2.7 3.1 4.4 4.1s3.4 1.5 5.2 1.5c2.2 0 4.2-.6 5.8-1.9 1.6-1.3 3-2.9 4.1-4.9 1.1-2 1.9-4.2 2.4-6.5.5-2.4.8-4.7.8-7 0-2.2-.3-4.5-.8-6.9-.5-2.3-1.3-4.4-2.4-6.3-1.1-1.9-2.4-3.4-4.1-4.6-1.6-1.2-3.6-1.8-5.8-1.8-1.1 0-2.5.3-4 .8-1.6.5-3.1 1.5-4.5 3-1.5 1.5-2.7 3.5-3.7 6.1-1 2.6-1.5 5.9-1.5 10.1zm36.5 18.5l3-.1v-19.5l-3.5-.1v-2.7l9.4-.9c0 1 0 1.7.1 1.9s.2.3.4.3.6-.1 1.2-.4c.6-.3 1.3-.5 2.2-.8.9-.3 1.8-.6 2.8-.8 1-.3 2.1-.4 3.1-.4 2.6 0 4.4.6 5.6 1.9 1.2 1.2 1.8 3.1 1.8 5.7v15.9l3.1.1v1.7h-12.4v-1.7l3-.1v-17.2c0-1.4-.3-2.4-1-2.9s-1.8-.8-3.4-.8c-1.4 0-2.6.1-3.6.4-1 .3-1.7.5-2 .8-.3.2-.4.5-.5.9 0 .3-.1.9-.1 1.8v17l3.1.1v1.7h-12.4l.1-1.8zm30.4 1.8v-1.7l3.3-.1v-32.2s0-1.6-.1-2.5c0-.9 0-1.6-.1-2.2v-1.1s0-.1-.1-.1c-.1-.1-.2-.1-.5-.1s-.6-.1-1.1-.1h-2.1v-2.3c1.4-.1 2.7-.1 3.7-.2s1.9-.1 2.7-.2c.8-.1 1.5-.2 2.1-.3.6-.1 1.2-.2 1.9-.3v41.6l3.3.1v1.7h-13zm14.5-1.8l3.3-.1v-18.4c0-.7-.2-1.2-.5-1.5-.3-.2-1.1-.4-2.4-.5v-1.9l9.2-1v23.3l3.3.1v1.7h-12.8v-1.7h-.1zm3.4-34.9c0-1.1.3-2.1 1-2.8.7-.8 1.6-1.2 2.8-1.2.8 0 1.6.3 2.3.8s1 1.4 1 2.4c0 1.1-.4 2.1-1.2 2.9-.8.8-1.7 1.2-2.7 1.2s-1.8-.3-2.4-.9c-.5-.6-.8-1.4-.8-2.4zm10.8 34.9l3-.1v-19.5l-3.5-.1v-2.7l9.4-.9c0 1 0 1.7.1 1.9s.2.3.4.3.6-.1 1.2-.4c.6-.3 1.3-.5 2.2-.8.9-.3 1.8-.6 2.8-.8 1-.3 2.1-.4 3.1-.4 2.6 0 4.4.6 5.6 1.9 1.2 1.2 1.8 3.1 1.8 5.7v15.9l3.1.1v1.7h-12.4v-1.7l3-.1v-17.2c0-1.4-.3-2.4-1-2.9s-1.8-.8-3.4-.8c-1.4 0-2.6.1-3.6.4-1 .3-1.7.5-2 .8-.3.2-.4.5-.5.9 0 .3-.1.9-.1 1.8v17l3.1.1v1.7h-12.4l.1-1.8zm53.3-4.2c-.3.5-.7 1.2-1.2 2s-1.2 1.6-2.1 2.3c-.9.7-2 1.3-3.3 1.9-1.3.5-2.9.8-4.7.8-1.6 0-3.2-.3-4.6-.8-1.5-.6-2.7-1.4-3.8-2.5-1.1-1.1-1.9-2.4-2.6-4-.6-1.6-1-3.4-1-5.5 0-2 .3-3.8.9-5.4.6-1.6 1.5-3.1 2.6-4.3 1.1-1.2 2.5-2.1 4.1-2.8 1.6-.7 3.3-1 5.2-1 1.8 0 3.4.3 4.7.9 1.3.6 2.4 1.4 3.2 2.3.8.9 1.4 1.9 1.8 3 .4 1.1.6 2.2.6 3.2 0 .8-.4 1.2-1.3 1.2h-14.5c-.5 0-.9.1-1 .3-.2.2-.2.7-.2 1.5s.1 1.8.3 3c.2 1.2.6 2.4 1.2 3.5s1.5 2.1 2.6 2.9c1.1.8 2.6 1.2 4.4 1.2 1 0 2-.1 2.7-.4.8-.3 1.5-.6 2.1-1 .6-.4 1.1-.9 1.6-1.4l1.2-1.5 1.1.6zm-7.6-10.5c.7 0 1.2-.1 1.4-.3.2-.2.3-.7.3-1.5 0-.7-.1-1.3-.3-2-.2-.7-.4-1.3-.8-1.8-.3-.5-.8-1-1.4-1.3s-1.2-.5-2.1-.5c-1 0-2 .3-2.7.9-.8.6-1.4 1.2-1.9 2s-.9 1.5-1.2 2.3c-.3.8-.4 1.4-.4 1.7 0 .2.1.3.2.4.2.1.5.1.9.1h8z"/><path fill="#fff" d="M31.3 368.9v3.4c-4.2-.1-8.4-.3-15.6-.3-7.3 0-11.3.1-15.7.3v-3.4l9.7-.5c.3-7.1.1-8.6.1-25.7 0-45 .1-50-.1-58.6l-9.7-.5v-3.4c4.3.1 8.4.2 15.7.2 7.2 0 11.1-.1 15.6-.3v3.4l-9.6.5c-.3 7.1-.4 8.6-.4 25.7 0 45 0 50 .4 58.6l9.6.6zm7.3 0l6.9-.1v-45.7l-7.3-.3v-5.2l15.8-1.8c0 3.8.3 4.8 1.6 4.8 1.4 0 10.1-5.4 20.9-5.4 10.2 0 16.6 5.2 16.6 15.8v37.7l6.9.1v3.1h-23v-3.1l6.7-.1v-37c0-8.8-2-12.6-12.4-12.6-4.4 0-11.5 1.2-15.1 3.4-.8.5-1.3 1.7-1.3 5.1v41.1l6.8.1v3.1h-23.1v-3zm88.4 5.5l-19.5-49.1c-1.8-4.3-2.1-4.6-5.6-4.8v-3.7h19.9v3.7c-4.2 0-5.5.4-5.5 1 0 .8 2.7 8.2 3.3 9.7l11.6 31.4 14.4-35.1c.4-.9 1.8-4.4 1.8-5.1 0-.7-.8-1.2-5.1-1.2v-4.4h13.4v3.9c-4.4.9-4.8 1.7-8.6 10.7l-18.2 43h-1.9zm78.9-15.1c-2.4 4.3-8 14.8-22.1 14.8-14.9 0-27-11.6-27-28.8 0-15.2 9.9-30.6 27.5-30.6 17.3 0 21.5 14.9 21.5 19.9 0 2-.3 2.7-2.6 2.7h-35.1c-1.7 0-2.4.4-2.4 5.2 0 11.9 7.6 25.3 21.9 25.3 9.6 0 13.7-5.9 16.4-9.7l1.9 1.2zm-11.9-24.8c2.4 0 2.9-.4 2.9-1.6 0-2.9-1.4-15.3-12-15.3-11.4 0-17.5 13.1-17.5 16.2 0 .4.5.7 1.4.7h25.2zm16.9 22.1h3.1c1.2 5.6 4.4 14.7 13.1 14.7 6.8 0 9.9-5.4 9.9-10.5 0-15.3-24.6-14.9-24.6-31.3 0-8.2 7.2-14.8 16.1-14.8 6.9 0 10.2 3 14.8 4.6l.3 10.9h-2.7c-1.8-6.4-3.8-12.6-11.1-12.6-5.8 0-10.2 4.2-10.2 8.8 0 12.8 25.7 13.4 25.7 30.8 0 10.6-9 17-17.5 17-3.9 0-8.8-1.2-16-4.2l-.9-13.4zm71.1 13.7c-5.4 2-8.9 3.3-13.6 3.3-8.2 0-12.2-3.9-12-16.1l.5-35.5-8.1.4v-4l6-.3c1.6 0 2.1-.7 2.1-1.8l.3-22.5h9.3l-.3 23.8c8.4-.4 10.2-.5 15.8-1.3v5c-5-.1-14.4 0-15.2.8s-.8 1.7-.8 7.7l-.3 22.6c-.3 13.6 1.7 17 8.4 17 3 0 5.6-.4 7.9-1v1.9zm28.6-55.6c20.8 0 26.3 16.6 26.3 28.3 0 16.1-9.8 31.2-27.4 31.2-13.6 0-27.6-9.6-27.6-29.1.1-23.3 15.9-30.4 28.7-30.4zm-1.2 56.6c12 0 17.5-13.1 17.5-27 0-14.9-5.9-26.7-16.5-26.7-6.9 0-18.6 6.2-18.6 27 .1 13.8 6.7 26.7 17.6 26.7zm34-2.4l6.9-.1v-27.6c0-8.9 0-17.8-.7-18.5-.4-.4-4.3-.5-6.7-.7v-4.4l15.8-2.1.5 4.8c.1 1 .4 2.2.9 2.2.9 0 6.5-7.9 15.3-7.9 1.3 0 3.7 0 3.7 1.3 0 .8-.4 6.2-.8 6.8-.1.3-.8.5-10.5.5-7.9 0-8.2.9-8.2 4.6v40.8l8.6.1v3.1h-25v-2.9h.2zm95.4-90.8c28.7 0 47 19.5 47 47.1 0 23.3-15.3 49.2-47.5 49.2-27 0-47.9-18.5-47.9-47.5-.1-28.5 20.4-48.8 48.4-48.8zm0 92.9c20.4 0 29.5-25.3 29.5-45.7 0-20.4-9.6-43.8-29.5-43.8-9.9 0-30.9 7.5-30.9 44.9 0 26.1 14.4 44.6 30.9 44.6zm51.3-2.9l6.8-.1v-44.1l-8-.3v-6l21.1-2.1c0 4.7.5 5.1 1.3 5.1 1.7 0 11.5-5.4 21.1-5.4 11.4 0 16.6 5.5 16.6 17v35.7l6.9.1v3.9h-27.9v-3.9l6.8-.1v-38.5c0-6.3-2.6-8.4-9.9-8.4-6.2 0-11.4 1.6-12.7 2.7-1.2 1-1.2 2.2-1.2 6v38.2l6.9.1v3.9h-27.9v-3.8h.1zm68.3 3.9v-3.9l7.3-.1v-68.6c0-3.1-.3-16.4-.4-16.9-.1-.5-.7-1-8.6-.9v-5c12.8-.6 17.6-1.2 23.2-2.2v93.6l7.3.1v3.9h-28.8zm32.6-3.9l7.5-.1v-41.5c0-3.4-.7-3.9-6.5-4.3v-4.3l20.7-2.4v52.5l7.3.1v3.9h-29v-3.9zm16.2-87.7c3.7 0 7.5 2.5 7.5 7.3 0 5.1-4.1 9.2-8.8 9.2-4.6 0-7.2-3-7.2-7.5 0-4.9 3.2-9 8.5-9zm15.9 87.7l6.8-.1v-44.1l-8-.3v-6l21.1-2.1c0 4.7.5 5.1 1.3 5.1 1.7 0 11.5-5.4 21.1-5.4 11.4 0 16.6 5.5 16.6 17v35.7l6.9.1v3.9h-27.9v-3.9l6.8-.1v-38.5c0-6.3-2.6-8.4-9.9-8.4-6.2 0-11.4 1.6-12.7 2.7-1.2 1-1.2 2.2-1.2 6v38.2l6.9.1v3.9h-27.9v-3.8h.1zm120-9.5c-2.7 4.8-8.9 15.6-25.4 15.6-14.8 0-27-10.2-27-28.9 0-17.7 11.8-30.5 28.9-30.5 16.5 0 23.3 12 23.3 21.1 0 1.8-.8 2.7-3 2.7h-33c-2.4 0-2.9.8-2.9 4.1 0 7.1 2.9 23.7 19.1 23.7 9.3 0 14-5.1 17-9.4l3 1.6zm-17.1-23.7c3.1 0 3.9-.8 3.9-4.1 0-6-2.9-12.7-10.1-12.7-9.4 0-14 12-14 15.6 0 .7.5 1.2 2.6 1.2h17.6z"/></svg>