<svg xmlns="http://www.w3.org/2000/svg" viewBox="0 0 652.29 374.1" width="652.29px" height="374.111px"><defs><style>.a{fill:#003e51;}.b{fill:#00303c;}.c{fill:#a99a6f;}.d{fill:#fff;}</style></defs><title>logos_f</title><path class="a" d="M15.5,9.77a42.4,42.4,0,0,0-4,3.75h8.25A42.28,42.28,0,0,0,15.5,9.77Z"/><path class="a" d="M20.5,14.31H10.77a42.89,42.89,0,0,0-5.3,7.4h20.6A42.39,42.39,0,0,0,20.5,14.31Z"/><path class="a" d="M29.47,28.76c-0.4-1.11-.85-2.2-1.34-3.27l0,0.06c-0.47-1-1-2-1.54-3H5a42.19,42.19,0,0,0-3.1,7.4H25.53l0.68-1.17h3.25Z"/><path class="a" d="M31.52,37a41.49,41.49,0,0,0-1.05-5.06H24.36l0.7-1.2H1.66A42.19,42.19,0,0,0,.23,38.13H20.73L21.4,37H31.52Z"/><path class="a" d="M32,43c0-1,0-1.94-.1-2.9H19.59l0.68-1.17H0.15Q0,40.71,0,42.53c0,1.28.06,2.54,0.17,3.79H15.95l0.68-1.16H31.9C31.94,44.44,32,43.72,32,43Z"/><path class="a" d="M31.62,48.31H14.78l0.68-1.17H0.25a42.15,42.15,0,0,0,1.48,7.4h9.4l0.68-1.16H30.65A40.85,40.85,0,0,0,31.62,48.31Z"/><path class="a" d="M29.72,56.53H10l0.7-1.19H2a42.31,42.31,0,0,0,3.15,7.4H6.35L7,61.59H27.61A42,42,0,0,0,29.72,56.53Z"/><path class="a" d="M6.35,64.7A41.85,41.85,0,0,0,10,69.76H22.29A42.24,42.24,0,0,0,25.9,64.7H6.35Z"/><path class="a" d="M19.54,72.77H12.82a42.81,42.81,0,0,0,3.38,3A42.48,42.48,0,0,0,19.54,72.77Z"/><path class="a" d="M28,60.8H56.56q0.83-1.74,1.5-3.55H29.47Q28.81,59.07,28,60.8Z"/><path class="a" d="M22.92,69H51.37A40.59,40.59,0,0,0,54,65.46H25.44A42.53,42.53,0,0,1,22.92,69Z"/><path class="a" d="M16.2,75.77q1,0.75,2,1.45H42.51A42.23,42.23,0,0,0,47,73.68H18.62C17.84,74.41,17,75.1,16.2,75.77Z"/><path class="a" d="M30.11,83c1.24-.35,2.45-0.76,3.64-1.21H26.68Q28.36,82.51,30.11,83Z"/><path class="a" d="M57.92,28q-0.64-1.64-1.4-3.22l-0.19-.32H28.75l0.78-1.34H26.88c0.43,0.8.84,1.61,1.22,2.44l0,0c0.38,0.81.72,1.64,1,2.48H57.92Z"/><path class="a" d="M44.29,3.47L42.67,0.65v0l-0.27-.48h0A42.16,42.16,0,0,0,23.08,4.8H40.24L41,3.47h3.26Z"/><path class="a" d="M49,11.6l-2-3.55H38.35l0.76-1.3H19.68a43.08,43.08,0,0,0-4.17,3A42.68,42.68,0,0,1,19.19,13H35.47l0.8-1.36H49Z"/><path class="a" d="M53.65,19.78l-2-3.55H33.56l0.78-1.34H21.06a41.94,41.94,0,0,1,4.66,6.21h5l0.78-1.32H53.65Z"/><path class="a" d="M43.54,36.21h16.6C60,35,59.7,33.82,59.41,32.66H30.65q0.45,1.75.74,3.55h10l-0.6,1.34h3.31L42.6,34.13"/><path class="a" d="M60.61,40.85h-15l1.59,3.55h13.4c0-.58,0-1.16,0-1.74S60.64,41.45,60.61,40.85Z"/><path class="a" d="M39.94,39.52l-0.6,1.33H31.89c0,0.72.06,1.44,0.06,2.17,0,0.46,0,.92,0,1.38h5.81l-0.6,1.33H47.82L45,39.52H39.94Z"/><path class="a" d="M60.17,49.07H49.32l-0.6-1.33H36.23l-0.6,1.33H31.52q-0.26,1.8-.67,3.55H34L33.43,54H51.51l-0.6-1.33h8.56Q59.89,50.87,60.17,49.07Z"/><path class="a" d="M42.39,0.16l2.44,4.27h16.1A42.19,42.19,0,0,0,42.39.16Z"/><path class="a" d="M65.62,7.1H46.36l3.11,5.45H72.32A42.11,42.11,0,0,0,65.62,7.1Z"/><path class="a" d="M74.82,15.27H51l1.82,3.19c0.5,0.74,1,1.5,1.43,2.27H78.72A43,43,0,0,0,74.82,15.27Z"/><path class="a" d="M80.26,23.5H55.84c0.23,0.44.46,0.88,0.67,1.33L58.88,29H82.54A42.07,42.07,0,0,0,80.26,23.5Z"/><path class="a" d="M84.43,37.16a42.4,42.4,0,0,0-1.06-5.45H60.46l0.84,1.46H59.54c0.2,0.83.38,1.68,0.52,2.53h2.69l0.84,1.46H84.43Z"/><path class="a" d="M84.68,39.9H65.16L66,41.36H60.64q0,0.64,0,1.31c0,0.41,0,.82,0,1.22h6.81l0.84,1.46H84.67q0.09-1.39.09-2.81T84.68,39.9Z"/><path class="a" d="M69.88,48.12l0.84,1.46H60.1c-0.14.85-.32,1.69-0.51,2.53H72.17L73,53.57H83.3a42.67,42.67,0,0,0,1.09-5.45H69.88Z"/><path class="a" d="M74.58,56.3l0.84,1.46H57.87c-0.33.86-.69,1.7-1.07,2.53H76.87l0.84,1.46h2.44a42.16,42.16,0,0,0,2.32-5.45H74.58Z"/><path class="a" d="M51.78,68.5H75.84c0.64-.82,1.25-1.66,1.83-2.53H53.62C53,66.84,52.43,67.68,51.78,68.5Z"/><path class="a" d="M43.23,76.72H67.37c1.09-.8,2.14-1.64,3.14-2.53H46.42Q44.88,75.53,43.23,76.72Z"/><path class="a" d="M30.11,83a42.49,42.49,0,0,0,26.69-.7H32.32C31.59,82.6,30.86,82.83,30.11,83Z"/><path class="a" d="M147.41,65.47H126.56L137,39.52ZM111,84.84h7.88l5.33-13.23h25.65l5.31,13.23h8.18L141.19,32.45h-7.88Z"/><path class="a" d="M170.58,77.36a18.81,18.81,0,0,0,8.78,2.7c3.25,0,7.24-1.35,7.24-5.48,0-7-16.62-6.38-16.62-17.11,0-8,5.92-11.79,13.53-11.79a31.08,31.08,0,0,1,8.78,1.45l-0.6,6.21a20.5,20.5,0,0,0-7.43-2c-3.62,0-6.8,1.5-6.8,4.65,0,7.8,16.63,5.55,16.63,17.78,0,8.18-6.51,11.94-13.37,11.94-3.63,0-7.29-.38-10.52-2.1Z"/><path class="a" d="M204,77.36a18.88,18.88,0,0,0,8.79,2.7c3.25,0,7.28-1.35,7.28-5.48,0-7-16.67-6.38-16.67-17.11,0-8,5.93-11.79,13.57-11.79a31.19,31.19,0,0,1,8.8,1.45l-0.59,6.21a20.57,20.57,0,0,0-7.45-2c-3.64,0-6.82,1.5-6.82,4.65,0,7.8,16.66,5.55,16.66,17.78,0,8.18-6.52,11.94-13.41,11.94-3.63,0-7.31-.38-10.53-2.1Z"/><path class="a" d="M262.07,70c0,5.69-3.68,10.06-10.67,10.06-3.24,0-7.14-2.19-7.14-6.26,0-6.79,9.48-7.39,13.3-7.39,1.5,0,3,.15,4.51.15V70ZM241.47,55.26a18.13,18.13,0,0,1,11.12-3.86c7.07,0,9.47,3.34,9.47,9.95-2.78-.15-4.73-0.15-7.52-0.15-7.29,0-17.79,3-17.79,12.6,0,8.37,5.77,12,14,12a14.24,14.24,0,0,0,11.89-5.86h0.14v4.93h6.62a59.34,59.34,0,0,1-.3-7.49V61.52c0-10.43-4.44-15.84-15.4-15.84a24.36,24.36,0,0,0-12.62,3.6Z"/><path class="a" d="M282.24,46.62h6.84v6.05h0.14c2.1-4.35,7.2-7,12.52-7,9.89,0,14.33,6.16,14.33,16.43V84.84H309V65c0-8.92-2-13.27-8.1-13.64-8,0-11.6,6.45-11.6,15.75V84.84h-7.07V46.62Z"/><path class="a" d="M347.8,53H337.67V73.88c0,4.42,2.7,6.81,5.93,6.81a8.68,8.68,0,0,0,4.8-1.35v6a22,22,0,0,1-6,1.05c-7.28,0-11.79-3.46-11.79-11.1V53H322V47.26h8.63V38.41l7.06-2.25v11.1H347.8V53Z"/><path class="a" d="M361.54,62c0.52-4.94,3.36-10.63,10.27-10.63,6.07,0,9.51,4.79,9.51,10.63H361.54ZM385.9,76.22a22.6,22.6,0,0,1-11.78,3.84,12.55,12.55,0,0,1-12.58-12.83h27.28c0-12.24-4.13-21.55-16.87-21.55-10.79,0-17.91,8-17.91,19.32,0,12.49,6.22,20.76,19.79,20.76a29.26,29.26,0,0,0,12.08-2.48V76.22Z"/><path class="a" d="M122.61,3A9.21,9.21,0,0,0,119,2.22a4.79,4.79,0,0,0-5.1,5.1c0,2.86,1.77,5,4.78,5a7.64,7.64,0,0,0,1.85-.2V8.47h-3V6.25h5.68v7.58a17.73,17.73,0,0,1-4.56.73c-4.56,0-7.72-2.28-7.72-7S113.88,0,118.66,0a13.87,13.87,0,0,1,4.13.59Z"/><path class="a" d="M128.09,0.24h8.3V2.46h-5.48V5.93h5V8.14h-5v4h5.52v2.22h-8.34V0.24Z"/><path class="a" d="M148.77,2.82a7.29,7.29,0,0,0-2.86-.6,2,2,0,0,0-2.22,2c0,2.44,6.17,1.41,6.17,6.13,0,3.08-2.44,4.25-5.28,4.25A12.4,12.4,0,0,1,141,14l0.26-2.54a6.8,6.8,0,0,0,3.18.87c1.07,0,2.5-.54,2.5-1.81,0-2.68-6.17-1.57-6.17-6.23,0-3.15,2.44-4.29,4.92-4.29A10.62,10.62,0,0,1,149,.5Z"/><path class="a" d="M156.9,2.46h-4V0.24h10.89V2.46h-4V14.31H156.9V2.46Z"/><path class="a" d="M167.22,0.24H170V14.31h-2.82V0.24Z"/><path class="a" d="M181.19,0c4.41,0,6.89,3,6.89,7.24s-2.44,7.32-6.89,7.32-6.89-3-6.89-7.32S176.71,0,181.19,0Zm0,12.34c2.88,0,4-2.56,4-5.1s-1.15-5-4-5-4,2.54-4,5S178.3,12.34,181.19,12.34Z"/><path class="a" d="M192.44,0.24h3.47l5.36,10.52h0V0.24H204V14.31h-3.45L195.18,3.79h0V14.31h-2.7V0.24Z"/><path class="a" d="M216.56,0.24h3.85c4.31,0,8.12,1.45,8.12,7s-3.81,7-8.12,7h-3.85V0.24Zm2.82,11.85H221a4.6,4.6,0,0,0,4.64-4.82A4.6,4.6,0,0,0,221,2.46h-1.57V12.1Z"/><path class="a" d="M233,0.24h8.31V2.46h-5.48V5.93h5V8.14h-5v4h5.52v2.22H233V0.24Z"/><path class="a" d="M253.43,0.24H257c3.06,0,5.87.89,5.87,4.25S260.47,9,257.44,9h-1.19v5.34h-2.82V0.24Zm2.82,6.51h1c1.41,0,2.68-.46,2.68-2.1s-1.23-2.2-2.68-2.2h-1V6.75Z"/><path class="a" d="M270.83,0.24H274l5.52,14.07h-3.12l-1.21-3.22H269.5l-1.23,3.22h-2.92Zm1.55,2.82h0l-2,5.81h4.11Z"/><path class="a" d="M285.83,2.46h-4V0.24h10.89V2.46h-4V14.31h-2.82V2.46Z"/><path class="a" d="M296.15,0.24h3c3,0,6.63-.1,6.63,3.81a3.22,3.22,0,0,1-2.9,3.27v0a2.08,2.08,0,0,1,1.49,1.45l2.26,5.5h-3.14l-1.69-4.39a1.75,1.75,0,0,0-2-1.45H299v5.85h-2.82V0.24Zm2.82,6h0.93c1.39,0,3-.2,3-2s-1.57-1.83-3-1.83H299V6.25Z"/><path class="a" d="M310.38,0.24h2.82V14.31h-2.82V0.24Z"/><path class="a" d="M318.14,0.24h4.52L326,10.91h0l3.34-10.66h4.52V14.31h-2.7V2.7h0l-3.79,11.61h-2.7L320.88,2.7l0,0V14.31h-2.7V0.24Z"/><path class="a" d="M345.29,0c4.41,0,6.89,3,6.89,7.24s-2.44,7.32-6.89,7.32-6.9-3-6.9-7.32S340.82,0,345.29,0Zm0,12.34c2.88,0,3.95-2.56,3.95-5.1s-1.15-5-3.95-5-4,2.54-4,5S342.41,12.34,345.29,12.34Z"/><path class="a" d="M356.44,0.24h2.82V14.31h-2.82V0.24Z"/><path class="a" d="M364.06,0.24h3.47l5.36,10.52h0V0.24h2.7V14.31h-3.45L366.8,3.79h0V14.31h-2.7V0.24Z"/><path class="a" d="M380.67,0.24H389V2.46h-5.48V5.93h5V8.14h-5v4H389v2.22h-8.34V0.24Z"/><path class="b" d="M122.61,3A9.21,9.21,0,0,0,119,2.22a4.79,4.79,0,0,0-5.1,5.1c0,2.86,1.77,5,4.78,5a7.64,7.64,0,0,0,1.85-.2V8.47h-3V6.25h5.68v7.58a17.73,17.73,0,0,1-4.56.73c-4.56,0-7.72-2.28-7.72-7S113.88,0,118.66,0a13.87,13.87,0,0,1,4.13.59Z"/><path class="b" d="M128.09,0.24h8.3V2.46h-5.48V5.93h5V8.14h-5v4h5.52v2.22h-8.34V0.24Z"/><path class="b" d="M148.77,2.82a7.29,7.29,0,0,0-2.86-.6,2,2,0,0,0-2.22,2c0,2.44,6.17,1.41,6.17,6.13,0,3.08-2.44,4.25-5.28,4.25A12.4,12.4,0,0,1,141,14l0.26-2.54a6.8,6.8,0,0,0,3.18.87c1.07,0,2.5-.54,2.5-1.81,0-2.68-6.17-1.57-6.17-6.23,0-3.15,2.44-4.29,4.92-4.29A10.62,10.62,0,0,1,149,.5Z"/><path class="b" d="M156.9,2.46h-4V0.24h10.89V2.46h-4V14.31H156.9V2.46Z"/><path class="b" d="M167.22,0.24H170V14.31h-2.82V0.24Z"/><path class="b" d="M181.19,0c4.41,0,6.89,3,6.89,7.24s-2.44,7.32-6.89,7.32-6.89-3-6.89-7.32S176.71,0,181.19,0Zm0,12.34c2.88,0,4-2.56,4-5.1s-1.15-5-4-5-4,2.54-4,5S178.3,12.34,181.19,12.34Z"/><path class="b" d="M192.44,0.24h3.47l5.36,10.52h0V0.24H204V14.31h-3.45L195.18,3.79h0V14.31h-2.7V0.24Z"/><path class="b" d="M216.56,0.24h3.85c4.31,0,8.12,1.45,8.12,7s-3.81,7-8.12,7h-3.85V0.24Zm2.82,11.85H221a4.6,4.6,0,0,0,4.64-4.82A4.6,4.6,0,0,0,221,2.46h-1.57V12.1Z"/><path class="b" d="M233,0.24h8.31V2.46h-5.48V5.93h5V8.14h-5v4h5.52v2.22H233V0.24Z"/><path class="b" d="M253.43,0.24H257c3.06,0,5.87.89,5.87,4.25S260.47,9,257.44,9h-1.19v5.34h-2.82V0.24Zm2.82,6.51h1c1.41,0,2.68-.46,2.68-2.1s-1.23-2.2-2.68-2.2h-1V6.75Z"/><path class="b" d="M270.83,0.24H274l5.52,14.07h-3.12l-1.21-3.22H269.5l-1.23,3.22h-2.92Zm1.55,2.82h0l-2,5.81h4.11Z"/><path class="b" d="M285.83,2.46h-4V0.24h10.89V2.46h-4V14.31h-2.82V2.46Z"/><path class="b" d="M296.15,0.24h3c3,0,6.63-.1,6.63,3.81a3.22,3.22,0,0,1-2.9,3.27v0a2.08,2.08,0,0,1,1.49,1.45l2.26,5.5h-3.14l-1.69-4.39a1.75,1.75,0,0,0-2-1.45H299v5.85h-2.82V0.24Zm2.82,6h0.93c1.39,0,3-.2,3-2s-1.57-1.83-3-1.83H299V6.25Z"/><path class="b" d="M310.38,0.24h2.82V14.31h-2.82V0.24Z"/><path class="b" d="M318.14,0.24h4.52L326,10.91h0l3.34-10.66h4.52V14.31h-2.7V2.7h0l-3.79,11.61h-2.7L320.88,2.7l0,0V14.31h-2.7V0.24Z"/><path class="b" d="M345.29,0c4.41,0,6.89,3,6.89,7.24s-2.44,7.32-6.89,7.32-6.9-3-6.9-7.32S340.82,0,345.29,0Zm0,12.34c2.88,0,3.95-2.56,3.95-5.1s-1.15-5-3.95-5-4,2.54-4,5S342.41,12.34,345.29,12.34Z"/><path class="b" d="M356.44,0.24h2.82V14.31h-2.82V0.24Z"/><path class="b" d="M364.06,0.24h3.47l5.36,10.52h0V0.24h2.7V14.31h-3.45L366.8,3.79h0V14.31h-2.7V0.24Z"/><path class="b" d="M380.67,0.24H389V2.46h-5.48V5.93h5V8.14h-5v4H389v2.22h-8.34V0.24Z"/><path class="a" d="M393.45,52.41A6.61,6.61,0,1,1,400.06,59,6.62,6.62,0,0,1,393.45,52.41Zm11.61,0a5,5,0,1,0-5,5.33A5.08,5.08,0,0,0,405.06,52.41Zm-7.55-3.77h2.78c1.8,0,2.77.62,2.77,2.2a1.87,1.87,0,0,1-2,2l2,3.28h-1.43l-1.94-3.22h-0.84v3.22h-1.39V48.63Zm1.39,3.21h1.23c0.82,0,1.54-.11,1.54-1.12s-0.81-1-1.52-1h-1.25v2.14Z"/><path class="a" d="M11,121.44a30.13,30.13,0,0,0-2.85,2.67H14A30,30,0,0,0,11,121.44Z"/><path class="a" d="M14.57,124.67H7.65a30.48,30.48,0,0,0-3.77,5.26H18.53A30.12,30.12,0,0,0,14.57,124.67Z"/><path class="a" d="M20.94,134.94c-0.29-.79-0.6-1.57-1-2.33l0,0c-0.34-.73-0.7-1.44-1.09-2.14H3.56a30,30,0,0,0-2.2,5.26H18.15l0.49-.83h2.31Z"/><path class="a" d="M22.4,140.8a29.48,29.48,0,0,0-.75-3.6H17.31l0.5-.85H1.18a30,30,0,0,0-1,5.25H14.73l0.47-.8h7.2Z"/><path class="a" d="M22.71,145.05c0-.69,0-1.38-0.07-2.06H13.92l0.49-.83H0.11Q0,143.43,0,144.72c0,0.91,0,1.81.12,2.7H11.33l0.48-.83H22.67C22.69,146.08,22.71,145.57,22.71,145.05Z"/><path class="a" d="M22.47,148.83h-12L11,148H0.18a30,30,0,0,0,1.05,5.26H7.92l0.48-.83H21.78A29,29,0,0,0,22.47,148.83Z"/><path class="a" d="M21.12,154.67h-14l0.5-.85H1.41a30.07,30.07,0,0,0,2.24,5.26H4.51L5,158.27H19.62A29.83,29.83,0,0,0,21.12,154.67Z"/><path class="a" d="M4.51,160.48a29.74,29.74,0,0,0,2.61,3.6h8.72a30,30,0,0,0,2.56-3.6H4.51Z"/><path class="a" d="M13.88,166.22H9.11a30.43,30.43,0,0,0,2.4,2.11A30.19,30.19,0,0,0,13.88,166.22Z"/><path class="a" d="M19.9,157.71H40.19q0.59-1.23,1.07-2.52H20.94Q20.48,156.48,19.9,157.71Z"/><path class="a" d="M16.29,163.54H36.51A28.85,28.85,0,0,0,38.34,161H18.08A30.22,30.22,0,0,1,16.29,163.54Z"/><path class="a" d="M11.51,168.35q0.68,0.53,1.4,1h17.3a30,30,0,0,0,3.17-2.52H13.23C12.68,167.38,12.11,167.87,11.51,168.35Z"/><path class="a" d="M21.4,173.51c0.88-.25,1.74-0.54,2.58-0.86H19Q20.16,173.13,21.4,173.51Z"/><path class="a" d="M41.16,134.4q-0.45-1.17-1-2.29L40,131.88H20.43l0.55-1H19.1c0.31,0.57.6,1.15,0.87,1.73l0,0c0.27,0.58.51,1.17,0.74,1.76H41.16Z"/><path class="a" d="M31.47,117l-1.15-2v0l-0.19-.34h0a30,30,0,0,0-13.72,3.3H28.6l0.55-.95h2.32Z"/><path class="a" d="M34.79,122.74l-1.45-2.52H27.25l0.54-.92H14a30.61,30.61,0,0,0-3,2.14,30.33,30.33,0,0,1,2.62,2.27H25.21l0.57-1h9Z"/><path class="a" d="M38.13,128.56L36.68,126H23.85l0.56-1H15a29.8,29.8,0,0,1,3.32,4.41h3.55l0.55-.94H38.13Z"/><path class="a" d="M30.94,140.23h11.8c-0.14-.86-0.31-1.69-0.52-2.52H21.78q0.32,1.24.53,2.52h7.14l-0.43.95h2.35l-1.09-2.43"/><path class="a" d="M43.08,143.53H32.43l1.13,2.52h9.52c0-.41,0-0.82,0-1.23S43.09,144,43.08,143.53Z"/><path class="a" d="M28.38,142.59l-0.43.95H22.67c0,0.51,0,1,0,1.54,0,0.33,0,.66,0,1h4.13l-0.42.95H34l-2-4.41H28.38Z"/><path class="a" d="M42.76,149.37H35l-0.43-.95H25.75l-0.42.95H22.4q-0.19,1.28-.48,2.52h2.26l-0.43.95H36.61l-0.43-.95h6.08Q42.56,150.65,42.76,149.37Z"/><path class="a" d="M30.12,114.61l1.73,3H43.3A30,30,0,0,0,30.12,114.61Z"/><path class="a" d="M46.63,119.55H32.94l2.21,3.87H51.4A29.93,29.93,0,0,0,46.63,119.55Z"/><path class="a" d="M53.17,125.35H36.26l1.3,2.26c0.35,0.53.69,1.07,1,1.61H55.94A30.54,30.54,0,0,0,53.17,125.35Z"/><path class="a" d="M57,131.2H39.68c0.16,0.31.33,0.63,0.48,0.94l1.68,2.93H58.66A29.9,29.9,0,0,0,57,131.2Z"/><path class="a" d="M60,140.91a30.13,30.13,0,0,0-.76-3.87H43l0.6,1H42.31c0.14,0.59.27,1.19,0.37,1.8H44.6l0.6,1H60Z"/><path class="a" d="M60.18,142.85H46.31l0.59,1H43.09q0,0.46,0,.93c0,0.29,0,.58,0,0.87h4.84l0.6,1H60.17q0.07-1,.07-2T60.18,142.85Z"/><path class="a" d="M49.66,148.7l0.6,1H42.71c-0.1.61-.22,1.2-0.36,1.8h8.94l0.6,1H59.2A30.32,30.32,0,0,0,60,148.7H49.66Z"/><path class="a" d="M53,154.51l0.6,1H41.13c-0.23.61-.49,1.21-0.76,1.8H54.63l0.59,1H57a30,30,0,0,0,1.65-3.87H53Z"/><path class="a" d="M36.8,163.18H53.9c0.45-.58.89-1.18,1.3-1.8H38.1C37.69,162,37.26,162.6,36.8,163.18Z"/><path class="a" d="M30.72,169H47.87c0.77-.57,1.52-1.17,2.23-1.8H33Q31.9,168.18,30.72,169Z"/><path class="a" d="M21.4,173.51a30.2,30.2,0,0,0,19-.49H23C22.45,173.2,21.93,173.36,21.4,173.51Z"/><path class="a" d="M104.76,161H89.94l7.44-18.44ZM78.85,174.79h5.6l3.79-9.4h18.23l3.77,9.4h5.81l-15.72-37.23h-5.6Z"/><path class="a" d="M121.23,169.47a13.37,13.37,0,0,0,6.24,1.92c2.31,0,5.15-1,5.15-3.89,0-5-11.81-4.54-11.81-12.16,0-5.65,4.21-8.38,9.62-8.38a22.09,22.09,0,0,1,6.24,1l-0.42,4.41a14.57,14.57,0,0,0-5.28-1.39c-2.57,0-4.83,1.07-4.83,3.31,0,5.55,11.81,3.94,11.81,12.64,0,5.81-4.63,8.49-9.5,8.49A15.63,15.63,0,0,1,121,174Z"/><path class="a" d="M145,169.47a13.42,13.42,0,0,0,6.24,1.92c2.31,0,5.17-1,5.17-3.89,0-5-11.85-4.54-11.85-12.16,0-5.65,4.22-8.38,9.64-8.38a22.16,22.16,0,0,1,6.25,1L160,152.41a14.62,14.62,0,0,0-5.29-1.39c-2.58,0-4.85,1.07-4.85,3.31,0,5.55,11.84,3.94,11.84,12.64,0,5.81-4.63,8.49-9.53,8.49a15.66,15.66,0,0,1-7.48-1.49Z"/><path class="a" d="M186.24,164.24c0,4-2.61,7.15-7.58,7.15-2.3,0-5.07-1.55-5.07-4.45,0-4.83,6.74-5.26,9.45-5.26,1.07,0,2.14.11,3.21,0.11v2.44ZM171.6,153.77a12.88,12.88,0,0,1,7.9-2.74c5,0,6.73,2.38,6.73,7.07-2-.1-3.36-0.1-5.34-0.1-5.18,0-12.64,2.11-12.64,9,0,5.95,4.1,8.51,10,8.51a10.12,10.12,0,0,0,8.45-4.16h0.1v3.5h4.7a42.17,42.17,0,0,1-.21-5.32V158.22c0-7.41-3.16-11.26-10.95-11.26a17.31,17.31,0,0,0-9,2.56Z"/><path class="a" d="M200.57,147.63h4.86v4.3h0.1c1.5-3.09,5.12-5,8.89-5,7,0,10.18,4.38,10.18,11.67v16.15h-5V160.72c0-6.34-1.39-9.43-5.76-9.7-5.69,0-8.25,4.58-8.25,11.19v12.57h-5V147.63Z"/><path class="a" d="M247.16,152.14H240V167c0,3.14,1.92,4.84,4.21,4.84a6.17,6.17,0,0,0,3.41-1v4.27a15.65,15.65,0,0,1-4.27.75c-5.17,0-8.38-2.46-8.38-7.89V152.14h-6.13v-4.06h6.13v-6.29l5-1.6v7.89h7.2v4.06Z"/><path class="a" d="M256.93,158.58c0.37-3.51,2.39-7.55,7.3-7.55,4.32,0,6.76,3.4,6.76,7.55H256.93Zm17.31,10.08a16.06,16.06,0,0,1-8.37,2.73,8.92,8.92,0,0,1-8.94-9.12h19.39c0-8.7-2.93-15.31-12-15.31-7.67,0-12.73,5.71-12.73,13.73,0,8.88,4.42,14.76,14.06,14.76a20.79,20.79,0,0,0,8.58-1.76v-5Z"/><path class="a" d="M87.13,116.61a6.55,6.55,0,0,0-2.58-.53,3.4,3.4,0,0,0-3.62,3.62,3.29,3.29,0,0,0,3.39,3.57,5.43,5.43,0,0,0,1.32-.14v-2.61H83.52v-1.58h4v5.39a12.6,12.6,0,0,1-3.24.52c-3.24,0-5.49-1.62-5.49-5s2.09-5.34,5.49-5.34a9.86,9.86,0,0,1,2.94.42Z"/><path class="a" d="M91,114.67h5.9v1.58H93v2.46H96.6v1.58H93v2.81H97v1.58H91v-10Z"/><path class="a" d="M105.72,116.51a5.18,5.18,0,0,0-2-.43,1.39,1.39,0,0,0-1.58,1.39c0,1.73,4.38,1,4.38,4.36,0,2.19-1.73,3-3.75,3a8.81,8.81,0,0,1-2.56-.39l0.19-1.8a4.83,4.83,0,0,0,2.26.62c0.76,0,1.78-.39,1.78-1.29,0-1.91-4.38-1.12-4.38-4.43,0-2.24,1.73-3.05,3.5-3.05a7.55,7.55,0,0,1,2.39.36Z"/><path class="a" d="M111.5,116.25h-2.86v-1.58h7.74v1.58H113.5v8.42h-2v-8.42Z"/><path class="a" d="M118.83,114.67h2v10h-2v-10Z"/><path class="a" d="M128.76,114.5c3.14,0,4.9,2.12,4.9,5.14s-1.73,5.2-4.9,5.2-4.9-2.13-4.9-5.2S125.58,114.5,128.76,114.5Zm0,8.77c2,0,2.81-1.82,2.81-3.62s-0.82-3.57-2.81-3.57-2.81,1.81-2.81,3.57S126.71,123.27,128.76,123.27Z"/><path class="a" d="M136.75,114.67h2.46l3.81,7.48h0v-7.48H145v10h-2.45l-3.83-7.48h0v7.48h-1.92v-10Z"/><path class="a" d="M153.9,114.67h2.74c3.06,0,5.77,1,5.77,5s-2.71,5-5.77,5H153.9v-10Zm2,8.42H157a3.43,3.43,0,0,0,0-6.85h-1.12v6.85Z"/><path class="a" d="M165.6,114.67h5.9v1.58h-3.9v2.46h3.57v1.58h-3.57v2.81h3.92v1.58H165.6v-10Z"/><path class="a" d="M180.1,114.67h2.54c2.18,0,4.17.63,4.17,3s-1.71,3.18-3.85,3.18h-0.85v3.8h-2v-10Zm2,4.63h0.7c1,0,1.91-.33,1.91-1.49s-0.87-1.56-1.91-1.56h-0.7v3.05Z"/><path class="a" d="M192.46,114.67h2.26l3.92,10h-2.22l-0.86-2.29h-4.05l-0.87,2.29h-2.08Zm1.1,2h0l-1.45,4.13H195Z"/><path class="a" d="M203.12,116.25h-2.87v-1.58H208v1.58h-2.87v8.42h-2v-8.42Z"/><path class="a" d="M210.46,114.67h2.16c2.15,0,4.71-.07,4.71,2.71a2.29,2.29,0,0,1-2.06,2.32v0a1.48,1.48,0,0,1,1.06,1l1.6,3.91H215.7l-1.2-3.12a1.25,1.25,0,0,0-1.39-1h-0.64v4.15h-2v-10Zm2,4.27h0.66c1,0,2.12-.14,2.12-1.39s-1.12-1.3-2.12-1.3h-0.66v2.69Z"/><path class="a" d="M220.57,114.67h2v10h-2v-10Z"/><path class="a" d="M226.08,114.67h3.21l2.38,7.58h0l2.38-7.58h3.21v10h-1.92v-8.25h0l-2.69,8.25h-1.92L228,116.42l0,0v8.22h-1.92v-10Z"/><path class="a" d="M245.38,114.5c3.14,0,4.9,2.12,4.9,5.14s-1.73,5.2-4.9,5.2-4.9-2.13-4.9-5.2S242.2,114.5,245.38,114.5Zm0,8.77c2,0,2.81-1.82,2.81-3.62s-0.82-3.57-2.81-3.57-2.81,1.81-2.81,3.57S243.33,123.27,245.38,123.27Z"/><path class="a" d="M253.3,114.67h2v10h-2v-10Z"/><path class="a" d="M258.72,114.67h2.46l3.81,7.48h0v-7.48h1.92v10h-2.45l-3.83-7.48h0v7.48h-1.92v-10Z"/><path class="a" d="M270.52,114.67h5.9v1.58h-3.9v2.46h3.57v1.58h-3.57v2.81h3.92v1.58h-5.93v-10Z"/><path class="b" d="M87.13,116.61a6.55,6.55,0,0,0-2.58-.53,3.4,3.4,0,0,0-3.62,3.62,3.29,3.29,0,0,0,3.39,3.57,5.43,5.43,0,0,0,1.32-.14v-2.61H83.52v-1.58h4v5.39a12.6,12.6,0,0,1-3.24.52c-3.24,0-5.49-1.62-5.49-5s2.09-5.34,5.49-5.34a9.86,9.86,0,0,1,2.94.42Z"/><path class="b" d="M91,114.67h5.9v1.58H93v2.46H96.6v1.58H93v2.81H97v1.58H91v-10Z"/><path class="b" d="M105.72,116.51a5.18,5.18,0,0,0-2-.43,1.39,1.39,0,0,0-1.58,1.39c0,1.73,4.38,1,4.38,4.36,0,2.19-1.73,3-3.75,3a8.81,8.81,0,0,1-2.56-.39l0.19-1.8a4.83,4.83,0,0,0,2.26.62c0.76,0,1.78-.39,1.78-1.29,0-1.91-4.38-1.12-4.38-4.43,0-2.24,1.73-3.05,3.5-3.05a7.55,7.55,0,0,1,2.39.36Z"/><path class="b" d="M111.5,116.25h-2.86v-1.58h7.74v1.58H113.5v8.42h-2v-8.42Z"/><path class="b" d="M118.83,114.67h2v10h-2v-10Z"/><path class="b" d="M128.76,114.5c3.14,0,4.9,2.12,4.9,5.14s-1.73,5.2-4.9,5.2-4.9-2.13-4.9-5.2S125.58,114.5,128.76,114.5Zm0,8.77c2,0,2.81-1.82,2.81-3.62s-0.82-3.57-2.81-3.57-2.81,1.81-2.81,3.57S126.71,123.27,128.76,123.27Z"/><path class="b" d="M136.75,114.67h2.46l3.81,7.48h0v-7.48H145v10h-2.45l-3.83-7.48h0v7.48h-1.92v-10Z"/><path class="b" d="M153.9,114.67h2.74c3.06,0,5.77,1,5.77,5s-2.71,5-5.77,5H153.9v-10Zm2,8.42H157a3.43,3.43,0,0,0,0-6.85h-1.12v6.85Z"/><path class="b" d="M165.6,114.67h5.9v1.58h-3.9v2.46h3.57v1.58h-3.57v2.81h3.92v1.58H165.6v-10Z"/><path class="b" d="M180.1,114.67h2.54c2.18,0,4.17.63,4.17,3s-1.71,3.18-3.85,3.18h-0.85v3.8h-2v-10Zm2,4.63h0.7c1,0,1.91-.33,1.91-1.49s-0.87-1.56-1.91-1.56h-0.7v3.05Z"/><path class="b" d="M192.46,114.67h2.26l3.92,10h-2.22l-0.86-2.29h-4.05l-0.87,2.29h-2.08Zm1.1,2h0l-1.45,4.13H195Z"/><path class="b" d="M203.12,116.25h-2.87v-1.58H208v1.58h-2.87v8.42h-2v-8.42Z"/><path class="b" d="M210.46,114.67h2.16c2.15,0,4.71-.07,4.71,2.71a2.29,2.29,0,0,1-2.06,2.32v0a1.48,1.48,0,0,1,1.06,1l1.6,3.91H215.7l-1.2-3.12a1.25,1.25,0,0,0-1.39-1h-0.64v4.15h-2v-10Zm2,4.27h0.66c1,0,2.12-.14,2.12-1.39s-1.12-1.3-2.12-1.3h-0.66v2.69Z"/><path class="b" d="M220.57,114.67h2v10h-2v-10Z"/><path class="b" d="M226.08,114.67h3.21l2.38,7.58h0l2.38-7.58h3.21v10h-1.92v-8.25h0l-2.69,8.25h-1.92L228,116.42l0,0v8.22h-1.92v-10Z"/><path class="b" d="M245.38,114.5c3.14,0,4.9,2.12,4.9,5.14s-1.73,5.2-4.9,5.2-4.9-2.13-4.9-5.2S242.2,114.5,245.38,114.5Zm0,8.77c2,0,2.81-1.82,2.81-3.62s-0.82-3.57-2.81-3.57-2.81,1.81-2.81,3.57S243.33,123.27,245.38,123.27Z"/><path class="b" d="M253.3,114.67h2v10h-2v-10Z"/><path class="b" d="M258.72,114.67h2.46l3.81,7.48h0v-7.48h1.92v10h-2.45l-3.83-7.48h0v7.48h-1.92v-10Z"/><path class="b" d="M270.52,114.67h5.9v1.58h-3.9v2.46h3.57v1.58h-3.57v2.81h3.92v1.58h-5.93v-10Z"/><path class="a" d="M279.6,151.74a4.7,4.7,0,1,1,4.7,4.7A4.71,4.71,0,0,1,279.6,151.74Zm8.25,0a3.56,3.56,0,1,0-3.55,3.79A3.61,3.61,0,0,0,287.86,151.74Zm-5.36-2.68h2c1.28,0,2,.44,2,1.56a1.33,1.33,0,0,1-1.39,1.43l1.43,2.33h-1l-1.38-2.29h-0.6v2.29h-1v-5.32Zm1,2.28h0.87c0.59,0,1.09-.08,1.09-0.79s-0.57-.73-1.08-0.73h-0.89v1.52Z"/><path class="a" d="M13.89,261.7v1.51C12,263.16,10.17,263.1,7,263.1s-5,.06-7,0.12V261.7l4.3-.23c0.12-3.14.06-3.84,0.06-11.39,0-20,.06-22.2-0.06-26L0,223.81V222.3c1.92,0.06,3.72.12,7,.12s4.94-.06,6.92-0.12v1.51L9.65,224c-0.12,3.14-.17,3.84-0.17,11.39,0,20,0,22.2.17,26Z"/><path class="a" d="M17.2,261.7l3.08-.06V241.36L17,241.25v-2.32l7-.81c0,1.69.12,2.15,0.7,2.15s4.47-2.38,9.3-2.38c4.53,0,7.38,2.32,7.38,7v16.74l3.08,0.06v1.39H34.29V261.7l3-.06V245.2c0-3.89-.87-5.58-5.52-5.58A15,15,0,0,0,25,241.13c-0.35.23-.58,0.76-0.58,2.27v18.25l3,0.06v1.39H17.2V261.7Z"/><path class="a" d="M46.15,261.7l4-.06V240.84l-4,.06V239l4-.17c0-7.09.06-11.27,2.5-15.05,1.34-2.15,3.14-3.84,6.22-3.84a66.19,66.19,0,0,1,7.09.7l-0.41,3.14a92.89,92.89,0,0,0-9.59-1c-1.16,0-1.45.64-1.57,2.27-0.29,4.94-.23,9.18-0.12,13.6l6.68-.29v2.09l-6,.23c-0.52.06-.64,0.23-0.64,1.22v19.76l4.53,0.06v1.39H46.15V261.7Z"/><path class="a" d="M73.7,237.64c9.24,0,11.68,7.38,11.68,12.55C85.38,257.35,81,264,73.23,264c-6,0-12.26-4.24-12.26-12.9C61,240.78,68,237.64,73.7,237.64Zm-0.52,25.11c5.35,0,7.79-5.81,7.79-12,0-6.62-2.62-11.86-7.32-11.86-3.08,0-8.25,2.73-8.25,12C65.39,257.06,68.29,262.75,73.17,262.75Z"/><path class="c" d="M126.3,249.34c-0.52,3.89-.64,8.72-0.7,9.59A33.22,33.22,0,0,1,108,264.1c-13,0-20.57-10.63-20.57-21.27s7.32-21.5,20.51-21.5c7.61,0,13.6,3.89,14.7,3.89a1.22,1.22,0,0,0,1-1.1h2.15L126,235.86h-1.86c-2.15-6.86-6.45-12.67-14.24-12.67-9.47,0-14.65,9.18-14.65,18.89,0,11,6.28,20.05,15.46,20.05,10.05,0,13.08-9.94,13.95-12.79h1.69Z"/><path class="c" d="M129.5,263.05v-1.74l3.25-.06V230.8c0-1.39-.12-7.26-0.17-7.5s-0.29-.47-3.84-0.41v-2.21a70.56,70.56,0,0,0,10.29-1v41.55l3.25,0.06v1.74H129.5Z"/><path class="c" d="M144,261.31l3.31-.06V242.83c0-1.51-.29-1.74-2.91-1.92V239l9.18-1v23.3l3.25,0.06v1.74H144v-1.74Zm7.21-38.94a3.18,3.18,0,0,1,3.31,3.26,4,4,0,0,1-3.89,4.07,3,3,0,0,1-3.2-3.31A3.72,3.72,0,0,1,151.24,222.37Z"/><path class="c" d="M181.17,257.07c-1.22,2.15-4,6.92-11.27,6.92-6.57,0-12-4.53-12-12.84,0-7.85,5.23-13.54,12.84-13.54,7.32,0,10.34,5.35,10.34,9.36a1.1,1.1,0,0,1-1.34,1.22H165.13c-1,0-1.28.35-1.28,1.8,0,3.14,1.28,10.52,8.48,10.52a8.66,8.66,0,0,0,7.56-4.18Zm-7.61-10.52c1.39,0,1.74-.35,1.74-1.8,0-2.67-1.28-5.64-4.48-5.64-4.18,0-6.22,5.35-6.22,6.92,0,0.29.23,0.52,1.16,0.52h7.79Z"/><path class="c" d="M182.39,261.31l3-.06V241.67l-3.54-.12v-2.67l9.36-.93c0,2.09.23,2.27,0.58,2.27,0.76,0,5.11-2.38,9.36-2.38,5.06,0,7.38,2.44,7.38,7.55v15.87l3.08,0.06v1.74H199.24v-1.74l3-.06V244.11c0-2.79-1.16-3.72-4.42-3.72-2.73,0-5.06.7-5.64,1.22s-0.52,1-.52,2.67v17l3.08,0.06v1.74H182.39v-1.74Z"/><path class="c" d="M228.77,262a31.3,31.3,0,0,1-8.25,1.74c-4.65,0-5.46-2.56-5.4-6.92l0.17-15.58h-3.72v-2.38h2.79c0.93,0,1-.17,1-1.22l0.12-9.36h6.16l-0.12,10,7.26-.35v2.79c-6.51.12-6.86,0.29-7.09,0.81a23.79,23.79,0,0,0-.29,3.6l-0.17,10.69c-0.06,5,1.22,5.46,3.49,5.46a15.88,15.88,0,0,0,4.07-.52V262Z"/><path class="c" d="M251.2,257.07c-1.22,2.15-4,6.92-11.27,6.92-6.57,0-12-4.53-12-12.84,0-7.85,5.23-13.54,12.84-13.54,7.32,0,10.34,5.35,10.34,9.36a1.1,1.1,0,0,1-1.34,1.22H235.16c-1,0-1.28.35-1.28,1.8,0,3.14,1.28,10.52,8.48,10.52a8.65,8.65,0,0,0,7.56-4.18Zm-18.89-28.19a2.65,2.65,0,0,1-1.57-2.27,2.17,2.17,0,0,1,2.15-2.27c1.1,0,1.63.52,2.79,1.74l8.19,8.6h-1.57Zm11.28,17.67c1.39,0,1.74-.35,1.74-1.8,0-2.67-1.28-5.64-4.48-5.64-4.18,0-6.22,5.35-6.22,6.92,0,0.29.23,0.52,1.16,0.52h7.79Z"/><path class="c" d="M252.31,263.05v-1.74l3.25-.06V230.8c0-1.39-.12-7.26-0.17-7.5s-0.29-.47-3.84-0.41v-2.21a70.56,70.56,0,0,0,10.29-1v41.55l3.25,0.06v1.74H252.31Z"/><path class="c" d="M289.62,257.07c-1.22,2.15-4,6.92-11.27,6.92-6.57,0-12-4.53-12-12.84,0-7.85,5.23-13.54,12.84-13.54,7.32,0,10.34,5.35,10.34,9.36a1.1,1.1,0,0,1-1.34,1.22H273.58c-1,0-1.28.35-1.28,1.8,0,3.14,1.28,10.52,8.48,10.52a8.66,8.66,0,0,0,7.56-4.18ZM282,246.55c1.39,0,1.74-.35,1.74-1.8,0-2.67-1.28-5.64-4.48-5.64-4.18,0-6.22,5.35-6.22,6.92,0,0.29.23,0.52,1.16,0.52H282Z"/><path class="d" d="M31.28,368.7v3.4c-4.19-.13-8.38-0.26-15.58-0.26S4.45,372,0,372.11v-3.4l9.69-.52c0.26-7.07.13-8.64,0.13-25.66,0-45,.13-50-0.13-58.64L0,283.36V280c4.32,0.13,8.38.26,15.71,0.26s11.13-.13,15.58-0.26v3.4l-9.56.52c-0.26,7.07-.39,8.64-0.39,25.66,0,45,0,50,.39,58.64Z"/><path class="d" d="M38.75,368.7l6.94-.13V322.89l-7.33-.26v-5.24l15.84-1.83c0,3.8.26,4.84,1.57,4.84S65.84,315,76.71,315c10.21,0,16.62,5.24,16.62,15.84v37.7l6.94,0.13v3.14h-23V368.7l6.68-.13v-37c0-8.77-2-12.57-12.43-12.57-4.45,0-11.52,1.18-15.05,3.4-0.79.52-1.31,1.7-1.31,5.1v41.1l6.81,0.13v3.14H38.75V368.7Z"/><path class="d" d="M103.94,368.7l8.9-.13V321.71l-8.9.13v-4.19l8.9-.39c0-16,.13-25.39,5.63-33.9,3-4.84,7.07-8.64,14-8.64,2.88,0,6.41.39,16,1.57l-0.92,7.07c-6.94-.79-14.92-2.36-21.6-2.36-2.62,0-3.27,1.44-3.53,5.1-0.65,11.13-.52,20.68-0.26,30.63l15.05-.65v4.71l-13.48.52c-1.18.13-1.44,0.52-1.44,2.75v44.5l10.21,0.13v3.14H103.94V368.7Z"/><path class="d" d="M166,314.52c20.81,0,26.31,16.62,26.31,28.27,0,16.1-9.82,31.15-27.36,31.15-13.61,0-27.62-9.55-27.62-29.06C137.32,321.58,153.15,314.52,166,314.52Zm-1.18,56.55c12,0,17.54-13.09,17.54-27,0-14.92-5.89-26.7-16.49-26.7-6.94,0-18.59,6.15-18.59,27C147.26,358.23,153.81,371.06,164.8,371.06Z"/><path class="d" d="M284.46,340.86c-1.18,8.77-1.44,19.63-1.57,21.6a74.82,74.82,0,0,1-39.66,11.65c-29.19,0-46.34-24-46.34-47.91s16.49-48.43,46.2-48.43c17.15,0,30.63,8.77,33.12,8.77,1.57,0,2.23-1.7,2.36-2.49h4.84l0.26,26.44h-4.19C274.64,295,265,282,247.42,282c-21.34,0-33,20.68-33,42.54,0,24.74,14.14,45.16,34.82,45.16,22.64,0,29.45-22.38,31.41-28.8h3.8Z"/><path class="d" d="M291.67,371.74v-3.93l7.33-.13V299.1c0-3.14-.26-16.36-0.39-16.88s-0.65-1-8.64-.92v-5c12.83-.65,17.54-1.18,23.17-2.23v93.59l7.33,0.13v3.93h-28.8Z"/><path class="d" d="M324.39,367.82l7.46-.13V326.19c0-3.4-.65-3.93-6.54-4.32v-4.32L346,315.2v52.49l7.33,0.13v3.93H324.39v-3.93Zm16.23-87.7a7.17,7.17,0,0,1,7.46,7.33,9,9,0,0,1-8.77,9.16c-4.58,0-7.2-3-7.2-7.46C332.12,284.18,335.26,280.12,340.62,280.12Z"/><path class="d" d="M408,358.26c-2.75,4.84-8.9,15.58-25.39,15.58-14.79,0-27-10.21-27-28.93,0-17.67,11.78-30.5,28.93-30.5,16.49,0,23.3,12,23.3,21.07,0,1.83-.79,2.75-3,2.75h-33c-2.36,0-2.88.78-2.88,4.06,0,7.07,2.88,23.69,19.11,23.69,9.29,0,14-5.11,17-9.42Zm-17.15-23.69c3.14,0,3.93-.79,3.93-4.06,0-6-2.88-12.7-10.08-12.7-9.42,0-14,12-14,15.58,0,0.65.52,1.18,2.62,1.18h17.54Z"/><path class="d" d="M410.79,367.82l6.81-.13V323.58l-8-.26v-6l21.07-2.1c0,4.71.52,5.11,1.31,5.11,1.7,0,11.52-5.37,21.07-5.37,11.39,0,16.62,5.5,16.62,17v35.73l6.94,0.13v3.93H448.75v-3.93l6.81-.13V329.08c0-6.28-2.62-8.38-9.95-8.38-6.15,0-11.39,1.57-12.7,2.75s-1.18,2.22-1.18,6v38.22l6.94,0.13v3.93H410.79v-3.93Z"/><path class="d" d="M515.24,369.39c-2.75.92-12,3.93-18.59,3.93-10.47,0-12.3-5.76-12.17-15.58l0.39-35.08H476.5v-5.37h6.28c2.09,0,2.22-.39,2.22-2.75l0.26-21.07h13.87L498.88,316l16.36-.79v6.28c-14.66.26-15.44,0.65-16,1.83-0.52,1.44-.52,6.41-0.65,8.12l-0.39,24.08c-0.13,11.26,2.75,12.31,7.85,12.31a35.76,35.76,0,0,0,9.16-1.18v2.75Z"/><path class="d" d="M565.77,358.26c-2.75,4.84-8.9,15.58-25.39,15.58-14.79,0-27-10.21-27-28.93,0-17.67,11.78-30.5,28.93-30.5,16.49,0,23.3,12,23.3,21.07,0,1.83-.79,2.75-3,2.75h-33c-2.36,0-2.88.78-2.88,4.06,0,7.07,2.88,23.69,19.11,23.69,9.3,0,14-5.11,17-9.42Zm-42.54-63.48c-2.09-1.31-3.53-2.75-3.53-5.1a4.9,4.9,0,0,1,4.84-5.11c2.49,0,3.66,1.18,6.28,3.93l18.45,19.37h-3.53Zm25.39,39.79c3.14,0,3.93-.79,3.93-4.06,0-6-2.88-12.7-10.08-12.7-9.42,0-14,12-14,15.58,0,0.65.52,1.18,2.62,1.18h17.54Z"/><path class="d" d="M568.26,371.74v-3.93l7.33-.13V299.1c0-3.14-.26-16.36-0.39-16.88s-0.65-1-8.64-.92v-5c12.83-.65,17.54-1.18,23.17-2.23v93.59l7.33,0.13v3.93h-28.8Z"/><path class="d" d="M652.29,358.26c-2.75,4.84-8.9,15.58-25.39,15.58-14.79,0-27-10.21-27-28.93,0-17.67,11.78-30.5,28.93-30.5,16.49,0,23.3,12,23.3,21.07,0,1.83-.79,2.75-3,2.75h-33c-2.36,0-2.88.78-2.88,4.06,0,7.07,2.88,23.69,19.11,23.69,9.29,0,14-5.11,17-9.42Zm-17.15-23.69c3.14,0,3.93-.79,3.93-4.06,0-6-2.88-12.7-10.08-12.7-9.42,0-14,12-14,15.58,0,0.65.52,1.18,2.62,1.18h17.54Z"/></svg>
