<svg xmlns="http://www.w3.org/2000/svg" viewBox="0 0 743.1 374.1" width="743.1px" height="374.1px"><defs><style>.a{fill:#003e51;}.b{fill:#a99a6f;}.c{fill:#fff;}</style></defs><title>logos</title><path class="a" d="M13.9,261.7v1.5c-0.9,0-1.9-.1-2.9-0.1H3c-1,0-2,0-3,.1v-1.5l4.3-.2c0-.8.1-1.5,0.1-2V224.1L0,223.8v-1.5l3,0.1h7.9s2,0,3-.1v1.5l-4.3.2c0,0.8-.1,1.5-0.1,2a14.8,14.8,0,0,1-.1,2v31.5a12.75,12.75,0,0,0,.1,1.9Zm3.2,0,3.1-.1V241.3l-3.2-.1v-2.3l7-.8a6.7,6.7,0,0,0,.1,1.7,0.55,0.55,0,0,0,.6.4,2.18,2.18,0,0,0,1-.4,13.77,13.77,0,0,1,2-.8,18.7,18.7,0,0,1,2.8-.8,12.67,12.67,0,0,1,3.4-.4,8.12,8.12,0,0,1,5.4,1.7,6.78,6.78,0,0,1,2,5.3v16.7l3.1,0.1V263H34.2v-1.3l3-.1V245.2a16.86,16.86,0,0,0-.2-2.5,3,3,0,0,0-.8-1.7,3.23,3.23,0,0,0-1.7-1,10.88,10.88,0,0,0-2.8-.3,10.29,10.29,0,0,0-1.7.1l-1.8.3a12.09,12.09,0,0,0-1.8.5,9.75,9.75,0,0,0-1.4.6,0.92,0.92,0,0,0-.4.6,6.66,6.66,0,0,0-.1,1.6v18.3l3,0.1v1.4H17.1v-1.5h0Zm39.3,2.4-8.7-21.8-0.5-1.1a1,1,0,0,0-.5-0.6,0.86,0.86,0,0,0-.6-0.3c-0.2,0-.5-0.1-0.9-0.1v-1.6H54v1.6a8.71,8.71,0,0,0-1.9.1,0.69,0.69,0,0,0-.5.3l0.2,0.7c0.1,0.4.3,0.8,0.4,1.3l0.5,1.4a2.3,2.3,0,0,1,.3.9l5.2,14,6.4-15.6a1.69,1.69,0,0,1,.2-0.5,4.87,4.87,0,0,0,.3-0.7,1.85,1.85,0,0,0,.2-0.7,1,1,0,0,0,.1-0.4,0.42,0.42,0,0,0-.4-0.4,8.2,8.2,0,0,0-1.9-.1v-2H69v1.7a3.37,3.37,0,0,0-1.2.4,1.78,1.78,0,0,0-.8.7,7.38,7.38,0,0,0-.8,1.3c-0.3.6-.6,1.4-1,2.4l-8,19.1H56.4Zm35-6.7c-0.3.5-.6,1.1-1.1,1.8a9.68,9.68,0,0,1-1.9,2.2,11.23,11.23,0,0,1-2.8,1.8,9.83,9.83,0,0,1-4,.8,12.29,12.29,0,0,1-4.7-.9,11.19,11.19,0,0,1-3.8-2.6,13.81,13.81,0,0,1-2.6-4,14.56,14.56,0,0,1-.9-5.2,16.22,16.22,0,0,1,.8-4.9,12.62,12.62,0,0,1,2.4-4.4,11.52,11.52,0,0,1,3.8-3.1,10.79,10.79,0,0,1,5.2-1.2,9.33,9.33,0,0,1,4.7,1.1,10.29,10.29,0,0,1,2.9,2.5,10,10,0,0,1,1.5,2.9,8.43,8.43,0,0,1,.4,2.3,2,2,0,0,1-.2.9,1.06,1.06,0,0,1-1,.3H74.6a0.86,0.86,0,0,0-.8.3,4.24,4.24,0,0,0-.2,2,14.38,14.38,0,0,0,.6,4,10.41,10.41,0,0,0,1.9,3.6,9.41,9.41,0,0,0,3,2.6,9.57,9.57,0,0,0,7,.6,5.48,5.48,0,0,0,2-1.1,6.2,6.2,0,0,0,1.4-1.4c0.4-.5.7-1,1-1.4Zm-5.3-11a2.25,2.25,0,0,0,1-.1,0.56,0.56,0,0,0,.2-0.6l-0.2-1.6s-0.4-1.5-.7-2.3a5.26,5.26,0,0,0-1.6-2,4.28,4.28,0,0,0-2.8-.9,6.4,6.4,0,0,0-3.4.9,7.28,7.28,0,0,0-2.4,2.2,7.91,7.91,0,0,0-1.5,2.4,6.76,6.76,0,0,0-.5,1.7q0,0.3.6,0.3H86.1Zm7.5,9.8H95a11.52,11.52,0,0,0,.6,2.1,7,7,0,0,0,1.1,2.1,5.51,5.51,0,0,0,1.7,1.7,4.89,4.89,0,0,0,2.5.7,4.1,4.1,0,0,0,3.3-1.5,3.61,3.61,0,0,0,.8-1.5,4.67,4.67,0,0,0,.3-1.7,5.47,5.47,0,0,0-.8-2.9,8,8,0,0,0-2-2.1c-0.8-.6-1.7-1.2-2.6-1.8s-1.8-1.2-2.6-1.8a8.33,8.33,0,0,1-2-2.2,6.21,6.21,0,0,1-.8-3.1,5.83,5.83,0,0,1,.6-2.6,8,8,0,0,1,1.5-2.1,8.84,8.84,0,0,1,2.3-1.4,8.67,8.67,0,0,1,2.8-.5,10.32,10.32,0,0,1,2,.2c0.6,0.2,1.1.3,1.6,0.5a10.09,10.09,0,0,1,1.5.7,3.94,3.94,0,0,0,1.5.6l0.1,4.8H107l-0.6-2.1a9.54,9.54,0,0,0-.9-1.8,4.07,4.07,0,0,0-1.4-1.2,3.94,3.94,0,0,0-2-.5,4.38,4.38,0,0,0-3.2,1.2,3.49,3.49,0,0,0-1.3,2.7,4.07,4.07,0,0,0,.8,2.4,12.87,12.87,0,0,0,2.1,1.9c0.9,0.6,1.8,1.2,2.7,1.7a18.47,18.47,0,0,1,2.7,1.9A7.91,7.91,0,0,1,108,253a5.78,5.78,0,0,1,.8,3.3,6.83,6.83,0,0,1-.7,3.2,8.88,8.88,0,0,1-1.8,2.4,10.38,10.38,0,0,1-2.5,1.5,9.18,9.18,0,0,1-2.8.5,11.28,11.28,0,0,1-3-.4c-1.1-.3-2.5-0.8-4.1-1.4Zm31.6,6.1c-1.2.4-2.2,0.8-3.1,1a9.24,9.24,0,0,1-2.9.4,5.15,5.15,0,0,1-4.1-1.5c-0.9-1-1.3-2.9-1.2-5.6l0.2-15.8-3.6.2v-1.8l2.7-.1a0.77,0.77,0,0,0,.9-0.8l0.1-10h4.1l-0.1,10.6c0.9,0,1.7-.1,2.3-0.1s1.2-.1,1.7-0.1,1-.1,1.4-0.1,1-.1,1.6-0.2v2.2h-4.1s-1.3.1-1.8,0.1a3,3,0,0,0-.9.2l-0.2.3a0.92,0.92,0,0,0-.1.6v2.6l-0.1,9.9c0,1.5,0,2.8.1,3.7a6.38,6.38,0,0,0,.6,2.3,2.33,2.33,0,0,0,1.2,1.2,4.85,4.85,0,0,0,1.8.3,12.86,12.86,0,0,0,3.5-.5v1h0Zm0-11.2a15.4,15.4,0,0,1,1.2-6.5,12.11,12.11,0,0,1,3.1-4.2,10.89,10.89,0,0,1,4.1-2.2,17.23,17.23,0,0,1,4.4-.6,12,12,0,0,1,5.7,1.2,11,11,0,0,1,3.6,3.1,12.76,12.76,0,0,1,1.9,4.1,20.8,20.8,0,0,1,.5,4.1,18.21,18.21,0,0,1-.8,5.2,11.79,11.79,0,0,1-2.4,4.4,11.52,11.52,0,0,1-3.8,3.1,10.79,10.79,0,0,1-5.2,1.2,14.23,14.23,0,0,1-4.5-.8,9.84,9.84,0,0,1-3.9-2.4,13,13,0,0,1-2.8-4,14.12,14.12,0,0,1-1.1-5.7h0Zm4.4-.2a21.19,21.19,0,0,0,.5,4.4,14.35,14.35,0,0,0,1.5,3.8,8.66,8.66,0,0,0,2.4,2.6,5.18,5.18,0,0,0,3.3,1,6,6,0,0,0,3.5-1,7.81,7.81,0,0,0,2.4-2.7,14.25,14.25,0,0,0,1.4-3.8,21.38,21.38,0,0,0,.5-4.5,21.61,21.61,0,0,0-.5-4.6,14.25,14.25,0,0,0-1.4-3.8,7,7,0,0,0-2.3-2.5,5.38,5.38,0,0,0-3.1-.9,6.9,6.9,0,0,0-2.6.6,7.86,7.86,0,0,0-2.7,1.9,8.79,8.79,0,0,0-2.1,3.7,18.4,18.4,0,0,0-.8,5.8h0Zm22.9,10.8,3.1-.1V243.8a10.32,10.32,0,0,0-.1-1.9,0.91,0.91,0,0,0-.2-0.8,1,1,0,0,0-.4-0.1c-0.2,0-.5-0.1-0.8-0.1a2.77,2.77,0,0,1-.9-0.1h-0.9v-2l7-.9,0.2,2.2,0.1,0.7c0.1,0.2.1,0.3,0.3,0.3a2.23,2.23,0,0,0,.7-0.6,5.79,5.79,0,0,1,1.4-1.2,19.59,19.59,0,0,1,2.1-1.2,5.83,5.83,0,0,1,2.6-.6,3.4,3.4,0,0,1,1,.1,0.51,0.51,0,0,1,.6.5v0.6a3.75,3.75,0,0,1-.1,1l-0.1.9s-0.1.5-.1,0.6a0.1,0.1,0,0,1-.1.1,1.76,1.76,0,0,0-.6.1,8.17,8.17,0,0,0-1.4.1h-2.5a12.17,12.17,0,0,0-2.1.1,8.09,8.09,0,0,0-1.1.3,1.06,1.06,0,0,0-.4.6,3.08,3.08,0,0,0-.1,1v18.1l3.8,0.1v1.4H152.4v-1.4h0.1Z"/><path class="b" d="M173.3,243a22.11,22.11,0,0,1,1.6-8.7,21.69,21.69,0,0,1,4.5-6.9,21.23,21.23,0,0,1,6.8-4.5,22,22,0,0,1,8.6-1.6,23.14,23.14,0,0,1,8.6,1.5,18.88,18.88,0,0,1,6.6,4.3,20.65,20.65,0,0,1,4.2,6.6,23.2,23.2,0,0,1,1.5,8.4,23.64,23.64,0,0,1-1.3,7.8,22.89,22.89,0,0,1-3.9,7,18.85,18.85,0,0,1-6.6,5.1,21.18,21.18,0,0,1-9.3,1.9,23.2,23.2,0,0,1-8.4-1.5,20.5,20.5,0,0,1-6.8-4.2,18.83,18.83,0,0,1-4.5-6.7,22.21,22.21,0,0,1-1.6-8.5h0Zm7.8-.2a28.64,28.64,0,0,0,1.1,8,20.43,20.43,0,0,0,3,6.3,14.2,14.2,0,0,0,4.4,4.1,10.06,10.06,0,0,0,5.2,1.5,9,9,0,0,0,5.8-1.9,16.49,16.49,0,0,0,4.1-4.9,24.13,24.13,0,0,0,2.4-6.5,30.59,30.59,0,0,0,0-13.9,21.67,21.67,0,0,0-2.4-6.3,14,14,0,0,0-4.1-4.6,9.53,9.53,0,0,0-5.8-1.8,13.44,13.44,0,0,0-4,.8,10.49,10.49,0,0,0-4.5,3,17.1,17.1,0,0,0-3.7,6.1,28.31,28.31,0,0,0-1.5,10.1h0Zm36.5,18.5,3-.1V241.7l-3.5-.1v-2.7l9.4-.9a7.71,7.71,0,0,0,.1,1.9,0.42,0.42,0,0,0,.4.3,3.14,3.14,0,0,0,1.2-.4,17.69,17.69,0,0,1,2.2-.8,22.89,22.89,0,0,1,2.8-.8,11,11,0,0,1,3.1-.4c2.6,0,4.4.6,5.6,1.9s1.8,3.1,1.8,5.7v15.9l3.1,0.1v1.7H234.4v-1.7l3-.1V244.1c0-1.4-.3-2.4-1-2.9a5.85,5.85,0,0,0-3.4-.8,12.76,12.76,0,0,0-3.6.4,5.7,5.7,0,0,0-2,.8,1.35,1.35,0,0,0-.5.9c0,0.3-.1.9-0.1,1.8v17l3.1,0.1v1.7H217.5l0.1-1.8h0Zm30.4,1.8v-1.7l3.3-.1V229.1s0-1.6-.1-2.5a14.12,14.12,0,0,0-.1-2.2v-1.1a0.1,0.1,0,0,0-.1-0.1,0.62,0.62,0,0,0-.5-0.1c-0.3,0-.6-0.1-1.1-0.1h-2.1v-2.3c1.4-.1,2.7-0.1,3.7-0.2s1.9-.1,2.7-0.2,1.5-.2,2.1-0.3,1.2-.2,1.9-0.3v41.6l3.3,0.1v1.7H248Zm14.5-1.8,3.3-.1V242.8a2.07,2.07,0,0,0-.5-1.5,6.13,6.13,0,0,0-2.4-.5v-1.9l9.2-1v23.3l3.3,0.1V263H262.6l-0.1-1.7h0Zm3.4-34.9a3.86,3.86,0,0,1,1-2.8,3.49,3.49,0,0,1,2.8-1.2,4,4,0,0,1,2.3.8,2.84,2.84,0,0,1,1,2.4,4,4,0,0,1-1.2,2.9,3.73,3.73,0,0,1-2.7,1.2,3.24,3.24,0,0,1-2.4-.9,3.65,3.65,0,0,1-.8-2.4h0Zm10.8,34.9,3-.1V241.7l-3.5-.1v-2.7l9.4-.9a7.71,7.71,0,0,0,.1,1.9,0.42,0.42,0,0,0,.4.3,3.14,3.14,0,0,0,1.2-.4,17.69,17.69,0,0,1,2.2-.8,22.89,22.89,0,0,1,2.8-.8,11,11,0,0,1,3.1-.4c2.6,0,4.4.6,5.6,1.9s1.8,3.1,1.8,5.7v15.9l3.1,0.1v1.7H293.5v-1.7l3-.1V244.1c0-1.4-.3-2.4-1-2.9a5.85,5.85,0,0,0-3.4-.8,12.76,12.76,0,0,0-3.6.4,5.7,5.7,0,0,0-2,.8,1.35,1.35,0,0,0-.5.9c0,0.3-.1.9-0.1,1.8v17l3.1,0.1v1.7H276.6l0.1-1.8h0Zm53.3-4.2c-0.3.5-.7,1.2-1.2,2a9,9,0,0,1-2.1,2.3,16.88,16.88,0,0,1-3.3,1.9,13.19,13.19,0,0,1-4.7.8,13.89,13.89,0,0,1-4.6-.8,10.94,10.94,0,0,1-3.8-2.5,12.58,12.58,0,0,1-2.6-4,16.12,16.12,0,0,1-.1-10.9,13.38,13.38,0,0,1,2.6-4.3,12,12,0,0,1,4.1-2.8,12.7,12.7,0,0,1,5.2-1,11.26,11.26,0,0,1,4.7.9,9.75,9.75,0,0,1,3.2,2.3,9.23,9.23,0,0,1,1.8,3,9.48,9.48,0,0,1,.6,3.2,1.09,1.09,0,0,1-1.3,1.2H314a1.18,1.18,0,0,0-1,.3,2.59,2.59,0,0,0-.2,1.5,18.85,18.85,0,0,0,.3,3,11.18,11.18,0,0,0,1.2,3.5,8.94,8.94,0,0,0,2.6,2.9,7.39,7.39,0,0,0,4.4,1.2,7.32,7.32,0,0,0,2.7-.4,10.24,10.24,0,0,0,2.1-1,10.71,10.71,0,0,0,1.6-1.4l1.2-1.5,1.1,0.6h0Zm-7.6-10.5a2.21,2.21,0,0,0,1.4-.3,2.37,2.37,0,0,0,.3-1.5,6.93,6.93,0,0,0-.3-2,4.94,4.94,0,0,0-.8-1.8,3.53,3.53,0,0,0-1.4-1.3,4.34,4.34,0,0,0-2.1-.5,4.19,4.19,0,0,0-2.7.9,7.2,7.2,0,0,0-1.9,2,12.68,12.68,0,0,0-1.2,2.3,5.44,5.44,0,0,0-.4,1.7,0.52,0.52,0,0,0,.2.4,2.22,2.22,0,0,0,.9.1h8Z"/><path class="c" d="M31.3,368.6V372c-4.2-.1-8.4-0.3-15.6-0.3S4.4,371.8,0,372v-3.4l9.7-.5c0.3-7.1.1-8.6,0.1-25.7,0-45,.1-50-0.1-58.6L0,283.3v-3.4c4.3,0.1,8.4.2,15.7,0.2s11.1-.1,15.6-0.3v3.4l-9.6.5c-0.3,7.1-.4,8.6-0.4,25.7,0,45,0,50,.4,58.6l9.6,0.6h0Zm7.3,0,6.9-.1V322.8l-7.3-.3v-5.2L54,315.5c0,3.8.3,4.8,1.6,4.8s10.1-5.4,20.9-5.4c10.2,0,16.6,5.2,16.6,15.8v37.7l6.9,0.1v3.1H77v-3.1l6.7-.1v-37c0-8.8-2-12.6-12.4-12.6-4.4,0-11.5,1.2-15.1,3.4-0.8.5-1.3,1.7-1.3,5.1v41.1l6.8,0.1v3.1H38.6v-3Zm88.4,5.5L107.5,325c-1.8-4.3-2.1-4.6-5.6-4.8v-3.7h19.9v3.7c-4.2,0-5.5.4-5.5,1,0,0.8,2.7,8.2,3.3,9.7l11.6,31.4,14.4-35.1a31.39,31.39,0,0,0,1.8-5.1c0-.7-0.8-1.2-5.1-1.2v-4.4h13.4v3.9c-4.4.9-4.8,1.7-8.6,10.7l-18.2,43H127ZM205.9,359c-2.4,4.3-8,14.8-22.1,14.8-14.9,0-27-11.6-27-28.8,0-15.2,9.9-30.6,27.5-30.6,17.3,0,21.5,14.9,21.5,19.9,0,2-.3,2.7-2.6,2.7H168.1c-1.7,0-2.4.4-2.4,5.2,0,11.9,7.6,25.3,21.9,25.3,9.6,0,13.7-5.9,16.4-9.7l1.9,1.2h0ZM194,334.2c2.4,0,2.9-.4,2.9-1.6,0-2.9-1.4-15.3-12-15.3-11.4,0-17.5,13.1-17.5,16.2,0,0.4.5,0.7,1.4,0.7H194Zm16.9,22.1H214c1.2,5.6,4.4,14.7,13.1,14.7,6.8,0,9.9-5.4,9.9-10.5,0-15.3-24.6-14.9-24.6-31.3,0-8.2,7.2-14.8,16.1-14.8,6.9,0,10.2,3,14.8,4.6l0.3,10.9h-2.7c-1.8-6.4-3.8-12.6-11.1-12.6-5.8,0-10.2,4.2-10.2,8.8,0,12.8,25.7,13.4,25.7,30.8,0,10.6-9,17-17.5,17-3.9,0-8.8-1.2-16-4.2l-0.9-13.4h0ZM282,370c-5.4,2-8.9,3.3-13.6,3.3-8.2,0-12.2-3.9-12-16.1l0.5-35.5-8.1.4v-4l6-.3c1.6,0,2.1-.7,2.1-1.8l0.3-22.5h9.3l-0.3,23.8A131.19,131.19,0,0,0,282,316v5c-5-.1-14.4,0-15.2.8s-0.8,1.7-.8,7.7l-0.3,22.6c-0.3,13.6,1.7,17,8.4,17a31,31,0,0,0,7.9-1V370h0Zm28.6-55.6c20.8,0,26.3,16.6,26.3,28.3,0,16.1-9.8,31.2-27.4,31.2-13.6,0-27.6-9.6-27.6-29.1C282,321.5,297.8,314.4,310.6,314.4ZM309.4,371c12,0,17.5-13.1,17.5-27,0-14.9-5.9-26.7-16.5-26.7-6.9,0-18.6,6.2-18.6,27C291.9,358.1,298.5,371,309.4,371Zm34-2.4,6.9-.1V340.9c0-8.9,0-17.8-.7-18.5-0.4-.4-4.3-0.5-6.7-0.7v-4.4l15.8-2.1,0.5,4.8c0.1,1,.4,2.2.9,2.2,0.9,0,6.5-7.9,15.3-7.9,1.3,0,3.7,0,3.7,1.3,0,0.8-.4,6.2-0.8,6.8-0.1.3-.8,0.5-10.5,0.5-7.9,0-8.2.9-8.2,4.6v40.8l8.6,0.1v3.1h-25v-2.9h0.2Zm95.4-90.8c28.7,0,47,19.5,47,47.1,0,23.3-15.3,49.2-47.5,49.2-27,0-47.9-18.5-47.9-47.5-0.1-28.5,20.4-48.8,48.4-48.8h0Zm0,92.9c20.4,0,29.5-25.3,29.5-45.7s-9.6-43.8-29.5-43.8c-9.9,0-30.9,7.5-30.9,44.9C407.9,352.2,422.3,370.7,438.8,370.7Zm51.3-2.9,6.8-.1V323.6l-8-.3v-6l21.1-2.1c0,4.7.5,5.1,1.3,5.1,1.7,0,11.5-5.4,21.1-5.4,11.4,0,16.6,5.5,16.6,17v35.7l6.9,0.1v3.9H528v-3.9l6.8-.1V329.1c0-6.3-2.6-8.4-9.9-8.4-6.2,0-11.4,1.6-12.7,2.7s-1.2,2.2-1.2,6v38.2l6.9,0.1v3.9H490l0.1-3.8h0Zm68.3,3.9v-3.9l7.3-.1V299.1c0-3.1-.3-16.4-0.4-16.9s-0.7-1-8.6-.9v-5c12.8-.6,17.6-1.2,23.2-2.2v93.6l7.3,0.1v3.9H558.4Zm32.6-3.9,7.5-.1V326.2c0-3.4-.7-3.9-6.5-4.3v-4.3l20.7-2.4v52.5l7.3,0.1v3.9H591v-3.9h0Zm16.2-87.7c3.7,0,7.5,2.5,7.5,7.3a9.1,9.1,0,0,1-8.8,9.2c-4.6,0-7.2-3-7.2-7.5C598.7,284.2,601.9,280.1,607.2,280.1Zm15.9,87.7,6.8-.1V323.6l-8-.3v-6l21.1-2.1c0,4.7.5,5.1,1.3,5.1,1.7,0,11.5-5.4,21.1-5.4,11.4,0,16.6,5.5,16.6,17v35.7l6.9,0.1v3.9H661v-3.9l6.8-.1V329.1c0-6.3-2.6-8.4-9.9-8.4-6.2,0-11.4,1.6-12.7,2.7s-1.2,2.2-1.2,6v38.2l6.9,0.1v3.9H623l0.1-3.8h0Zm120-9.5c-2.7,4.8-8.9,15.6-25.4,15.6-14.8,0-27-10.2-27-28.9,0-17.7,11.8-30.5,28.9-30.5,16.5,0,23.3,12,23.3,21.1,0,1.8-.8,2.7-3,2.7h-33c-2.4,0-2.9.8-2.9,4.1,0,7.1,2.9,23.7,19.1,23.7,9.3,0,14-5.1,17-9.4l3,1.6h0ZM726,334.6c3.1,0,3.9-.8,3.9-4.1,0-6-2.9-12.7-10.1-12.7-9.4,0-14,12-14,15.6,0,0.7.5,1.2,2.6,1.2H726Z"/><path class="a" d="M15.8,9.8c-1.4,1.2-2.8,2.5-4.1,3.8h8.4A52.94,52.94,0,0,0,15.8,9.8Z"/><path class="a" d="M20.9,14.4H11a39.64,39.64,0,0,0-5.4,7.5h21A45,45,0,0,0,20.9,14.4Z"/><path class="a" d="M30.1,29.2c-0.4-1.1-.9-2.2-1.4-3.3V26a30.13,30.13,0,0,0-1.6-3.1H5.1a49.74,49.74,0,0,0-3.2,7.5H26l0.7-1.2h3.4Z"/><path class="a" d="M32.2,37.6a43.55,43.55,0,0,0-1.1-5.2H24.9l0.7-1.2H1.7A47.42,47.42,0,0,0,.2,38.7H21.1l0.7-1.2,10.4,0.1h0Z"/><path class="a" d="M32.6,43.7c0-1,0-2-.1-3H20l0.7-1.2H0.2C0.1,40.8,0,42,0,43.2s0.1,2.6.2,3.9H16.3L17,45.9H32.6C32.6,45.2,32.6,44.4,32.6,43.7Z"/><path class="a" d="M32.2,49.1H15.1l0.7-1.2H0.3a45.27,45.27,0,0,0,1.5,7.5h9.6l0.7-1.2H31.3A38.62,38.62,0,0,0,32.2,49.1Z"/><path class="a" d="M30.3,57.5H10.2l0.7-1.2H2a38.48,38.48,0,0,0,3.2,7.5H6.5l0.7-1.1h21A47.07,47.07,0,0,0,30.3,57.5Z"/><path class="a" d="M6.5,65.8A46,46,0,0,0,10.3,71H22.8a48.74,48.74,0,0,0,3.7-5.2H6.5Z"/><path class="a" d="M19.9,74.1H13.1a31.75,31.75,0,0,0,3.4,3C17.7,76.2,18.8,75.1,19.9,74.1Z"/><path class="a" d="M28.6,61.9H57.7a27.49,27.49,0,0,0,1.5-3.6H30.1Z"/><path class="a" d="M23.4,70.2h29c0.9-1.2,1.8-2.4,2.6-3.6H26A33.2,33.2,0,0,1,23.4,70.2Z"/><path class="a" d="M16.5,77.1c0.7,0.5,1.3,1,2,1.5H43.3A39.44,39.44,0,0,0,47.8,75H19C18.2,75.7,17.4,76.4,16.5,77.1Z"/><path class="a" d="M30.7,84.5c1.3-.4,2.5-0.8,3.7-1.2H27.2A24.14,24.14,0,0,0,30.7,84.5Z"/><path class="a" d="M59.1,28.4c-0.4-1.1-.9-2.2-1.4-3.3l-0.2-.3H29.3l0.8-1.4H27.4a19.24,19.24,0,0,1,1.2,2.5h0c0.4,0.8.7,1.7,1.1,2.5H59.1Z"/><path class="a" d="M45.2,3.4L43.5,0.5h0L43.2,0h0A43.67,43.67,0,0,0,23.5,4.7H41l0.8-1.4,3.4,0.1h0Z"/><path class="a" d="M49.9,11.7L47.8,8.1H39.1l0.8-1.4H20.1a42.48,42.48,0,0,0-4.3,3.1,39,39,0,0,1,3.8,3.3H36.2L37,11.7H49.9Z"/><path class="a" d="M54.7,20l-2.1-3.6H34.2L35,15H21.5a47.67,47.67,0,0,1,4.8,6.3h5.1l0.8-1.4L54.7,20h0Z"/><path class="a" d="M44.4,36.8H61.3a23.26,23.26,0,0,0-.8-3.6H31.3c0.3,1.2.6,2.4,0.8,3.6H42.3l-0.6,1.4H45l-1.6-3.5"/><path class="a" d="M61.8,41.5H46.5l1.6,3.6H61.8V43.3A5.44,5.44,0,0,0,61.8,41.5Z"/><path class="a" d="M40.7,40.1l-0.6,1.4H32.5c0,0.7.1,1.5,0.1,2.2v1.4h5.9l-0.6,1.4H48.8L46,40.2l-5.3-.1h0Z"/><path class="a" d="M61.4,49.9H50.3l-0.6-1.4H37l-0.6,1.4H32.2c-0.2,1.2-.4,2.4-0.7,3.6h3.2l-0.6,1.4H52.5l-0.6-1.4h8.7C60.9,52.3,61.2,51.1,61.4,49.9Z"/><path class="a" d="M43.2,0l2.5,4.4H62.1A42.72,42.72,0,0,0,43.2,0Z"/><path class="a" d="M66.9,7.1H47.3l3.2,5.6H73.8A41.23,41.23,0,0,0,66.9,7.1Z"/><path class="a" d="M76.3,15.4H52.1L54,18.6c0.5,0.8,1,1.5,1.5,2.3H80.4C79.1,19,77.8,17.2,76.3,15.4Z"/><path class="a" d="M81.9,23.8H57c0.2,0.4.5,0.9,0.7,1.4l2.4,4.2H84.2A54.83,54.83,0,0,0,81.9,23.8Z"/><path class="a" d="M86.1,37.7A36.93,36.93,0,0,0,85,32.1H61.7l0.9,1.5H60.8a20,20,0,0,1,.5,2.6H64l0.9,1.5H86.1Z"/><path class="a" d="M86.4,40.5H66.5L67.4,42H61.9v2.5h7L69.8,46H86.5a27.15,27.15,0,0,0,.1-2.9A21.11,21.11,0,0,1,86.4,40.5Z"/><path class="a" d="M71.3,48.9l0.9,1.5H61.3a23.81,23.81,0,0,1-.5,2.6H73.6l0.9,1.5H85a34.67,34.67,0,0,0,1.1-5.6H71.3Z"/><path class="a" d="M76.1,57.3L77,58.8H59c-0.3.9-.7,1.7-1.1,2.6H78.4l0.9,1.5h2.5a47.16,47.16,0,0,0,2.4-5.6H76.1Z"/><path class="a" d="M52.8,69.7H77.3c0.6-.8,1.3-1.7,1.9-2.6H54.7A24.77,24.77,0,0,1,52.8,69.7Z"/><path class="a" d="M44.1,78.1H68.7a40.31,40.31,0,0,0,3.2-2.6H47.3A40.35,40.35,0,0,1,44.1,78.1Z"/><path class="a" d="M30.7,84.5a43.5,43.5,0,0,0,12.5,1.9,42.09,42.09,0,0,0,14.7-2.6H33A20.14,20.14,0,0,1,30.7,84.5Z"/><path class="a" d="M150.4,33.7H129.1L139.8,7.2ZM113.2,53.4h8l5.4-13.5h26.2l5.4,13.5h8.3L144,0h-8Z"/><path class="a" d="M174,45.8a19.71,19.71,0,0,0,9,2.8c3.3,0,7.4-1.4,7.4-5.6,0-7.1-17-6.5-17-17.5,0-8.1,6-12,13.8-12a32,32,0,0,1,9,1.5l-0.6,6.3a20.92,20.92,0,0,0-7.6-2c-3.7,0-6.9,1.5-6.9,4.7,0,8,17,5.7,17,18.1,0,8.3-6.6,12.2-13.6,12.2a23,23,0,0,1-10.7-2.1Z"/><path class="a" d="M208.1,45.8a19.71,19.71,0,0,0,9,2.8c3.3,0,7.4-1.4,7.4-5.6,0-7.1-17-6.5-17-17.5,0-8.1,6.1-12,13.8-12a32,32,0,0,1,9,1.5l-0.6,6.3a20.92,20.92,0,0,0-7.6-2c-3.7,0-7,1.5-7,4.7,0,8,17,5.7,17,18.1,0,8.3-6.7,12.2-13.7,12.2-3.7,0-7.5-.4-10.7-2.1Z"/><path class="a" d="M267.3,38.3c0,5.8-3.8,10.3-10.9,10.3-3.3,0-7.3-2.2-7.3-6.4,0-6.9,9.7-7.5,13.6-7.5,1.5,0,3.1.2,4.6,0.2v3.4h0Zm-21-15a18.62,18.62,0,0,1,11.3-3.9c7.2,0,9.7,3.4,9.7,10.1-2.8-.1-4.8-0.1-7.7-0.1-7.4,0-18.1,3-18.1,12.8,0,8.5,5.9,12.2,14.3,12.2a14.44,14.44,0,0,0,12.1-6H268v5h6.8a52.36,52.36,0,0,1-.3-7.6V29.6c0-10.6-4.5-16.2-15.7-16.2a24.44,24.44,0,0,0-12.9,3.7Z"/><path class="a" d="M287.9,14.4h7v6.2H295c2.1-4.4,7.3-7.1,12.8-7.1,10.1,0,14.6,6.3,14.6,16.8V53.5h-7.2V33.2c0-9.1-2-13.5-8.3-13.9-8.2,0-11.8,6.6-11.8,16.1v18h-7.2v-39h0Z"/><path class="a" d="M354.8,20.9H344.5V42.2c0,4.5,2.8,7,6,7a8.92,8.92,0,0,0,4.9-1.4v6.1a20.79,20.79,0,0,1-6.1,1.1c-7.4,0-12-3.5-12-11.3V20.9h-8.8V15.1h8.8v-9l7.2-2.3V15.1h10.3v5.8h0Z"/><path class="a" d="M368.8,30.2c0.5-5,3.4-10.8,10.5-10.8,6.2,0,9.7,4.9,9.7,10.8H368.8Zm24.8,14.4c-1.8,1.5-7.3,3.9-12,3.9a12.77,12.77,0,0,1-12.8-13.1h27.8c0-12.5-4.2-22-17.2-22-11,0-18.3,8.2-18.3,19.7,0,12.7,6.3,21.2,20.2,21.2a29.65,29.65,0,0,0,12.3-2.5V44.6Z"/><path class="a" d="M113.2,71.8h3l2.7,11.5h0l2.4-11.5h3.9l2.5,11.5h0l2.7-11.5h2.8l-3.7,14.4h-3.7l-2.5-11.5h0l-2.6,11.5H117Z"/><path class="a" d="M138.2,71.8h8.5v2.3h-5.6v3.5h5.1v2.3h-5.1v4h5.6v2.3h-8.5V71.8Z"/><path class="a" d="M156.7,71.8h3.2l5.6,14.4h-3.2l-1.2-3.3h-5.8L154,86.2h-3Zm1.6,2.9h0l-2.1,5.9h4.2Z"/><path class="a" d="M170.4,71.8h2.9V83.9h5.6v2.3h-8.4V71.8h-0.1Z"/><path class="a" d="M186.3,74.1h-4.1V71.8h11.1v2.3h-4.1V86.2h-2.9V74.1h0Z"/><path class="a" d="M198.1,71.8H201v5.8h5.8V71.8h2.9V86.2h-2.9V79.9H201v6.3h-2.9V71.8Z"/><path class="a" d="M224.6,71.8h4.6l3.4,10.9h0L236,71.8h4.6V86.2h-2.8V74.3h0L234,86.1h-2.8l-3.9-11.8h0V86.1h-2.8l0.1-14.3h0Z"/><path class="a" d="M251.1,71.8h3.2l5.6,14.4h-3.2l-1.2-3.3h-5.8l-1.3,3.3h-3Zm1.6,2.9h0l-2.1,5.9h4.2Z"/><path class="a" d="M264.7,71.8h3.5l5.5,10.7h0V71.8h2.8V86.2H273l-5.5-10.7h0V86.2h-2.8V71.8Z"/><path class="a" d="M286.8,71.8H290l5.6,14.4h-3.2l-1.2-3.3h-5.8l-1.3,3.3h-3Zm1.6,2.9h0l-2.1,5.9h4.2Z"/><path class="a" d="M311.7,74.6a9.46,9.46,0,0,0-3.7-.8,4.88,4.88,0,0,0-5.2,5.2c0,2.9,1.8,5.1,4.9,5.1a9.21,9.21,0,0,0,1.9-.2V80.2h-3V77.9h5.8v7.8a18.32,18.32,0,0,1-4.6.7c-4.6,0-7.9-2.3-7.9-7.2s3-7.7,7.9-7.7a12.87,12.87,0,0,1,4.2.6Z"/><path class="a" d="M318.3,71.8h8.5v2.3h-5.6v3.5h5.1v2.3h-5.1v4h5.6v2.3h-8.5V71.8Z"/><path class="a" d="M332.7,71.8h4.6l3.4,10.9h0l3.4-10.9h4.6V86.2h-2.8V74.3h0L342,86.1h-2.8l-3.9-11.8h0V86.1h-2.8V71.8h0.2Z"/><path class="a" d="M355.1,71.8h8.5v2.3H358v3.5h5.1v2.3H358v4h5.6v2.3h-8.5V71.8Z"/><path class="a" d="M369.4,71.8h3.5l5.5,10.7h0V71.8h2.8V86.2h-3.5l-5.5-10.7h0V86.2h-2.8V71.8h0Z"/><path class="a" d="M390,74.1h-4.1V71.8H397v2.3h-4.1V86.2H390V74.1Z"/><path class="a" d="M401.3,20.2a6.7,6.7,0,1,1,6.7,6.7A6.7,6.7,0,0,1,401.3,20.2Zm11.9,0a5.13,5.13,0,0,0-5.1-5.4,5.19,5.19,0,0,0-5.1,5.4,5.13,5.13,0,0,0,5.1,5.4C410.9,25.7,413.2,23.4,413.2,20.2Zm-7.7-3.8h2.8c1.8,0,2.8.6,2.8,2.2a2,2,0,0,1-2,2.1l2.1,3.3h-1.5l-2-3.3h-0.9V24h-1.4l0.1-7.6h0Zm1.4,3.3h1.3c0.8,0,1.6-.1,1.6-1.1s-0.8-1-1.6-1h-1.3v2.1Z"/><path class="a" d="M11.4,121.5a37.08,37.08,0,0,0-2.9,2.7h6A26.07,26.07,0,0,0,11.4,121.5Z"/><path class="a" d="M15,124.8H8a22.86,22.86,0,0,0-3.8,5.4H19.1A27.44,27.44,0,0,0,15,124.8Z"/><path class="a" d="M21.5,135.2a24.42,24.42,0,0,0-1-2.4h0a22.56,22.56,0,0,0-1.1-2.2H3.8A25.5,25.5,0,0,0,1.6,136H18.7l0.5-.8h2.3Z"/><path class="a" d="M23,141.2a24.47,24.47,0,0,0-.8-3.7H17.8l0.5-.9H1.3a23.47,23.47,0,0,0-1,5.4H15.2l0.5-.8H23Z"/><path class="a" d="M23.3,145.6a14.77,14.77,0,0,0-.1-2.1H14.3l0.5-.8H0.3a22.6,22.6,0,0,0-.1,2.6,27.15,27.15,0,0,0,.1,2.8H11.7l0.5-.8H23.3v-1.7Z"/><path class="a" d="M23.1,149.4H10.9l0.5-.8H0.4A34.49,34.49,0,0,0,1.5,154H8.3l0.5-.8H22.5C22.7,151.9,22.9,150.7,23.1,149.4Z"/><path class="a" d="M21.7,155.4H7.4l0.5-.9H1.6a32.47,32.47,0,0,0,2.3,5.4H4.8l0.5-.8H20.2A28.7,28.7,0,0,0,21.7,155.4Z"/><path class="a" d="M4.8,161.3A31.75,31.75,0,0,0,7.5,165h8.9a30.87,30.87,0,0,0,2.6-3.7H4.8Z"/><path class="a" d="M14.3,167.1H9.5c0.8,0.8,1.6,1.5,2.4,2.2A17,17,0,0,0,14.3,167.1Z"/><path class="a" d="M20.5,158.5H41.2a20.3,20.3,0,0,0,1.1-2.6H21.5A27.72,27.72,0,0,1,20.5,158.5Z"/><path class="a" d="M16.8,164.4H37.4a24.76,24.76,0,0,0,1.9-2.6H18.6A24,24,0,0,1,16.8,164.4Z"/><path class="a" d="M11.9,169.3l1.4,1.1H31a26,26,0,0,0,3.2-2.6H13.7Z"/><path class="a" d="M22,174.6a19.86,19.86,0,0,0,2.6-.9H19.5C20.3,174,21.2,174.3,22,174.6Z"/><path class="a" d="M42.2,134.7a16,16,0,0,0-1-2.3l-0.1-.2H21l0.6-1H19.7l0.9,1.8h0c0.3,0.6.5,1.2,0.8,1.8l20.8-.1h0Z"/><path class="a" d="M32.3,116.9l-1.2-2h0l-0.2-.3h0a30.17,30.17,0,0,0-14,3.4H29.3l0.6-1,2.4-.1h0Z"/><path class="a" d="M35.7,122.8l-1.5-2.6H28l0.5-.9H14.4a23.22,23.22,0,0,0-3,2.2c0.9,0.7,1.8,1.5,2.7,2.3H25.9l0.6-1h9.2Z"/><path class="a" d="M39.1,128.7l-1.5-2.6H24.5l0.6-1H15.5a29.53,29.53,0,0,1,3.4,4.5h3.6l0.6-1,16,0.1h0Z"/><path class="a" d="M31.7,140.6h12a23.81,23.81,0,0,0-.5-2.6H22.4a20,20,0,0,1,.5,2.6h7.3l-0.4,1h2.4l-1.1-2.5"/><path class="a" d="M44.1,144H33.3l1.2,2.6h9.7v-1.3A5.7,5.7,0,0,1,44.1,144Z"/><path class="a" d="M29.1,143l-0.4,1H23.3v2.6h4.2l-0.4,1h7.7l-2-4.5-3.7-.1h0Z"/><path class="a" d="M43.8,150H35.9l-0.4-1H26.4L26,150H23a23.81,23.81,0,0,1-.5,2.6h2.3l-0.4,1H37.5l-0.4-1h6.2C43.5,151.7,43.7,150.8,43.8,150Z"/><path class="a" d="M30.9,114.5l1.8,3.1H44.4A30.76,30.76,0,0,0,30.9,114.5Z"/><path class="a" d="M47.7,119.5h-14l2.3,3.9H52.6A38.14,38.14,0,0,0,47.7,119.5Z"/><path class="a" d="M54.4,125.5H37.2l1.3,2.3a14,14,0,0,1,1,1.6H57.2A21.39,21.39,0,0,0,54.4,125.5Z"/><path class="a" d="M58.3,131.4H40.6a9.29,9.29,0,0,1,.5,1l1.7,3H60A28.25,28.25,0,0,0,58.3,131.4Z"/><path class="a" d="M61.4,141.3a28.32,28.32,0,0,0-.8-4H44l0.6,1.1H43.3c0.1,0.6.3,1.2,0.4,1.8h1.9l0.6,1.1H61.4Z"/><path class="a" d="M61.6,143.3H47.4l0.6,1.1H44.1v1.8H49l0.6,1.1H61.5c0-.7.1-1.4,0.1-2v-2Z"/><path class="a" d="M50.8,149.3l0.6,1.1H43.7a11.63,11.63,0,0,1-.4,1.8h9.1l0.6,1.1h7.5c0.3-1.3.6-2.6,0.8-3.9l-10.5-.1h0Z"/><path class="a" d="M54.2,155.2l0.6,1.1H42.1a14.18,14.18,0,0,1-.8,1.8H55.8l0.6,1.1h1.8c0.6-1.3,1.2-2.6,1.7-4H54.2Z"/><path class="a" d="M37.7,164H55.1a20.26,20.26,0,0,0,1.3-1.8H39A20.26,20.26,0,0,1,37.7,164Z"/><path class="a" d="M31.5,170H49c0.8-.6,1.6-1.2,2.3-1.8H33.8C33.1,168.8,32.3,169.4,31.5,170Z"/><path class="a" d="M22,174.6a29,29,0,0,0,8.9,1.3,29.52,29.52,0,0,0,10.4-1.8H23.6C23.1,174.3,22.5,174.4,22,174.6Z"/><path class="a" d="M107,138.4H91.9l7.6-18.8ZM80.6,152.5h5.7l3.9-9.6h18.6l3.8,9.6h5.9l-16-38H96.8Z"/><path class="a" d="M123.8,147.1a13.81,13.81,0,0,0,6.4,2c2.4,0,5.2-1,5.2-4,0-5.1-12-4.6-12-12.4,0-5.8,4.3-8.5,9.8-8.5a21.43,21.43,0,0,1,6.4,1.1l-0.4,4.5a14.89,14.89,0,0,0-5.4-1.4c-2.6,0-4.9,1.1-4.9,3.4,0,5.7,12,4,12,12.9,0,5.9-4.7,8.7-9.7,8.7a16.42,16.42,0,0,1-7.6-1.5Z"/><path class="a" d="M148.1,147.1a13.81,13.81,0,0,0,6.4,2c2.4,0,5.3-1,5.3-4,0-5.1-12.1-4.6-12.1-12.4,0-5.8,4.3-8.5,9.8-8.5a21.43,21.43,0,0,1,6.4,1.1l-0.4,4.5a14.89,14.89,0,0,0-5.4-1.4c-2.6,0-4.9,1.1-4.9,3.4,0,5.7,12.1,4,12.1,12.9,0,5.9-4.7,8.7-9.7,8.7a16.42,16.42,0,0,1-7.6-1.5Z"/><path class="a" d="M190.1,141.7c0,4.1-2.7,7.3-7.7,7.3-2.3,0-5.2-1.6-5.2-4.5,0-4.9,6.9-5.4,9.6-5.4,1.1,0,2.2.1,3.3,0.1v2.5h0ZM175.2,131a13.45,13.45,0,0,1,8.1-2.8c5.1,0,6.9,2.4,6.9,7.2-2-.1-3.4-0.1-5.4-0.1-5.3,0-12.9,2.2-12.9,9.1,0,6.1,4.2,8.7,10.2,8.7a10.49,10.49,0,0,0,8.6-4.2h0.1v3.6h4.8a47.31,47.31,0,0,1-.2-5.4V135.6c0-7.6-3.2-11.5-11.2-11.5a17.68,17.68,0,0,0-9.1,2.6Z"/><path class="a" d="M204.7,124.8h5v4.4h0.1c1.5-3.2,5.2-5.1,9.1-5.1,7.2,0,10.4,4.5,10.4,11.9v16.5h-5.1V138.2c0-6.5-1.4-9.6-5.9-9.9-5.8,0-8.4,4.7-8.4,11.4v12.8h-5.1l-0.1-27.7h0Z"/><path class="a" d="M252.2,129.4h-7.3v15.2c0,3.2,2,4.9,4.3,4.9a6.33,6.33,0,0,0,3.5-1v4.4a16.5,16.5,0,0,1-4.4.8c-5.3,0-8.5-2.5-8.5-8V129.5h-6.3v-4.1h6.3V119l5.1-1.6v8h7.3v4h0Z"/><path class="a" d="M262.2,135.9c0.4-3.6,2.4-7.7,7.4-7.7,4.4,0,6.9,3.5,6.9,7.7H262.2Zm17.7,10.3a17,17,0,0,1-8.5,2.8,9.11,9.11,0,0,1-9.1-9.3H282c0-8.9-3-15.6-12.2-15.6-7.8,0-13,5.8-13,14,0,9.1,4.5,15,14.3,15a21.63,21.63,0,0,0,8.8-1.8v-5.1h0Z"/><path class="a" d="M80.6,165.5h2.1l1.9,8.2h0l1.7-8.2h2.8l1.9,8.2h0l1.9-8.2h2l-2.6,10.2H89.7l-1.8-8.2h0l-1.8,8.2H83.5Z"/><path class="a" d="M98.4,165.5h6v1.6h-4v2.5H104v1.6h-3.6v2.9h4v1.6h-6V165.5Z"/><path class="a" d="M111.5,165.5h2.3l4,10.2h-2.3l-0.9-2.3h-4.1l-0.9,2.3h-2.1Zm1.1,2.1h0l-1.5,4.2h3Z"/><path class="a" d="M121.3,165.5h2v8.6h4v1.6h-6V165.5h0Z"/><path class="a" d="M132.5,167.1h-2.9v-1.6h7.9v1.6h-2.9v8.6h-2v-8.6h-0.1Z"/><path class="a" d="M140.9,165.5h2v4.1H147v-4.1h2v10.2h-2v-4.5h-4v4.5h-2V165.5h-0.1Z"/><path class="a" d="M159.8,165.5h3.3l2.4,7.7h0l2.4-7.7h3.3v10.2h-2v-8.4h0l-2.7,8.4h-2l-2.7-8.4h0v8.4h-2V165.5h0Z"/><path class="a" d="M178.6,165.5h2.3l4,10.2h-2.3l-0.9-2.3h-4.1l-0.9,2.3h-2.1Zm1.1,2.1h0l-1.5,4.2h3Z"/><path class="a" d="M188.3,165.5h2.5l3.9,7.6h0v-7.6h2v10.2h-2.5l-3.9-7.6h0v7.6h-2V165.5h0Z"/><path class="a" d="M203.9,165.5h2.3l4,10.2H208l-0.9-2.3H203l-0.9,2.3H200Zm1.2,2.1h0l-1.5,4.2h3Z"/><path class="a" d="M221.6,167.5a6,6,0,0,0-2.6-.5,3.46,3.46,0,0,0-3.7,3.7,3.33,3.33,0,0,0,3.5,3.6c0.6,0,1-.1,1.3-0.1v-2.7H218v-1.6h4.1v5.5a12.57,12.57,0,0,1-3.3.5c-3.3,0-5.6-1.7-5.6-5.1s2.1-5.4,5.6-5.4a12.82,12.82,0,0,1,3,.4Z"/><path class="a" d="M226.4,165.5h6v1.6h-4v2.5H232v1.6h-3.6v2.9h4v1.6h-6V165.5Z"/><path class="a" d="M236.6,165.5h3.3l2.4,7.7h0l2.4-7.7H248v10.2h-2v-8.4h0l-2.7,8.4h-2l-2.7-8.4h0v8.4h-2V165.5h0Z"/><path class="a" d="M252.5,165.5h6v1.6h-4v2.5h3.6v1.6h-3.6v2.9h4v1.6h-6V165.5Z"/><path class="a" d="M262.6,165.5h2.5l3.9,7.6h0v-7.6h2v10.2h-2.5l-3.9-7.6h0v7.6h-2V165.5Z"/><path class="a" d="M277.3,167.1h-2.9v-1.6h7.9v1.6h-2.9v8.6h-2l-0.1-8.6h0Z"/><path class="a" d="M285.3,128.9a4.8,4.8,0,1,1,4.8,4.8A4.87,4.87,0,0,1,285.3,128.9Zm8.4,0a3.72,3.72,0,0,0-3.6-3.9,3.66,3.66,0,0,0-3.6,3.9A3.61,3.61,0,1,0,293.7,128.9Zm-5.4-2.7h2c1.3,0,2,.5,2,1.6a1.39,1.39,0,0,1-1.4,1.5l1.5,2.4h-1l-1.4-2.3h-0.6v2.3h-1l-0.1-5.5h0Zm1,2.3h0.9c0.6,0,1.1-.1,1.1-0.8s-0.6-.7-1.1-0.7h-0.9v1.5Z"/></svg>
