<svg xmlns="http://www.w3.org/2000/svg" viewBox="0 0 255.79 255.79"><defs><style>.a{fill:#fff;}.b{fill:#d63647;}.c{fill:#003976;}</style></defs><title>usa</title><path class="a" d="M127.89 137.73H.37a127.66 127.66 0 0 0 3.06 19.67h248.93a127.65 127.65 0 0 0 3.06-19.68H127.89zM20.11 196.76h215.57A127.53 127.53 0 0 0 246 177.08H9.81a127.53 127.53 0 0 0 10.3 19.68zM59.72 236.11h136.35a128.49 128.49 0 0 0 24.11-19.68H35.61a128.49 128.49 0 0 0 24.11 19.68zM127.89 39.35h92.28a128.49 128.49 0 0 0-24.11-19.68h-68.17v19.68zM127.89 78.7H246A127.53 127.53 0 0 0 235.68 59H127.89v19.7zM127.89 118.06h127.52a127.64 127.64 0 0 0-3.06-19.68H127.89v19.68z"/><path class="b" d="M9.81 177.08H246a126.9 126.9 0 0 0 6.38-19.68H3.43a126.9 126.9 0 0 0 6.38 19.68zM35.61 216.44h184.57a128.45 128.45 0 0 0 15.5-19.68H20.11a128.45 128.45 0 0 0 15.5 19.68zM127.89 255.79a127.29 127.29 0 0 0 68.18-19.68H59.72a127.29 127.29 0 0 0 68.17 19.68zM127.89 19.68h68.18A127.28 127.28 0 0 0 127.89 0v19.68zM127.89 59h107.79a128.45 128.45 0 0 0-15.5-19.68h-92.29V59zM127.89 98.38h124.47A126.9 126.9 0 0 0 246 78.7H127.89v19.68zM127.89 137.73h127.52q.37-4.87.37-9.84t-.37-9.84H127.89v19.68z"/><path class="c" d="M127.89 137.73V0a127.58 127.58 0 0 0-45.47 8.33l.27.82h5.1l-4.13 3L85.24 17l-4.13-3L77 17l1.58-4.85-2-1.43a128.35 128.35 0 0 0-52.14 42h4.67l1.58-4.85 1.58 4.85h5.1l-4.13 3 1.58 4.85-4.13-3-4.13 3 1.58-4.85-3.84-2.83A128 128 0 0 0 15.38 67l.08.26h5.1l-4.13 3 1.57 4.9-4.13-3-1.72 1.25a127 127 0 0 0-11 37.49h2.61L.87 113q-.21 1.78-.36 3.58l.7 2.17-.84-.61Q0 123 0 127.89t.37 9.84h127.52zM113.15 9.15l1.58-4.85 1.58 4.85h5.1l-4.13 3 1.58 4.85-4.13-3-4.13 3 1.58-4.85-4.13-3h5.1zm0 29l1.58-4.85 1.58 4.85h5.1l-4.13 3 1.58 4.85-4.13-3-4.13 3 1.58-4.85-4.13-3h5.1zm0 29.11l1.58-4.85 1.58 4.85h5.1l-4.13 3 1.58 4.85-4.13-3-4.13 3 1.58-4.85-4.13-3h5.1zm0 29.11l1.58-4.85 1.58 4.85h5.1l-4.13 3 1.58 4.85-4.13-3-4.13 3 1.58-4.85-4.13-3h5.1zm0 29.11l1.58-4.85 1.58 4.85h5.1l-4.13 3 1.58 4.85-4.13-3-4.13 3 1.58-4.85-4.13-3h5.1zM96.34 23.64l1.58-4.85 1.58 4.85h5.1l-4.13 3L102 31.5l-4.13-3-4.13 3 1.58-4.85-4.13-3h5.1zm0 29l1.58-4.85 1.58 4.85h5.1l-4.13 3 1.53 4.9-4.13-3-4.13 3 1.58-4.85-4.13-3h5.1zm0 29.11l1.58-4.85 1.58 4.85h5.1l-4.13 3 1.53 4.9-4.13-3-4.13 3 1.58-4.85-4.13-3h5.1zm0 29.11l1.58-4.86 1.58 4.85h5.1l-4.13 3 1.58 4.85-4.13-3-4.13 3 1.58-4.85-4.13-3h5.1zm-16.8-72.67l1.58-4.85 1.58 4.85h5.1l-4.13 3L85.24 46l-4.13-3L77 46l1.58-4.85-4.13-3h5.1zm0 29.11l1.58-4.85 1.58 4.85h5.1l-4.13 3 1.58 4.85-4.13-3-4.13 3 1.58-4.85-4.13-3h5.1zm0 29.11l1.58-4.85 1.58 4.85h5.1l-4.13 3 1.58 4.85-4.13-3-4.13 3 1.58-4.85-4.13-3h5.1zm0 29.11l1.58-4.85 1.58 4.85h5.1l-4.13 3 1.58 4.85-4.13-3-4.13 3 1.58-4.85-4.13-3h5.1zM62.73 23.64l1.58-4.85 1.58 4.85H71l-4.13 3 1.58 4.85-4.13-3-4.13 3 1.58-4.85-4.13-3h5.1zm0 29l1.58-4.85 1.58 4.85H71l-4.13 3 1.58 4.85-4.13-3-4.13 3 1.58-4.85-4.13-3h5.1zm0 29.11l1.58-4.85 1.58 4.85H71l-4.13 3 1.58 4.85-4.13-3-4.13 3 1.58-4.85-4.13-3h5.1zm0 29.11l1.58-4.86 1.58 4.85H71l-4.13 3 1.58 4.85-4.13-3-4.13 3 1.58-4.85-4.13-3h5.1zM45.92 38.19l1.58-4.85 1.58 4.85h5.1l-4.13 3L51.63 46l-4.13-3-4.13 3 1.58-4.85-4.13-3h5.1zm0 29.11l1.58-4.85 1.58 4.85h5.1l-4.13 3 1.58 4.85-4.13-3-4.13 3 1.58-4.85-4.13-3h5.1zm0 29.11l1.58-4.85 1.58 4.85h5.1l-4.13 3 1.58 4.85-4.13-3-4.13 3 1.58-4.85-4.13-3h5.1zm0 29.11l1.58-4.85 1.58 4.85h5.1l-4.13 3 1.58 4.85-4.13-3-4.13 3 1.58-4.85-4.13-3h5.1zm-16.8-43.73l1.58-4.85 1.58 4.85h5.1l-4.13 3 1.58 4.85-4.13-3-4.13 3 1.58-4.85-4.13-3h5.1zm0 29.11l1.57-4.9 1.58 4.85h5.1l-4.13 3 1.58 4.85-4.13-3-4.13 3 1.58-4.85-4.13-3h5.1zM12.31 96.41l1.58-4.85 1.58 4.85h5.1l-4.13 3 1.56 4.86-4.13-3-4.13 3 1.58-4.85-4.13-3h5.1zm0 29.11l1.58-4.85 1.58 4.85h5.1l-4.13 3 1.56 4.85-4.13-3-4.13 3 1.58-4.85-4.13-3h5.1z"/><path class="a" d="M60.18 31.5l4.13-3 4.13 3-1.58-4.86 4.13-3h-5.11l-1.57-4.85-1.58 4.85h-5.1l4.12 3-1.57 4.86M77 17l4.13-3 4.13 3-1.58-4.85 4.13-3h-5.1l-.27-.82q-3 1.12-5.84 2.39l2 1.43zM93.79 31.5l4.13-3 4.13 3-1.58-4.86 4.13-3h-5.1l-1.58-4.85-1.58 4.85h-5.1l4.13 3-1.58 4.86M110.6 17l4.13-3 4.13 3-1.58-4.85 4.13-3h-5.11l-1.57-4.85-1.58 4.85h-5.1l4.12 3L110.6 17M26.56 60.54l4.13-3 4.13 3-1.58-4.85 4.13-3h-5.1l-1.58-4.85-1.58 4.85h-4.66l-.15.21 3.84 2.79zM43.37 46.05l4.13-3 4.13 3-1.58-4.85 4.13-3h-5.1l-1.58-4.86-1.58 4.86h-5.1l4.13 3-1.58 4.85M60.18 60.54l4.13-3 4.13 3-1.58-4.85 4.13-3h-5.11l-1.57-4.86-1.58 4.86h-5.1l4.12 3-1.57 4.85M76.98 46.05l4.13-3 4.13 3-1.57-4.85 4.12-3h-5.1l-1.58-4.86-1.57 4.86h-5.11l4.13 3-1.58 4.85M93.79 60.54l4.13-3 4.13 3-1.58-4.85 4.13-3h-5.1l-1.58-4.86-1.58 4.86h-5.1l4.13 3-1.58 4.85M110.6 46.05l4.13-3 4.13 3-1.58-4.85 4.13-3h-5.11l-1.57-4.86-1.58 4.86h-5.1l4.12 3-1.57 4.85M18 75.16l-1.56-4.86 4.13-3h-5.1l-.09-.3q-1.7 3.13-3.22 6.37l1.72-1.25zM26.56 89.65l4.13-3 4.13 3-1.58-4.86 4.13-3h-5.1l-1.58-4.85-1.57 4.85h-5.11l4.13 3-1.58 4.86M43.37 75.16l4.13-3 4.13 3-1.58-4.86 4.13-3h-5.1l-1.58-4.85-1.58 4.85h-5.1l4.13 3-1.58 4.86M60.18 89.65l4.13-3 4.13 3-1.58-4.86 4.13-3h-5.11l-1.57-4.85-1.58 4.85h-5.1l4.12 3-1.57 4.86M76.98 75.16l4.13-3 4.13 3-1.57-4.86 4.12-3h-5.1l-1.58-4.85-1.57 4.85h-5.11l4.13 3-1.58 4.86M93.79 89.65l4.13-3 4.13 3-1.58-4.86 4.13-3h-5.1l-1.58-4.85-1.58 4.85h-5.1l4.13 3-1.58 4.86M110.6 75.16l4.13-3 4.13 3-1.58-4.86 4.13-3h-5.11l-1.57-4.85-1.58 4.85h-5.1l4.12 3-1.57 4.86M1.13 110.9c-.09.7-.18 1.4-.26 2.1l2.89-2.1H1.13zM.5 116.59c0 .52-.1 1-.14 1.56l.84.61zM9.76 104.27l4.13-3 4.13 3-1.58-4.86 4.13-3h-5.11l-1.57-4.85-1.58 4.85h-5.1l4.12 3-1.57 4.86M26.56 118.75l4.13-3 4.13 3.01-1.58-4.86 4.13-3h-5.1l-1.58-4.85-1.57 4.85h-5.11l4.13 3-1.58 4.85M43.37 104.27l4.13-3 4.13 3-1.58-4.86 4.13-3h-5.1l-1.58-4.85-1.58 4.85h-5.1l4.13 3-1.58 4.86M60.18 118.75l4.13-3 4.13 3.01-1.58-4.86 4.13-3h-5.11l-1.57-4.85-1.58 4.85h-5.1l4.12 3-1.57 4.85M76.98 104.27l4.13-3 4.13 3-1.57-4.86 4.12-3h-5.1l-1.58-4.85-1.57 4.85h-5.11l4.13 3-1.58 4.86M93.79 118.75l4.13-3 4.13 3.01-1.58-4.86 4.13-3h-5.1l-1.58-4.85-1.58 4.85h-5.1l4.13 3-1.58 4.85M110.6 104.27l4.13-3 4.13 3-1.58-4.86 4.13-3h-5.11l-1.57-4.85-1.58 4.85h-5.1l4.12 3-1.57 4.86M9.76 133.37l4.13-3 4.13 3-1.58-4.85 4.13-3h-5.11l-1.57-4.85-1.58 4.85h-5.1l4.12 3-1.57 4.85M43.37 133.37l4.13-3 4.13 3-1.58-4.85 4.13-3h-5.1l-1.58-4.85-1.58 4.85h-5.1l4.13 3-1.58 4.85M76.98 133.37l4.13-3 4.13 3-1.57-4.85 4.12-3h-5.1l-1.58-4.85-1.57 4.85h-5.11l4.13 3-1.58 4.85M110.6 133.37l4.13-3 4.13 3-1.58-4.85 4.13-3h-5.11l-1.57-4.85-1.58 4.85h-5.1l4.12 3-1.57 4.85"/></svg>