<?xml version="1.0" encoding="UTF-8"?>
<!DOCTYPE svg PUBLIC "-//W3C//DTD SVG 1.1//EN" "http://www.w3.org/Graphics/SVG/1.1/DTD/svg11.dtd">
<svg xmlns="http://www.w3.org/2000/svg" width="168" height="35" viewBox="0 0 168 35">
    <path fill="#ffffff" d="M6.4 3.9L4.8 5.5h3.4C7.6 5 7 4.5 6.4 3.9zm2.1 1.9h-4c-.8 1-1.6 2-2.2 3.1h8.5c-.6-1.1-1.5-2.1-2.3-3.1zm3.7 6c-.2-.5-.4-.9-.5-1.4-.2-.5-.4-.8-.6-1.2H2c-.5 1-1 2-1.3 3h9.8l.3-.5c0 .1 1.4.1 1.4.1zm.8 3.4c-.1-.7-.2-1.4-.5-2.1H10l.3-.5H.7c-.3 1-.5 2-.6 3h8.5l.3-.5 4.1.1zm.2 2.5c0-.4 0-.8-.1-1.2H8l.3-.5H0v1.4c0 .5 0 1.1.1 1.6h6.5l.3-.5h6.3v-.8zm-.1 2.2h-7l.3-.5H.1c.2 1.1.3 2 .6 3h3.9l.2-.4h7.8c.3-.7.4-1.4.5-2.1zm-.8 3.4H4.1l.3-.5H.8c.3 1.1.8 2.1 1.3 3h.5l.4-.4h8.5c.2-.7.5-1.4.8-2.1zm-9.6 3.4c.5.8 1 1.4 1.5 2.1h5.1c.5-.7 1.1-1.4 1.5-2.1H2.7zM8.1 30H5.3c.5.5.9.8 1.4 1.2.5-.4 1-.7 1.4-1.2z"/>
    <path fill="#ffffff" d="M11.6 25.1h11.8c.2-.5.5-1 .6-1.4H12.2c-.2.4-.4.9-.6 1.4zm-2.1 3.4h11.7c.4-.5.8-1 1.1-1.4H10.5c-.3.4-.7.9-1 1.4zm-2.8 2.8c.2.2.5.4.8.6h10.1c.7-.5 1.3-.9 1.8-1.4H7.7c-.4.2-.7.5-1 .8zm5.7 2.9c.5-.2 1-.3 1.5-.5h-3c.6.2 1.1.4 1.5.5zm11.5-22.7c-.2-.5-.4-.9-.6-1.4V10H11.9l.3-.5h-1.1c.2.3.4.7.5 1 .2.3.3.7.5 1.1h11.8zM18.3 1.4L17.6.3l-.1-.3c-2.9 0-5.6.7-8 1.9h7.1l.4-.5h1.3zm1.9 3.3l-.8-1.4h-3.6l.3-.5h-8c-.6.3-1.1.8-1.7 1.1.6.4 1.1.9 1.6 1.3h6.7l.3-.5h5.2zm2 3.4l-.8-1.4h-7.5l.3-.6H8.6c.8.8 1.4 1.7 1.9 2.6h2l.3-.5c.1-.1 9.4-.1 9.4-.1zM18 14.9h6.9c-.1-.5-.2-1-.3-1.4h-12c.2.5.2 1 .3 1.4h4.2l-.2.5h1.4l-.6-1.4m7.1 6.2h-4.5l-.2-.5H15l-.2.5h-1.7c-.1.5-.2 1-.3 1.4h1.3l-.2.5h7.5l-.2-.5h3.6c-.1-.4 0-.9 0-1.4z"/>
    <path fill="#ffffff" d="M17.5 0l1 1.7h6.7C22.9.6 20.3 0 17.5 0zm9.6 2.9h-8l1.3 2.3h9.5c-.8-.9-1.8-1.6-2.8-2.3zm3.8 3.3h-9.8l.8 1.3.6.9h10.2c-.7-.7-1.2-1.4-1.8-2.2zm2.3 3.4H23.1c.1.2.2.4.3.5l1 1.7h9.7c-.2-.7-.5-1.4-.9-2.2zm1.7 5.7c-.1-.8-.2-1.5-.5-2.3H25l.4.6h-.8c.1.4.2.7.2 1.1H26l.4.6h8.5zm.1 1.1h-8l.4.6h-2.2v1.1H28l.4.6h6.7c0-.4.1-.8.1-1.1-.1-.5-.2-.8-.2-1.2zm-6.1 3.4l.4.6h-4.4c-.1.4-.2.7-.2 1.1h5.2l.4.6h4.2c.2-.8.4-1.5.5-2.3h-6.1zm1.9 3.4l.4.6h-7.3c-.2.4-.3.7-.5 1.1h8.3l.4.6h1c.4-.8.7-1.4 1-2.3h-3.3zm-9.4 5.1h9.9c.2-.3.5-.7.8-1.1h-9.9c-.3.4-.5.7-.8 1.1zm-3.5 3.4h10c.5-.3.9-.7 1.3-1.1h-10c-.4.4-.9.7-1.3 1.1zm-5.5 2.5c1.6.5 3.3.8 5.1.8 2.1 0 4.1-.4 6-1.1H13.3c-.3.2-.6.3-.9.3zm12.7-17.4h-6.2l.7 1.4h5.5v-1.4z"/>
    <path fill="#ffffff" d="M16.5 16.3l-.2.5h-3.1v1.5h2.4l-.2.5h4.4l-1.1-2.6c-.1.1-2.2.1-2.2.1zm44.4-2.7h-8.6l4.3-10.8 4.3 10.8zm-15.1 8.1h3.3l2.2-5.5h10.6l2.2 5.5h3.4L58.3 0H55l-9.2 21.7zm24.7-3.1c1.1.8 2.8 1.1 3.6 1.1 1.4 0 3-.5 3-2.3 0-2.9-6.9-2.7-6.9-7 0-3.3 2.4-4.8 5.6-4.8 1.4 0 2.5.3 3.6.6l-.2 2.6c-.7-.4-2.3-.8-3.1-.8-1.5 0-2.8.6-2.8 1.9 0 3.3 6.9 2.3 6.9 7.3 0 3.4-2.7 4.9-5.5 4.9-1.5 0-3-.2-4.3-.8.1-.1.1-2.7.1-2.7zm13.8 0c1.1.8 2.8 1.1 3.6 1.1 1.4 0 3-.5 3-2.3 0-2.9-6.9-2.7-6.9-7 0-3.3 2.4-4.8 5.6-4.8 1.4 0 2.5.3 3.6.6L93 8.8c-.7-.4-2.4-.8-3.1-.8-1.5 0-2.8.6-2.8 1.9 0 3.3 6.9 2.3 6.9 7.3 0 3.4-2.7 4.9-5.5 4.9-1.5 0-3-.2-4.3-.8 0-.1.1-2.7.1-2.7zm24-3.1c0 2.3-1.5 4.2-4.4 4.2-1.4 0-3-.9-3-2.6 0-2.8 3.9-3 5.5-3 .6 0 1.2.1 1.9.1v1.3zm-8.5-6.1c1.2-1 3-1.6 4.6-1.6 3 0 3.9 1.4 3.9 4.1-1.1-.1-2-.1-3.1-.1-3 0-7.3 1.2-7.3 5.2 0 3.5 2.3 4.9 5.8 4.9 2.7 0 4.2-1.4 4.9-2.4h.1v2h2.7c-.1-.5-.2-1.3-.2-3.1V12c0-4.3-1.8-6.5-6.4-6.5-2 0-3.8.6-5.2 1.5l.2 2.4zm16.9-3.6h2.8v2.5h.1c.8-1.8 3-2.9 5.2-2.9 4.1 0 5.9 2.6 5.9 6.8v9.4h-3v-8.2c0-3.7-.8-5.5-3.3-5.6-3.3 0-4.8 2.7-4.8 6.5v7.3h-2.9V5.8zm27.1 2.7h-4.2v8.6c0 1.8 1.1 2.8 2.4 2.8.9 0 1.5-.3 2-.5v2.5c-.7.2-1.5.5-2.5.5-3 0-4.8-1.4-4.8-4.6V8.5h-3.6V6.1h3.6V2.4l3-.9v4.6h4.2c-.1 0-.1 2.4-.1 2.4zm5.7 3.7c.2-2 1.4-4.4 4.2-4.4 2.5 0 3.9 2 3.9 4.4h-8.1zm10 5.9c-.7.6-3 1.6-4.8 1.6-2.7 0-5.2-2.1-5.2-5.3h11.3c0-5.1-1.7-8.9-7-8.9-4.5 0-7.4 3.3-7.4 8 0 5.2 2.6 8.6 8.2 8.6 2.6 0 3.9-.6 5-1.1l-.1-2.9zm-113.7 11H47l1.1 4.6 1-4.6h1.7l1.1 4.6 1.1-4.6h1l-1.5 5.8H51l-1-4.6-1.1 4.6h-1.5l-1.6-5.8zm10.2 0h3.4v.9h-2.3v1.4h2v.9h-2V34h2.3v.9h-3.5l.1-5.8zm7.5 0h1.3l2.3 5.8h-1.3l-.5-1.4H63l-.5 1.4h-1.2l2.2-5.8zm.7 1.2l-.8 2.4H65l-.8-2.4zm4.9-1.2h1.1V34h2.3v.9h-3.4v-5.8zm6.4.9h-1.7v-.9h4.5v.9h-1.7v4.9h-1.1V30zm4.8-.9h1.1v2.3h2.3v-2.3h1.1v5.8h-1.1v-2.6h-2.3v2.6h-1.1v-5.8zm10.8 0H93l1.4 4.4 1.4-4.4h1.9v5.8h-1.1v-4.8L95 34.9h-1.1l-1.6-4.8v4.8H91l.1-5.8zm10.6 0h1.3l2.3 5.8H104l-.5-1.4h-2.3l-.5 1.4h-1.2l2.2-5.8zm.7 1.2l-.8 2.4h1.7l-.9-2.4zm4.9-1.2h1.4l2.2 4.3v-4.3h1.1v5.8h-1.4l-2.2-4.3v4.3h-1.1v-5.8zm8.9 0h1.3l2.3 5.8h-1.3l-.5-1.4h-2.3l-.5 1.4H114l2.2-5.8zm.7 1.2l-.8 2.4h1.7l-.9-2.4zm9.4-.1c-.5-.2-1.1-.3-1.5-.3-1.4 0-2.1.9-2.1 2.1 0 1.2.8 2 2 2 .3 0 .5 0 .8-.1v-1.5h-1.1v-.9h2.3v3.1c-.6.2-1.3.3-1.9.3-1.9 0-3.2-.9-3.2-2.9s1.2-3.1 3.2-3.1c.7 0 1.2.1 1.7.2l-.2 1.1zm2.7-1.1h3.4v.9h-2.3v1.4h2v.9h-2V34h2.3v.9h-3.5l.1-5.8zm5.8 0h1.9l1.4 4.4 1.4-4.4h1.9v5.8h-1.1v-4.8l-1.6 4.8h-1.1l-1.6-4.8v4.8h-1.1l-.1-5.8zm9.1 0h3.4v.9H145v1.4h2v.9h-2V34h2.3v.9h-3.4v-5.8zm5.8 0h1.4l2.2 4.3v-4.3h1.1v5.8H153l-2.2-4.3v4.3h-1.1v-5.8zm8.3.9h-1.7v-.9h4.5v.9h-1.7v4.9H158V30zm4.6-21.9c0-1.5 1.2-2.7 2.7-2.7s2.7 1.2 2.7 2.7-1.2 2.7-2.7 2.7c-1.5.1-2.7-1.2-2.7-2.7zm4.8 0c0-1.3-.9-2.2-2-2.2s-2 .9-2 2.2.9 2.2 2 2.2c1 .1 2-.9 2-2.2zm-3.2-1.5h1.1c.8 0 1.1.2 1.1.9 0 .5-.3.8-.8.8l.8 1.4h-.6l-.8-1.4h-.4v1.4h-.6V6.6h.2zm.6 1.3h.5c.3 0 .6-.1.6-.5s-.3-.5-.6-.5h-.5v1z"/>
</svg>
