<svg xmlns="http://www.w3.org/2000/svg" width="164" height="35" viewBox="0 0 164 35">
    <style>
        .st0{fill:#fff}
    </style>
    <path class="st0" d="M6.3 4c-.6.5-1.2 1-1.7 1.6h3.3C7.4 5 6.9 4.5 6.3 4zm2 1.8H4.4c-.8.9-1.6 1.9-2.2 3h8.3c-.7-1.1-1.4-2-2.2-3zm3.5 5.9l-.5-1.3-.6-1.2H2c-.5 1-1 1.9-1.2 3h9.5l.3-.4h1.2zm.9 3.3c-.1-.7-.3-1.4-.4-2H9.8l.3-.5H.7c-.3 1-.4 1.9-.6 3h8.3l.2-.5h4.1zm.2 2.4v-1.1h-5l.3-.5H.1c-.1.5-.1.9-.1 1.4s0 1 .1 1.6h6.4l.3-.4H13v-1zm-.2 2.2H5.9l.3-.4H.1c.1 1 .3 2 .6 3h3.8l.3-.4h7.6c.1-.8.2-1.5.3-2.2zm-.7 3.3H4l.3-.5H.8c.3 1 .8 2.1 1.3 3h.5l.3-.4h8.3c.3-.7.6-1.4.8-2.1zm-9.5 3.3c.4.7 1 1.4 1.5 2h5c.5-.6 1-1.3 1.5-2h-8zm5.3 3.2H5.1c.4.4.9.8 1.4 1.2.5-.4 1-.7 1.3-1.2z"/>
    <path class="st0" d="M11.3 24.6h11.5c.3-.4.4-1 .6-1.4H11.8c-.1.5-.3.9-.5 1.4zm-2.1 3.3h11.5c.3-.4.7-1 1-1.4H10.3c-.4.5-.7.9-1.1 1.4zm-2.7 2.7c.3.2.5.4.8.6h9.8c.6-.4 1.2-1 1.8-1.4H7.5c-.3.2-.6.6-1 .8zm5.6 2.9c.5-.2 1-.3 1.5-.5h-2.9c.5.3 1 .4 1.4.5zm11.2-22.1l-.5-1.3-.1-.1H11.6l.3-.5h-1c.2.3.3.6.5 1 .2.3.3.7.4 1h11.5zm-5.5-9.9L17.1.4 17 .2c-2.8 0-5.5.7-7.7 1.9h6.9l.3-.6h1.3zm2 3.3L19 3.4h-3.5l.3-.5H8c-.7.3-1.2.7-1.7 1.1.5.4 1 .9 1.5 1.3h6.5l.3-.5h5.2zm1.8 3.3l-.8-1.4h-7.3l.3-.5H8.4c.7.8 1.4 1.5 2 2.5h2l.3-.5 8.9-.1zm-4 6.6h6.7c-.1-.5-.2-1-.3-1.4H12.4c.1.4.3 1 .3 1.4h4l-.3.5h1.3l-.6-1.4m7.2 6.1h-4.4l-.3-.5h-5l-.3.5h-1.7c-.1.5-.2 1-.3 1.4h1.3l-.3.6h7.3l-.3-.5H24c.1-.6.2-1 .3-1.5z"/>
    <path class="st0" d="M17.1.2l1 1.7h6.5C22.3.8 19.8.2 17.1.2zM26.5 3h-7.7L20 5.2h9.2c-.9-.8-1.8-1.6-2.7-2.2zm3.6 3.3h-9.6l.7 1.3c.2.3.3.6.6.9h9.8c-.3-.8-.9-1.5-1.5-2.2zm2.3 3.3h-9.8l.3.5 1 1.7h9.6c-.5-.8-.8-1.5-1.1-2.2zm1.6 5.5c-.1-.8-.3-1.5-.4-2.2h-9.2l.3.6H24c.1.3.2.7.2 1h1l.3.6H34zm.1 1.1h-7.8l.3.6h-2.2v1h2.8l.3.6h6.6v-2.2zm-5.9 3.3l.3.6h-4.3c-.1.3-.1.7-.2 1h5l.3.6h4.2c.2-.7.3-1.5.4-2.2h-5.7zm1.8 3.3l.3.6h-7.1c-.2.3-.3.7-.4 1H31l.3.6h1c.3-.7.7-1.5 1-2.2H30zm-9.1 4.9h9.7c.3-.3.5-.7.7-1h-9.7c-.2.3-.4.6-.7 1zM17.4 31h9.8l1.3-1h-9.8c-.4.4-.9.7-1.3 1zm-5.3 2.5c1.6.4 3.2.7 5 .7 2 0 4-.3 5.8-1h-9.8c-.4.1-.6.3-1 .3zm12.4-17h-6l.6 1.4h5.4v-1.4zm-8.4-.5l-.3.5h-3v1.4h2.4l-.2.6h4.3L18.2 16h-2.1zm43.3 10.5H51L55.1 16l4.3 10.5zm-14.6 7.8h3.1l2.2-5.3h10.4l2.2 5.3H66l-9-21.2h-3.1c-.1 0-9.1 21.2-9.1 21.2zm24-3c1.1.7 2.7 1.1 3.6 1.1 1.3 0 3-.5 3-2.2 0-2.8-6.7-2.6-6.7-6.9 0-3.2 2.4-4.8 5.5-4.8 1.3 0 2.4.3 3.6.6l-.3 2.5c-.6-.4-2.4-.8-3-.8-1.5 0-2.7.6-2.7 1.9 0 3.1 6.7 2.3 6.7 7.1 0 3.3-2.6 4.8-5.4 4.8-1.5 0-3-.2-4.3-.9v-2.4zm13.5 0c1.1.7 2.7 1.1 3.6 1.1 1.3 0 3-.5 3-2.2 0-2.8-6.7-2.6-6.7-6.9 0-3.2 2.4-4.8 5.5-4.8 1.3 0 2.4.3 3.6.6l-.3 2.5c-.6-.4-2.4-.8-3-.8-1.5 0-2.8.6-2.8 1.9 0 3.1 6.7 2.3 6.7 7.1 0 3.3-2.6 4.8-5.4 4.8-1.5 0-3-.2-4.3-.9l.1-2.4zm23.3-3c0 2.3-1.5 4.1-4.3 4.1-1.3 0-2.9-.9-2.9-2.5 0-2.7 3.8-3 5.4-3 .6 0 1.2.1 1.8.1v1.3zm-8.3-5.9c1.1-1 2.9-1.6 4.4-1.6 2.9 0 3.8 1.3 3.8 4-1.1-.1-1.9-.1-3-.1-3 0-7.1 1.2-7.1 5 0 3.4 2.4 4.8 5.7 4.8 2.6 0 4.1-1.4 4.8-2.4h.1v2h2.7c-.1-.4-.1-1.3-.1-3v-6.4c0-4.2-1.8-6.4-6.2-6.4-2 0-3.7.6-5 1.5v2.6zm16.5-3.5h2.8v2.4h.1c.9-1.7 2.9-2.8 5-2.8 4 0 5.7 2.5 5.7 6.6v9.1h-2.9v-8c0-3.6-.8-5.3-3.3-5.5-3.2 0-4.7 2.6-4.7 6.4v7.1h-2.9l.2-15.3zm26.4 2.5h-4.1v8.4c0 1.7 1.1 2.8 2.4 2.8.9 0 1.5-.3 1.9-.5v2.4c-.6.2-1.5.4-2.4.4-3 0-4.8-1.4-4.8-4.4v-9.1h-3.5v-2.3h3.5v-3.6l2.9-.9V19h4.1v2.4zm5.5 3.7c.2-2 1.4-4.3 4.2-4.3 2.4 0 3.8 1.9 3.8 4.3h-8zm9.9 5.7c-.7.6-2.9 1.6-4.8 1.6-2.7 0-5-2.1-5-5.1h11c0-5-1.7-8.7-6.8-8.7-4.4 0-7.2 3.2-7.2 7.7 0 5 2.5 8.4 8 8.4 2.5 0 3.7-.6 4.9-1-.1 0-.1-2.9-.1-2.9zM49.5 1.3C49 1 48.4 1 48 1c-1.3 0-2.1.9-2.1 2.1 0 1.1.7 2 1.9 2 .3 0 .5 0 .8-.1V3.5h-1.2v-.9h2.3v3c-.6.2-1.2.3-1.8.3-1.8 0-3.1-1-3.1-2.9s1.2-3 3.1-3c.7 0 1.2.1 1.7.3-.1 0-.1 1-.1 1zM51.6.2h3.3V1h-2.2v1.4h2v.9h-2v1.6H55v.9h-3.4V.2zm8.4 1c-.4-.2-.8-.2-1.1-.2-.4 0-.9.1-.9.7 0 1 2.5.6 2.5 2.4 0 1.2-1 1.7-2.1 1.7-.6 0-.9-.1-1.5-.3l.1-1c.4.3.9.5 1.3.5s1-.3 1-.7c0-1-2.5-.6-2.5-2.5 0-1.3 1-1.7 2-1.7.3.1.8.2 1.2.3.1-.1 0 .8 0 .8zm3.2-.2h-1.7V.2h4.4V1h-1.7v4.8h-1.1l.1-4.8zm4.2-.8h1.1v5.7h-1.1V.2zM73 .1c1.7 0 2.8 1.2 2.8 3s-1 3-2.8 3c-1.8 0-2.8-1.2-2.8-3s1-3 2.8-3zM73 5c1.1 0 1.6-1 1.6-2.1 0-1-.4-2-1.6-2s-1.6 1-1.6 2C71.5 4 71.8 5 73 5zM77.6.2H79l2.2 4.3V.2h1.1v5.7h-1.4l-2.2-4.3v4.3h-1.1V.2zm9.7 0h1.6c1.7 0 3.3.6 3.3 2.9S90.6 6 88.9 6h-1.6V.2zM88.5 5h.6c1 0 1.8-.7 1.8-1.9s-1-1.9-1.8-1.9h-.6V5zM93.9.2h3.3V1H95v1.4h2v.9h-2v1.6h2.3v.9h-3.4V.2zm8.2 0h1.5c1.2 0 2.4.3 2.4 1.7 0 1.3-1 1.8-2.2 1.8h-.5v2.2h-1.1c-.1 0-.1-5.7-.1-5.7zm1.2 2.6h.4c.6 0 1-.2 1-.9s-.5-.9-1-.9h-.4v1.8zm5.9-2.6h1.3l2.3 5.7h-1.3l-.5-1.3h-2.3l-.5 1.3H107c-.1-.1 2.2-5.7 2.2-5.7zm.6 1.1l-.9 2.4h1.7l-.8-2.4zm5.4-.3h-1.7V.2h4.4V1h-1.7v4.8h-1.1l.1-4.8zm4.2-.8h1.2c1.2 0 2.7 0 2.7 1.6 0 .7-.4 1.2-1.1 1.3.3 0 .5.3.6.6l.9 2.2h-1.3l-.7-1.7c-.2-.4-.3-.6-.8-.6h-.3V6h-1.1c-.1-.2-.1-5.8-.1-5.8zm1.1 2.4h.3c.5 0 1.2-.1 1.2-.8s-.6-.7-1.2-.7h-.3v1.5zm4.6-2.4h1.1v5.7h-1.1V.2zm3.1 0h1.8l1.3 4.3 1.3-4.3h1.8v5.7h-1.1V1.2l-1.6 4.7h-1.1L129 1.2v4.7h-1V.2h.2zm11-.1c1.7 0 2.8 1.2 2.8 3s-1 3-2.8 3-2.8-1.2-2.8-3 1-3 2.8-3zm0 4.9c1.1 0 1.6-1 1.6-2.1 0-1-.4-2-1.6-2-1.1 0-1.6 1-1.6 2 0 1.1.4 2.1 1.6 2.1zm4.5-4.8h1.1v5.7h-1.1V.2zm3 0h1.4l2.2 4.3V.2h1.1v5.7H150l-2.2-4.3v4.3h-1.1V.2zm6.7 0h3.3V1h-2.2v1.4h2v.9h-2v1.6h2.3v.9h-3.4V.2zm5.2 21c0-1.5 1.2-2.7 2.7-2.7 1.5 0 2.7 1.2 2.7 2.7 0 1.5-1.2 2.7-2.7 2.7-1.5-.1-2.7-1.3-2.7-2.7zm4.6 0c0-1.2-.9-2.2-2-2.2s-2 .9-2 2.2c0 1.2.9 2.2 2 2.2 1.2-.2 2-1 2-2.2zm-3-1.6h1.1c.7 0 1.1.3 1.1.9 0 .5-.3.8-.8.8l.8 1.3h-.5l-.8-1.3h-.3v1.3h-.6v-3zm.6 1.3h.5c.3 0 .6-.1.6-.4s-.3-.4-.6-.4h-.5v.8z"/>
</svg>
