<?xml version="1.0" encoding="UTF-8"?>
<!DOCTYPE svg PUBLIC "-//W3C//DTD SVG 1.1//EN" "http://www.w3.org/Graphics/SVG/1.1/DTD/svg11.dtd">
<svg xmlns="http://www.w3.org/2000/svg" width="192" height="40" viewBox="0 0 192 40">
    <path fill="#003e51" d="M7.4 4.5c-.7.6-1.3 1.2-1.9 1.8h3.9c-.7-.6-1.3-1.2-2-1.8zm2.3 2.2H5.1c-1 1.1-1.8 2.3-2.5 3.5h9.7c-.7-1.3-1.7-2.4-2.6-3.5zm4.2 6.8c-.2-.5-.4-1-.6-1.6-.3-.5-.4-1-.7-1.4H2.3C1.7 11.6 1.2 12.8.8 14H12l.3-.5h1.6zm1 3.9c-.1-.8-.3-1.6-.5-2.4h-2.9l.3-.6H.8c-.3 1.1-.5 2.3-.7 3.5h9.7l.3-.5h4.8zm.2 2.9c0-.4 0-1-.1-1.4H9.2l.3-.5H0V20c0 .6 0 1.2.1 1.8h7.4l.3-.5H15c.1 0 .1-1 .1-1zm-.1 2.5H7l.3-.5H.1c.2 1.2.3 2.3.7 3.5h4.4l.3-.6h8.9c.3-.9.4-1.7.6-2.4zm-1 3.9H4.7l.3-.6H1c.3 1.2.9 2.4 1.5 3.5H3l.4-.6h9.7c.3-.8.7-1.6.9-2.3zM3 30.5c.5.9 1.1 1.6 1.7 2.4h5.8c.6-.8 1.2-1.6 1.7-2.4H3zm6.3 3.8H6.1c.5.5 1 1 1.6 1.4.5-.5 1-.9 1.6-1.4z"/>
    <path fill="#003e51" d="M13.2 28.7h13.5c.3-.5.5-1.1.7-1.6H13.9c-.2.4-.4 1-.7 1.6zm-2.4 3.9h13.4c.4-.5.9-1.1 1.2-1.6H12c-.3.4-.7 1-1.2 1.6zm-3.2 3.2c.3.3.6.4 1 .7h11.5c.8-.5 1.5-1 2.1-1.6H8.8c-.4.2-.7.5-1.2.9zm6.6 3.3c.6-.2 1.1-.3 1.7-.6h-3.4c.7.3 1.2.5 1.7.6zm13.2-25.9c-.2-.5-.4-1-.7-1.6l-.1-.2h-13l.3-.6h-1.2c.2.3.4.8.6 1.1.2.3.3.8.5 1.2h13.6zM21 1.6L20.2.3 20 0c-3.3 0-6.4.8-9.1 2.2H19l.3-.6H21zm2.1 3.8l-1-1.6H18l.3-.6h-9c-.7.3-1.3.9-1.9 1.3.6.4 1.2 1 1.7 1.5h7.7l.3-.6h6zm2.3 3.9l-1-1.6h-8.6l.3-.7H9.9c.9.9 1.6 1.9 2.2 2.9h2.3l.3-.6h10.7zm-4.8 7.8h7.9c-.1-.6-.2-1.1-.3-1.6H14.5c.2.5.3 1.1.3 1.6h4.8l-.3.6h1.6l-.7-1.7m8.2 7.1h-5.1l-.3-.6h-5.9l-.3.6H15c-.1.6-.2 1.1-.3 1.6h1.5l-.3.6h8.6l-.3-.6h4.1c-.1-.5 0-1.1.1-1.6z"/>
    <path fill="#003e51" d="M20 0l1.1 2h7.6C26.1.7 23.2 0 20 0zm11 3.3h-9.1l1.5 2.6h10.8c-1-1-2.1-1.8-3.2-2.6zm4.3 3.8H24.1l.9 1.5c.3.3.4.7.7 1h11.6c-.7-.8-1.3-1.6-2-2.5zm2.6 3.9H26.4l.3.6 1.1 2H39c-.3-.9-.6-1.7-1.1-2.6zm2 6.5c-.1-.9-.3-1.7-.5-2.6H28.6l.4.7h-.9l.3 1.2h1.3l.4.7h9.8zm.1 1.3h-9.2l.4.7h-2.5v1.2h3.2l.4.7H40c0-.4.1-.9.1-1.3 0-.5-.1-.9-.1-1.3zm-7 3.9l.4.7h-5l-.3 1.2h6l.4.7h4.8c.3-.9.4-1.7.5-2.6H33zm2.2 3.8l.4.7h-8.3c-.2.4-.3.8-.5 1.2h9.5l.4.7h1.1c.4-.9.8-1.6 1.1-2.6h-3.7zm-10.7 5.8h11.3c.3-.3.6-.8.9-1.2H25.4c-.4.4-.6.8-.9 1.2zm-4.1 3.9h11.4c.5-.3 1-.8 1.5-1.2H21.9c-.4.4-.9.8-1.5 1.2zm-6.2 2.9c1.8.6 3.8.9 5.8.9 2.4 0 4.7-.4 6.8-1.2H15.2c-.3.2-.7.2-1 .3zm14.5-19.9h-7.1l.8 1.6h6.3v-1.6zm-9.8-.6l-.3.6h-3.5V21h2.8l-.3.6h5l-1.3-2.9c0-.1-2.4-.1-2.4-.1zm50.7-3h-9.8l4.9-12.3 4.9 12.3zm-17.2 9.2h3.7l2.5-6.2h12.1l2.5 6.2h3.9L66.7 0H63L52.4 24.8zm28.2-3.6c1.3.9 3.2 1.3 4.2 1.3 1.6 0 3.5-.6 3.5-2.6 0-3.3-7.9-3-7.9-8.1 0-3.7 2.8-5.5 6.4-5.5 1.6 0 2.9.3 4.2.7l-.4 3c-.8-.4-2.7-1-3.5-1-1.7 0-3.2.7-3.2 2.2 0 3.7 7.9 2.6 7.9 8.4 0 3.9-3.1 5.6-6.3 5.6-1.7 0-3.5-.2-4.9-1-.1 0 0-3 0-3zm15.8 0c1.3.9 3.2 1.3 4.2 1.3 1.6 0 3.5-.6 3.5-2.6 0-3.3-7.9-3-7.9-8.1 0-3.7 2.8-5.5 6.4-5.5 1.6 0 2.9.3 4.2.7l-.3 2.9c-.8-.4-2.8-1-3.5-1-1.7 0-3.2.7-3.2 2.2 0 3.7 7.9 2.6 7.9 8.4 0 3.9-3.1 5.6-6.3 5.6-1.7 0-3.5-.2-4.9-1-.2.1-.1-2.9-.1-2.9zm27.4-3.5c0 2.7-1.7 4.8-5 4.8-1.6 0-3.4-1-3.4-2.9 0-3.2 4.5-3.5 6.3-3.5.7 0 1.4.1 2.2.1l-.1 1.5zm-9.7-7c1.4-1.1 3.4-1.8 5.3-1.8 3.4 0 4.5 1.6 4.5 4.7-1.3-.1-2.3-.1-3.5-.1-3.5 0-8.4 1.4-8.4 6 0 4 2.7 5.6 6.7 5.6 3 0 4.8-1.6 5.6-2.8h.1v2.3h3.1c-.1-.5-.2-1.5-.2-3.5v-7.4c0-4.9-2.1-7.4-7.3-7.4-2.3 0-4.3.7-6 1.7l.1 2.7zm19.2-4h3.2v2.9h.1c1-2.1 3.4-3.3 5.9-3.3 4.7 0 6.8 2.9 6.8 7.8v10.7h-3.4v-9.4c0-4.2-1-6.2-3.8-6.4-3.8 0-5.5 3-5.5 7.4v8.4h-3.3V6.7zm31 3h-4.8v9.9c0 2.1 1.3 3.2 2.8 3.2 1 0 1.7-.3 2.3-.6V25c-.8.2-1.7.5-2.9.5-3.5 0-5.5-1.6-5.5-5.3V9.7h-4.1V7h4.1V2.8l3.4-1V7h4.8c-.1 0-.1 2.7-.1 2.7zm6.5 4.2c.3-2.3 1.6-5 4.8-5 2.9 0 4.5 2.3 4.5 5h-9.3zm11.5 6.8c-.8.7-3.4 1.8-5.5 1.8-3.1 0-6-2.4-6-6.1h12.9c0-5.8-2-10.2-8-10.2-5.1 0-8.5 3.8-8.5 9.1 0 5.9 2.9 9.8 9.4 9.8 2.9 0 4.4-.7 5.7-1.2v-3.2zM52.4 33.2h1.4l1.2 5.3 1.1-5.3H58l1.2 5.3 1.2-5.3h1.3L60 39.9h-1.7l-1.1-5.3-1.2 5.3h-1.7c-.1 0-1.9-6.7-1.9-6.7zm11.6 0h3.9v1h-2.6v1.6h2.3v1h-2.3v1.9h2.6v1h-4l.1-6.5zm8.6 0H74l2.6 6.7h-1.5l-.6-1.6h-2.7l-.6 1.6h-1.4l2.8-6.7zm.7 1.4l-1 2.8h1.9c.1 0-.9-2.8-.9-2.8zm5.7-1.4h1.3v5.6h2.6v1H79v-6.6zm7.3 1.1h-1.9v-1h5.1v1h-1.9v5.6h-1.3v-5.6zm5.5-1.1h1.3v2.7h2.7v-2.7h1.3v6.7h-1.3V37h-2.7v2.9h-1.3v-6.7zm12.3 0h2.2l1.6 5 1.6-5h2.2v6.7h-1.3v-5.5l-1.8 5.5h-1.3l-1.8-5.5v5.5H104l.1-6.7zm12.2 0h1.5l2.6 6.7h-1.5l-.6-1.6h-2.7l-.6 1.6h-1.4l2.7-6.7zm.8 1.4l-1 2.8h1.9l-.9-2.8zm5.5-1.4h1.6l2.5 4.9v-4.9h1.3v6.7h-1.6l-2.5-4.9v4.9h-1.3v-6.7zm10.2 0h1.5l2.6 6.7h-1.5l-.6-1.6h-2.7l-.6 1.6h-1.4l2.7-6.7zm.8 1.4l-1 2.8h1.9l-.9-2.8zm10.7-.1c-.5-.3-1.2-.3-1.7-.3-1.6 0-2.4 1-2.4 2.4s.9 2.3 2.3 2.3c.3 0 .6 0 .9-.1v-1.7H142v-1h2.7v3.5c-.7.2-1.5.3-2.2.3-2.2 0-3.6-1-3.6-3.3s1.4-3.5 3.6-3.5c.8 0 1.4.1 2 .3l-.2 1.1zm3.1-1.3h3.9v1h-2.6v1.6h2.3v1h-2.3v1.9h2.6v1h-4l.1-6.5zm6.7 0h2.2l1.6 5 1.6-5h2.2v6.7h-1.3v-5.5l-1.8 5.5h-1.3l-1.8-5.5v5.5h-1.2l-.2-6.7zm10.4 0h3.9v1h-2.6v1.6h2.3v1h-2.3v1.9h2.6v1h-3.9v-6.5zm6.6 0h1.6l2.5 4.9v-4.9h1.3v6.7h-1.6l-2.5-4.9v4.9h-1.3v-6.7zm9.5 1.1h-1.9v-1h5.1v1h-1.9v5.6h-1.3v-5.6zm5.2-25c0-1.7 1.4-3.1 3.1-3.1s3.1 1.4 3.1 3.1-1.4 3.1-3.1 3.1c-1.7.1-3.1-1.4-3.1-3.1zm5.5 0c0-1.5-1-2.5-2.3-2.5-1.3 0-2.3 1-2.3 2.5s1 2.5 2.3 2.5c1.2.1 2.3-1.1 2.3-2.5zm-3.6-1.8h1.3c.9 0 1.3.3 1.3 1 0 .6-.3.9-1 1l1 1.6h-.7l-1-1.6h-.4v1.6h-.7V7.5h.2zm.7 1.5h.6c.3 0 .7-.1.7-.5s-.3-.5-.7-.5h-.6v1z"/>
</svg>
