<?xml version="1.0" encoding="UTF-8"?>
<!DOCTYPE svg PUBLIC "-//W3C//DTD SVG 1.1//EN" "http://www.w3.org/Graphics/SVG/1.1/DTD/svg11.dtd">
<svg xmlns="http://www.w3.org/2000/svg" width="188.3" height="40" viewBox="0 0 188.3 40">
    <path fill="#003e51" d="M7.2 4.5c-.7.6-1.3 1.1-1.9 1.8h3.8c-.6-.7-1.2-1.2-1.9-1.8zm2.3 2.1H5c-.9 1-1.8 2.2-2.5 3.4H12c-.7-1.2-1.5-2.3-2.5-3.4zm4.1 6.7l-.6-1.5c-.2-.5-.5-.9-.7-1.4h-10c-.6 1.1-1.1 2.2-1.4 3.4h10.9l.3-.5h1.5zm1 3.8c-.1-.8-.3-1.6-.5-2.3h-2.8l.3-.6H.8c-.3 1.1-.5 2.2-.7 3.4h9.5l.3-.5h4.7zm.2 2.8v-1.3H9.1l.3-.6H.1c-.1.6-.1 1.1-.1 1.7 0 .6 0 1.2.1 1.8h7.3l.3-.5h7.1v-1.1zm-.2 2.5H6.8l.3-.5h-7c.1 1.2.4 2.3.7 3.4h4.4l.3-.5h8.7c.2-.8.3-1.6.4-2.4zm-.8 3.8H4.6l.3-.6h-4c.4 1.2.9 2.4 1.5 3.4H3l.3-.5h9.5c.4-.7.7-1.5 1-2.3zM2.9 30c.5.8 1.1 1.6 1.7 2.3h5.7c.6-.7 1.2-1.5 1.7-2.3H2.9zM9 33.7H5.9c.5.5 1 .9 1.6 1.4.5-.5 1.1-.9 1.5-1.4z"/>
    <path fill="#003e51" d="M13 28.1h13.2c.3-.5.5-1.1.7-1.6H13.6c-.2.6-.4 1.1-.6 1.6zm-2.4 3.8h13.2c.4-.5.8-1.1 1.2-1.6H11.8c-.4.6-.8 1.1-1.2 1.6zm-3.1 3.2c.3.2.6.5.9.7h11.3c.7-.5 1.4-1.1 2.1-1.6H8.6c-.3.2-.7.6-1.1.9zm6.4 3.3c.6-.2 1.1-.3 1.7-.6h-3.3c.6.3 1.1.5 1.6.6zM26.8 13l-.6-1.5-.1-.1H13.3l.4-.6h-1.2c.2.4.4.7.6 1.1.2.4.3.8.5 1.1h13.2zM20.5 1.6L19.7.3l-.1-.2c-3.2 0-6.3.8-8.9 2.2h7.9l.4-.7h1.5zm2.2 3.8l-.9-1.6h-4l.4-.6h-9c-.8.4-1.4.8-2 1.3.6.5 1.1 1 1.7 1.5h7.5l.4-.6h5.9zm2.1 3.8l-.9-1.6h-8.4l.4-.6H9.7c.8.9 1.5 1.8 2.2 2.9h2.3l.4-.6h10.2zm-4.6 7.6h7.7c-.1-.6-.2-1.1-.3-1.6H14.2c.1.5.3 1.1.3 1.6h4.6l-.3.6h1.5l-.7-1.6m8.3 6.9h-5l-.3-.6h-5.8l-.3.6h-1.9c-.1.6-.2 1.1-.3 1.6h1.5l-.3.7h8.4l-.3-.6h4c.1-.6.2-1.1.3-1.7z"/>
    <path fill="#003e51" d="M19.6.1l1.1 2h7.5c-2.6-1.3-5.5-2-8.6-2zm10.8 3.2h-8.9l1.4 2.5h10.6c-1-.9-2-1.8-3.1-2.5zm4.2 3.8h-11l.8 1.5c.2.3.4.7.7 1h11.3c-.5-.9-1.1-1.7-1.8-2.5zm2.6 3.8H25.9l.3.6 1.1 1.9h11c-.4-.9-.7-1.7-1.1-2.5zm1.9 6.3c-.1-.9-.3-1.7-.5-2.5H28l.4.7h-.8c.1.4.2.8.2 1.2H29l.4.7h9.7zm.1 1.3h-9l.4.7h-2.5v1.2h3.2l.4.7h7.6v-1.3c-.1-.5-.1-.9-.1-1.3zm-6.8 3.8l.4.7h-4.9c-.1.4-.1.8-.2 1.2h5.8l.4.7h4.8c.2-.8.4-1.7.5-2.5h-6.8zm2.1 3.8l.4.7h-8.1c-.2.4-.3.8-.5 1.2h9.3l.4.7h1.1c.4-.8.8-1.7 1.1-2.5h-3.7zM24 31.7h11.1c.3-.4.6-.8.8-1.2H24.8c-.2.4-.5.8-.8 1.2zm-4 3.8h11.2l1.5-1.2H21.5c-.5.5-1 .9-1.5 1.2zm-6.1 2.9c1.8.5 3.7.8 5.7.8 2.3 0 4.6-.4 6.7-1.2H15c-.4.2-.7.4-1.1.4zm14.2-19.5h-6.9l.7 1.6h6.2v-1.6zm-9.6-.6l-.3.6h-3.4v1.6h2.7l-.3.6h4.9l-1.3-2.9h-2.3zM68.2 30.3h-9.7l4.8-12 4.9 12zm-16.8 9H55l2.5-6.1h11.9l2.5 6.1h3.8L65.4 15h-3.6L51.4 39.3zM79 35.8c1.3.8 3.1 1.3 4.1 1.3 1.5 0 3.4-.6 3.4-2.5 0-3.2-7.7-3-7.7-7.9 0-3.7 2.7-5.5 6.3-5.5 1.5 0 2.8.3 4.1.7l-.3 2.9c-.7-.5-2.7-.9-3.4-.9-1.7 0-3.1.7-3.1 2.2 0 3.6 7.7 2.6 7.7 8.2 0 3.8-3 5.5-6.2 5.5-1.7 0-3.4-.2-4.9-1v-3zm15.5 0c1.3.8 3.1 1.3 4.1 1.3 1.5 0 3.4-.6 3.4-2.5 0-3.2-7.7-3-7.7-7.9 0-3.7 2.7-5.5 6.3-5.5 1.5 0 2.8.3 4.1.7l-.3 2.9c-.7-.5-2.7-.9-3.4-.9-1.7 0-3.2.7-3.2 2.2 0 3.6 7.7 2.6 7.7 8.2 0 3.8-3 5.5-6.2 5.5-1.7 0-3.4-.2-4.9-1l.1-3zm26.8-3.4c0 2.6-1.7 4.7-4.9 4.7-1.5 0-3.3-1-3.3-2.9 0-3.1 4.4-3.4 6.2-3.4.7 0 1.4.1 2.1.1v1.5zm-9.5-6.8c1.3-1.1 3.3-1.8 5.1-1.8 3.3 0 4.4 1.5 4.4 4.6-1.3-.1-2.2-.1-3.5-.1-3.4 0-8.2 1.4-8.2 5.8 0 3.9 2.7 5.5 6.5 5.5 3 0 4.7-1.6 5.5-2.7h.1v2.3h3.1c-.1-.5-.1-1.5-.1-3.5v-7.3c0-4.8-2.1-7.3-7.1-7.3-2.3 0-4.2.7-5.8 1.7v2.8zm18.9-4h3.2v2.8h.1c1-2 3.3-3.2 5.8-3.2 4.6 0 6.6 2.9 6.6 7.6v10.5h-3.3v-9.2c0-4.1-.9-6.1-3.8-6.3-3.7 0-5.4 3-5.4 7.3v8.2h-3.3V21.6zm30.3 2.9h-4.7v9.7c0 2 1.3 3.2 2.7 3.2 1 0 1.7-.3 2.2-.6v2.8c-.7.2-1.7.5-2.8.5-3.4 0-5.5-1.6-5.5-5.1V24.5h-4v-2.6h4v-4.1l3.3-1v5.1h4.7v2.6zm6.4 4.2c.2-2.3 1.6-4.9 4.8-4.9 2.8 0 4.4 2.2 4.4 4.9h-9.2zm11.3 6.6c-.8.7-3.3 1.8-5.5 1.8-3.1 0-5.8-2.4-5.8-5.9H180c0-5.7-1.9-10-7.8-10-5 0-8.3 3.7-8.3 8.9 0 5.8 2.9 9.6 9.2 9.6 2.9 0 4.3-.7 5.6-1.1v-3.3zM56.8 1.4c-.5-.3-1.2-.4-1.7-.4-1.5 0-2.4 1-2.4 2.4 0 1.3.8 2.3 2.2 2.3.4 0 .6 0 .9-.1V3.9h-1.4v-1H57v3.5c-.7.2-1.4.3-2.1.3-2.1 0-3.6-1.1-3.6-3.3 0-2.2 1.4-3.5 3.6-3.5.8 0 1.4.1 1.9.3v1.2zM59.3.1h3.8v1h-2.5v1.6h2.3v1h-2.3v1.8h2.6v1h-3.9V.1zm9.6 1.2c-.4-.2-.9-.3-1.3-.3s-1 .2-1 .9c0 1.1 2.9.7 2.9 2.8 0 1.4-1.1 2-2.4 2-.7 0-1-.1-1.7-.3l.1-1.2c.4.2 1 .4 1.5.4s1.2-.3 1.2-.8c0-1.2-2.9-.7-2.9-2.9 0-1.5 1.1-2 2.3-2 .4.1.9.2 1.4.3l-.1 1.1zm3.7-.2h-1.9v-1h5v1h-1.9v5.5h-1.3V1.1zm4.8-1h1.3v6.5h-1.3V.1zm6.5-.1c2 0 3.2 1.4 3.2 3.4S86 6.8 83.9 6.8s-3.2-1.4-3.2-3.4S81.8 0 83.9 0zm0 5.7c1.3 0 1.8-1.2 1.8-2.4 0-1.1-.5-2.3-1.8-2.3s-1.8 1.2-1.8 2.3c0 1.2.4 2.4 1.8 2.4zM89.1.1h1.6L93.2 5V.1h1.3v6.5h-1.6l-2.5-4.9v4.9h-1.3V.1zm11.2 0h1.8c2 0 3.8.7 3.8 3.3 0 2.6-1.8 3.3-3.8 3.3h-1.8V.1zm1.3 5.5h.7c1.1 0 2.1-.8 2.1-2.2 0-1.4-1.1-2.2-2.1-2.2h-.7v4.4zm6.3-5.5h3.8v1h-2.5v1.6h2.3v1h-2.3v1.8h2.6v1h-3.9V.1zm9.4 0h1.7c1.4 0 2.7.4 2.7 2 0 1.5-1.1 2.1-2.5 2.1h-.6v2.5h-1.3V.1zm1.3 3h.5c.7 0 1.2-.2 1.2-1s-.6-1-1.2-1h-.5v2zm6.8-3h1.5l2.6 6.5H128l-.6-1.5h-2.6l-.6 1.5h-1.4l2.6-6.5zm.7 1.3l-1 2.7h1.9l-.9-2.7zm6.2-.3h-1.9v-1h5v1h-1.9v5.5h-1.3V1.1zm4.8-1h1.4c1.4 0 3.1 0 3.1 1.8 0 .8-.5 1.4-1.3 1.5.4 0 .6.4.7.7l1 2.5h-1.5l-.8-2c-.2-.5-.4-.7-.9-.7h-.4v2.7h-1.3V.1zm1.3 2.8h.4c.6 0 1.4-.1 1.4-.9s-.7-.8-1.4-.8h-.4v1.7zm5.3-2.8h1.3v6.5h-1.3V.1zm3.6 0h2.1l1.5 4.9 1.5-4.9h2.1v6.5h-1.3V1.3l-1.8 5.4h-1.3l-1.8-5.4v5.4H147V.1zm12.6-.1c2 0 3.2 1.4 3.2 3.4s-1.1 3.4-3.2 3.4-3.2-1.4-3.2-3.4 1.1-3.4 3.2-3.4zm0 5.7c1.3 0 1.8-1.2 1.8-2.4 0-1.1-.5-2.3-1.8-2.3s-1.8 1.2-1.8 2.3c-.1 1.2.4 2.4 1.8 2.4zM165 .1h1.3v6.5H165V.1zm3.5 0h1.6l2.5 4.9V.1h1.3v6.5h-1.6l-2.5-4.9v4.9h-1.3V.1zm7.7 0h3.8v1h-2.5v1.6h2.3v1h-2.3v1.8h2.6v1h-3.9V.1z"/>
    <g>
        <path fill="#003e51" d="M182.2 24.2c0-1.7 1.4-3.1 3.1-3.1 1.7 0 3.1 1.4 3.1 3.1 0 1.7-1.4 3.1-3.1 3.1-1.8-.1-3.1-1.4-3.1-3.1zm5.3 0c0-1.4-1-2.5-2.3-2.5-1.3 0-2.3 1-2.3 2.5 0 1.4 1 2.5 2.3 2.5 1.3-.1 2.3-1.1 2.3-2.5zm-3.5-1.8h1.3c.8 0 1.3.3 1.3 1 0 .6-.3.9-.9.9l.9 1.5h-.6l-.9-1.5h-.4v1.5h-.7v-3.4zm.7 1.5h.6c.4 0 .7-.1.7-.5s-.4-.5-.7-.5h-.6v1z"/>
    </g>
</svg>
